solid OpenSCAD_Model
  facet normal 0.707107 0 -0.707107
    outer loop
      vertex -32.0311 -34 10.75
      vertex -30.75 32.01 12.0311
      vertex -30.75 -34 12.0311
    endloop
  endfacet
  facet normal 0.707107 0 -0.707107
    outer loop
      vertex -30.75 32.01 12.0311
      vertex -32.0311 -34 10.75
      vertex -32.0311 32.01 10.75
    endloop
  endfacet
  facet normal 0.965927 0 -0.258813
    outer loop
      vertex -32.0311 -34 10.75
      vertex -32.5 32.01 9
      vertex -32.0311 32.01 10.75
    endloop
  endfacet
  facet normal 0.965927 0 -0.258813
    outer loop
      vertex -32.5 32.01 9
      vertex -32.0311 -34 10.75
      vertex -32.5 -34 9
    endloop
  endfacet
  facet normal 0 0 -1
    outer loop
      vertex 29 -34 12.5
      vertex 2 -30 12.5
      vertex 29 -30 12.5
    endloop
  endfacet
  facet normal 0 0 -1
    outer loop
      vertex 2 -30 12.5
      vertex -2 -30 12.5
      vertex 2 30 12.5
    endloop
  endfacet
  facet normal 0 0 -1
    outer loop
      vertex 29 -34 12.5
      vertex -2 -30 12.5
      vertex 2 -30 12.5
    endloop
  endfacet
  facet normal 0 0 -1
    outer loop
      vertex -29 -34 12.5
      vertex -2 -30 12.5
      vertex 29 -34 12.5
    endloop
  endfacet
  facet normal -0 0 -1
    outer loop
      vertex -2 -30 12.5
      vertex -29 -34 12.5
      vertex -29 -30 12.5
    endloop
  endfacet
  facet normal 0 0 -1
    outer loop
      vertex 2 30 12.5
      vertex 29 32.01 12.5
      vertex 29 30 12.5
    endloop
  endfacet
  facet normal 0 0 -1
    outer loop
      vertex -2 30 12.5
      vertex 2 30 12.5
      vertex -2 -30 12.5
    endloop
  endfacet
  facet normal 0 0 -1
    outer loop
      vertex -2 30 12.5
      vertex 29 32.01 12.5
      vertex 2 30 12.5
    endloop
  endfacet
  facet normal 0 0 -1
    outer loop
      vertex -29 32.01 12.5
      vertex -2 30 12.5
      vertex -29 30 12.5
    endloop
  endfacet
  facet normal 0 0 -1
    outer loop
      vertex -2 30 12.5
      vertex -29 32.01 12.5
      vertex 29 32.01 12.5
    endloop
  endfacet
  facet normal 1 -0 0
    outer loop
      vertex -32.5 -34 9
      vertex -32.5 32.01 8
      vertex -32.5 32.01 9
    endloop
  endfacet
  facet normal 1 0 0
    outer loop
      vertex -32.5 32.01 8
      vertex -32.5 -34 9
      vertex -32.5 -34 8
    endloop
  endfacet
  facet normal 0.258865 0 -0.965914
    outer loop
      vertex -29 -34 12.5
      vertex -29.5 -30 12.366
      vertex -29 -30 12.5
    endloop
  endfacet
  facet normal 0.258793 0 -0.965933
    outer loop
      vertex -30.75 32.01 12.0311
      vertex -29.5 -30 12.366
      vertex -30.75 -34 12.0311
    endloop
  endfacet
  facet normal 0.258813 -6.89948e-06 -0.965927
    outer loop
      vertex -30.75 -34 12.0311
      vertex -29.5 -30 12.366
      vertex -29 -34 12.5
    endloop
  endfacet
  facet normal 0.258865 0 -0.965914
    outer loop
      vertex -29.5 30 12.366
      vertex -29 32.01 12.5
      vertex -29 30 12.5
    endloop
  endfacet
  facet normal 0.258813 1.37303e-05 -0.965927
    outer loop
      vertex -29.5 30 12.366
      vertex -30.75 32.01 12.0311
      vertex -29 32.01 12.5
    endloop
  endfacet
  facet normal 0.258793 0 -0.965933
    outer loop
      vertex -29.5 -30 12.366
      vertex -30.75 32.01 12.0311
      vertex -29.5 30 12.366
    endloop
  endfacet
  facet normal -1 0 0
    outer loop
      vertex 32.5 -34 8
      vertex 32.5 32.01 9
      vertex 32.5 32.01 8
    endloop
  endfacet
  facet normal -1 -0 0
    outer loop
      vertex 32.5 32.01 9
      vertex 32.5 -34 8
      vertex 32.5 -34 9
    endloop
  endfacet
  facet normal 0 1 0
    outer loop
      vertex 32.5 -34 9
      vertex 29 -34 12.5
      vertex 30.75 -34 12.0311
    endloop
  endfacet
  facet normal 0 1 0
    outer loop
      vertex 29 -34 12.5
      vertex 32.5 -34 8
      vertex -29 -34 12.5
    endloop
  endfacet
  facet normal 0 1 0
    outer loop
      vertex 32.5 -34 9
      vertex 30.75 -34 12.0311
      vertex 32.0311 -34 10.75
    endloop
  endfacet
  facet normal 0 1 0
    outer loop
      vertex -32.5 -34 8
      vertex -29 -34 12.5
      vertex 32.5 -34 8
    endloop
  endfacet
  facet normal 0 1 0
    outer loop
      vertex 29 -34 12.5
      vertex 32.5 -34 9
      vertex 32.5 -34 8
    endloop
  endfacet
  facet normal -0 1 0
    outer loop
      vertex -32.5 -34 9
      vertex -29 -34 12.5
      vertex -32.5 -34 8
    endloop
  endfacet
  facet normal 0 1 0
    outer loop
      vertex -29 -34 12.5
      vertex -32.5 -34 9
      vertex -30.75 -34 12.0311
    endloop
  endfacet
  facet normal 0 1 0
    outer loop
      vertex -30.75 -34 12.0311
      vertex -32.5 -34 9
      vertex -32.0311 -34 10.75
    endloop
  endfacet
  facet normal 0 -1 0
    outer loop
      vertex -32.5 32.01 9
      vertex -29 32.01 12.5
      vertex -30.75 32.01 12.0311
    endloop
  endfacet
  facet normal 0 -1 -0
    outer loop
      vertex -29 32.01 12.5
      vertex -32.5 32.01 8
      vertex 29 32.01 12.5
    endloop
  endfacet
  facet normal 0 -1 0
    outer loop
      vertex -32.5 32.01 9
      vertex -30.75 32.01 12.0311
      vertex -32.0311 32.01 10.75
    endloop
  endfacet
  facet normal 0 -1 0
    outer loop
      vertex 32.5 32.01 8
      vertex 29 32.01 12.5
      vertex -32.5 32.01 8
    endloop
  endfacet
  facet normal 0 -1 0
    outer loop
      vertex -29 32.01 12.5
      vertex -32.5 32.01 9
      vertex -32.5 32.01 8
    endloop
  endfacet
  facet normal -0 -1 -0
    outer loop
      vertex 32.5 32.01 9
      vertex 29 32.01 12.5
      vertex 32.5 32.01 8
    endloop
  endfacet
  facet normal 0 -1 0
    outer loop
      vertex 29 32.01 12.5
      vertex 32.5 32.01 9
      vertex 30.75 32.01 12.0311
    endloop
  endfacet
  facet normal 0 -1 0
    outer loop
      vertex 30.75 32.01 12.0311
      vertex 32.5 32.01 9
      vertex 32.0311 32.01 10.75
    endloop
  endfacet
  facet normal -0.707107 0 -0.707107
    outer loop
      vertex 30.75 -34 12.0311
      vertex 32.0311 32.01 10.75
      vertex 32.0311 -34 10.75
    endloop
  endfacet
  facet normal -0.707107 0 -0.707107
    outer loop
      vertex 32.0311 32.01 10.75
      vertex 30.75 -34 12.0311
      vertex 30.75 32.01 12.0311
    endloop
  endfacet
  facet normal -0.965927 0 -0.258813
    outer loop
      vertex 32.5 -34 9
      vertex 32.0311 32.01 10.75
      vertex 32.5 32.01 9
    endloop
  endfacet
  facet normal -0.965927 -0 -0.258813
    outer loop
      vertex 32.0311 32.01 10.75
      vertex 32.5 -34 9
      vertex 32.0311 -34 10.75
    endloop
  endfacet
  facet normal -0.258793 0 -0.965933
    outer loop
      vertex 30.75 -34 12.0311
      vertex 29.5 -30 12.366
      vertex 30.75 32.01 12.0311
    endloop
  endfacet
  facet normal -0.258813 -6.89948e-06 -0.965927
    outer loop
      vertex 29 -34 12.5
      vertex 29.5 -30 12.366
      vertex 30.75 -34 12.0311
    endloop
  endfacet
  facet normal -0.258865 0 -0.965914
    outer loop
      vertex 29.5 -30 12.366
      vertex 29 -34 12.5
      vertex 29 -30 12.5
    endloop
  endfacet
  facet normal -0.258793 -0 -0.965933
    outer loop
      vertex 29.5 30 12.366
      vertex 30.75 32.01 12.0311
      vertex 29.5 -30 12.366
    endloop
  endfacet
  facet normal -0.258865 -0 -0.965914
    outer loop
      vertex 29 32.01 12.5
      vertex 29.5 30 12.366
      vertex 29 30 12.5
    endloop
  endfacet
  facet normal -0.258813 1.37303e-05 -0.965927
    outer loop
      vertex 29.5 30 12.366
      vertex 29 32.01 12.5
      vertex 30.75 32.01 12.0311
    endloop
  endfacet
  facet normal -1 0 0
    outer loop
      vertex -2 -30 12.5
      vertex -2 30 13
      vertex -2 30 12.5
    endloop
  endfacet
  facet normal -1 -0 0
    outer loop
      vertex -2 30 13
      vertex -2 -30 12.5
      vertex -2 -30 13
    endloop
  endfacet
  facet normal 1 -0 0
    outer loop
      vertex -29.5 -30 13
      vertex -29.5 30 12.366
      vertex -29.5 30 13
    endloop
  endfacet
  facet normal 1 0 0
    outer loop
      vertex -29.5 30 12.366
      vertex -29.5 -30 13
      vertex -29.5 -30 12.366
    endloop
  endfacet
  facet normal 0 -1 0
    outer loop
      vertex -29.5 30 13
      vertex -29 30 12.5
      vertex -2 30 13
    endloop
  endfacet
  facet normal -0 -1 0
    outer loop
      vertex -29 30 12.5
      vertex -29.5 30 13
      vertex -29.5 30 12.366
    endloop
  endfacet
  facet normal 0 -1 -0
    outer loop
      vertex -2 30 13
      vertex -29 30 12.5
      vertex -2 30 12.5
    endloop
  endfacet
  facet normal 0 1 0
    outer loop
      vertex -29 -30 12.5
      vertex -2 -30 13
      vertex -2 -30 12.5
    endloop
  endfacet
  facet normal 0 1 0
    outer loop
      vertex -2 -30 13
      vertex -29 -30 12.5
      vertex -29.5 -30 13
    endloop
  endfacet
  facet normal 0 1 0
    outer loop
      vertex -29.5 -30 13
      vertex -29 -30 12.5
      vertex -29.5 -30 12.366
    endloop
  endfacet
  facet normal -1 0 0
    outer loop
      vertex 29.5 -30 12.366
      vertex 29.5 30 13
      vertex 29.5 30 12.366
    endloop
  endfacet
  facet normal -1 -0 0
    outer loop
      vertex 29.5 30 13
      vertex 29.5 -30 12.366
      vertex 29.5 -30 13
    endloop
  endfacet
  facet normal 1 -0 0
    outer loop
      vertex 2 -30 13
      vertex 2 30 12.5
      vertex 2 30 13
    endloop
  endfacet
  facet normal 1 0 0
    outer loop
      vertex 2 30 12.5
      vertex 2 -30 13
      vertex 2 -30 12.5
    endloop
  endfacet
  facet normal 0 -1 0
    outer loop
      vertex 29 30 12.5
      vertex 2 30 13
      vertex 2 30 12.5
    endloop
  endfacet
  facet normal 0 -1 0
    outer loop
      vertex 2 30 13
      vertex 29 30 12.5
      vertex 29.5 30 13
    endloop
  endfacet
  facet normal 0 -1 -0
    outer loop
      vertex 29.5 30 13
      vertex 29 30 12.5
      vertex 29.5 30 12.366
    endloop
  endfacet
  facet normal 0 1 0
    outer loop
      vertex 29.5 -30 13
      vertex 29 -30 12.5
      vertex 2 -30 13
    endloop
  endfacet
  facet normal -0 1 0
    outer loop
      vertex 29 -30 12.5
      vertex 29.5 -30 13
      vertex 29.5 -30 12.366
    endloop
  endfacet
  facet normal 0 1 0
    outer loop
      vertex 2 -30 13
      vertex 29 -30 12.5
      vertex 2 -30 12.5
    endloop
  endfacet
  facet normal 1 -0 0
    outer loop
      vertex 35 -36 13
      vertex 35 36 8
      vertex 35 36 13
    endloop
  endfacet
  facet normal 1 0 0
    outer loop
      vertex 35 36 8
      vertex 35 -36 13
      vertex 35 -36 8
    endloop
  endfacet
  facet normal 0 0 1
    outer loop
      vertex 35 36 13
      vertex 29.5 30 13
      vertex 35 -36 13
    endloop
  endfacet
  facet normal 0 0 1
    outer loop
      vertex 35 36 13
      vertex 2 30 13
      vertex 29.5 30 13
    endloop
  endfacet
  facet normal 0 0 1
    outer loop
      vertex 2 30 13
      vertex -2 30 13
      vertex 2 -30 13
    endloop
  endfacet
  facet normal 0 0 1
    outer loop
      vertex 35 36 13
      vertex -2 30 13
      vertex 2 30 13
    endloop
  endfacet
  facet normal -0 0 1
    outer loop
      vertex -35 36 13
      vertex -2 30 13
      vertex 35 36 13
    endloop
  endfacet
  facet normal 0 0 1
    outer loop
      vertex -29.5 30 13
      vertex -35 36 13
      vertex -29.5 -30 13
    endloop
  endfacet
  facet normal 0 0 1
    outer loop
      vertex -2 30 13
      vertex -35 36 13
      vertex -29.5 30 13
    endloop
  endfacet
  facet normal -0 0 1
    outer loop
      vertex 29.5 -30 13
      vertex 35 -36 13
      vertex 29.5 30 13
    endloop
  endfacet
  facet normal -0 0 1
    outer loop
      vertex 2 -30 13
      vertex 35 -36 13
      vertex 29.5 -30 13
    endloop
  endfacet
  facet normal 0 0 1
    outer loop
      vertex -2 -30 13
      vertex 2 -30 13
      vertex -2 30 13
    endloop
  endfacet
  facet normal -0 0 1
    outer loop
      vertex -2 -30 13
      vertex 35 -36 13
      vertex 2 -30 13
    endloop
  endfacet
  facet normal 0 0 1
    outer loop
      vertex -35 -36 13
      vertex -2 -30 13
      vertex -29.5 -30 13
    endloop
  endfacet
  facet normal 0 0 1
    outer loop
      vertex -2 -30 13
      vertex -35 -36 13
      vertex 35 -36 13
    endloop
  endfacet
  facet normal 0 0 1
    outer loop
      vertex -35 -36 13
      vertex -29.5 -30 13
      vertex -35 36 13
    endloop
  endfacet
  facet normal 0 0 -1
    outer loop
      vertex 32.5 32.01 8
      vertex 35 -36 8
      vertex 32.5 -34 8
    endloop
  endfacet
  facet normal 0 0 -1
    outer loop
      vertex 35 -36 8
      vertex -32.5 -34 8
      vertex 32.5 -34 8
    endloop
  endfacet
  facet normal -0 0 -1
    outer loop
      vertex -32.5 -34 8
      vertex -35 -36 8
      vertex -32.5 32.01 8
    endloop
  endfacet
  facet normal 0 0 -1
    outer loop
      vertex -35 -36 8
      vertex -32.5 -34 8
      vertex 35 -36 8
    endloop
  endfacet
  facet normal 0 0 -1
    outer loop
      vertex 35 -36 8
      vertex 32.5 32.01 8
      vertex 35 36 8
    endloop
  endfacet
  facet normal 0 0 -1
    outer loop
      vertex -32.5 32.01 8
      vertex 35 36 8
      vertex 32.5 32.01 8
    endloop
  endfacet
  facet normal 0 0 -1
    outer loop
      vertex -32.5 32.01 8
      vertex -35 36 8
      vertex 35 36 8
    endloop
  endfacet
  facet normal 0 0 -1
    outer loop
      vertex -35 36 8
      vertex -32.5 32.01 8
      vertex -35 -36 8
    endloop
  endfacet
  facet normal -1 0 0
    outer loop
      vertex -35 -36 8
      vertex -35 36 13
      vertex -35 36 8
    endloop
  endfacet
  facet normal -1 -0 0
    outer loop
      vertex -35 36 13
      vertex -35 -36 8
      vertex -35 -36 13
    endloop
  endfacet
  facet normal 0 1 -0
    outer loop
      vertex 35 36 8
      vertex -35 36 13
      vertex 35 36 13
    endloop
  endfacet
  facet normal 0 1 0
    outer loop
      vertex -35 36 13
      vertex 35 36 8
      vertex -35 36 8
    endloop
  endfacet
  facet normal 0 -1 0
    outer loop
      vertex -35 -36 8
      vertex 35 -36 13
      vertex -35 -36 13
    endloop
  endfacet
  facet normal 0 -1 -0
    outer loop
      vertex 35 -36 13
      vertex -35 -36 8
      vertex 35 -36 8
    endloop
  endfacet
endsolid OpenSCAD_Model
