solid OpenSCAD_Model
  facet normal -0.568064 0.822984 0
    outer loop
      vertex -1.41842 3.74006 0
      vertex -2.99404 2.65249 10
      vertex -1.41842 3.74006 10
    endloop
  endfacet
  facet normal -0.568064 0.822984 0
    outer loop
      vertex -2.99404 2.65249 10
      vertex -1.41842 3.74006 0
      vertex -2.99404 2.65249 0
    endloop
  endfacet
  facet normal 0.80901 0.587795 0
    outer loop
      vertex 31 0 2
      vertex 30.309 0.951056 0
      vertex 30.309 0.951056 2
    endloop
  endfacet
  facet normal 0.80901 0.587795 0
    outer loop
      vertex 30.309 0.951056 0
      vertex 31 0 2
      vertex 31 0 0
    endloop
  endfacet
  facet normal 0.100729 -0.994914 0
    outer loop
      vertex 0.482146 -3.97083 0
      vertex 30.309 -0.951056 2
      vertex 0.482146 -3.97083 2
    endloop
  endfacet
  facet normal 0.100729 -0.994914 0
    outer loop
      vertex 30.309 -0.951056 2
      vertex 0.482146 -3.97083 0
      vertex 30.309 -0.951056 0
    endloop
  endfacet
  facet normal -0.120536 -0.992709 0
    outer loop
      vertex -1.41842 -3.74006 10
      vertex 0.482146 -3.97083 2
      vertex 0.482146 -3.97083 10
    endloop
  endfacet
  facet normal -0.120536 -0.992709 0
    outer loop
      vertex -1.41842 -3.74006 0
      vertex 0.482146 -3.97083 2
      vertex -1.41842 -3.74006 10
    endloop
  endfacet
  facet normal -0.120536 -0.992709 -0
    outer loop
      vertex 0.482146 -3.97083 2
      vertex -1.41842 -3.74006 0
      vertex 0.482146 -3.97083 0
    endloop
  endfacet
  facet normal -1 0 0
    outer loop
      vertex -3.88377 -0.957262 0
      vertex -3.88377 0.957262 10
      vertex -3.88377 0.957262 0
    endloop
  endfacet
  facet normal -1 -0 0
    outer loop
      vertex -3.88377 0.957262 10
      vertex -3.88377 -0.957262 0
      vertex -3.88377 -0.957262 10
    endloop
  endfacet
  facet normal 0.80901 -0.587795 0
    outer loop
      vertex 30.309 -0.951056 2
      vertex 31 0 0
      vertex 31 0 2
    endloop
  endfacet
  facet normal 0.80901 -0.587795 0
    outer loop
      vertex 31 0 0
      vertex 30.309 -0.951056 2
      vertex 30.309 -0.951056 0
    endloop
  endfacet
  facet normal -0.885455 -0.464726 0
    outer loop
      vertex -2.99404 -2.65249 0
      vertex -3.88377 -0.957262 10
      vertex -3.88377 -0.957262 0
    endloop
  endfacet
  facet normal -0.885455 -0.464726 0
    outer loop
      vertex -3.88377 -0.957262 10
      vertex -2.99404 -2.65249 0
      vertex -2.99404 -2.65249 10
    endloop
  endfacet
  facet normal -0.568064 -0.822984 0
    outer loop
      vertex -2.99404 -2.65249 0
      vertex -1.41842 -3.74006 10
      vertex -2.99404 -2.65249 10
    endloop
  endfacet
  facet normal -0.568064 -0.822984 -0
    outer loop
      vertex -1.41842 -3.74006 10
      vertex -2.99404 -2.65249 0
      vertex -1.41842 -3.74006 0
    endloop
  endfacet
  facet normal 0.100729 0.994914 -0
    outer loop
      vertex 30.309 0.951056 0
      vertex 0.482146 3.97083 2
      vertex 30.309 0.951056 2
    endloop
  endfacet
  facet normal 0.100729 0.994914 0
    outer loop
      vertex 0.482146 3.97083 2
      vertex 30.309 0.951056 0
      vertex 0.482146 3.97083 0
    endloop
  endfacet
  facet normal 0 0 1
    outer loop
      vertex 30.309 0.951056 2
      vertex 30.309 -0.951056 2
      vertex 31 0 2
    endloop
  endfacet
  facet normal 0 0 1
    outer loop
      vertex 30.309 0.951056 2
      vertex 4 0 2
      vertex 30.309 -0.951056 2
    endloop
  endfacet
  facet normal 0 0 1
    outer loop
      vertex 30.309 0.951056 2
      vertex 3.54182 1.85889 2
      vertex 4 0 2
    endloop
  endfacet
  facet normal 0 0 1
    outer loop
      vertex 30.309 0.951056 2
      vertex 2.27226 3.29193 2
      vertex 3.54182 1.85889 2
    endloop
  endfacet
  facet normal -0 -0 1
    outer loop
      vertex 2.27226 3.29193 2
      vertex 30.309 0.951056 2
      vertex 0.482146 3.97083 2
    endloop
  endfacet
  facet normal 0 0 1
    outer loop
      vertex 3.54182 -1.85889 2
      vertex 30.309 -0.951056 2
      vertex 4 0 2
    endloop
  endfacet
  facet normal 0 0 1
    outer loop
      vertex 2.27226 -3.29193 2
      vertex 30.309 -0.951056 2
      vertex 3.54182 -1.85889 2
    endloop
  endfacet
  facet normal 0 0 1
    outer loop
      vertex 30.309 -0.951056 2
      vertex 2.27226 -3.29193 2
      vertex 0.482146 -3.97083 2
    endloop
  endfacet
  facet normal -0.120536 0.992709 0
    outer loop
      vertex 0.482146 3.97083 2
      vertex -1.41842 3.74006 10
      vertex 0.482146 3.97083 10
    endloop
  endfacet
  facet normal -0.120536 0.992709 0
    outer loop
      vertex -1.41842 3.74006 0
      vertex 0.482146 3.97083 2
      vertex 0.482146 3.97083 0
    endloop
  endfacet
  facet normal -0.120536 0.992709 0
    outer loop
      vertex 0.482146 3.97083 2
      vertex -1.41842 3.74006 0
      vertex -1.41842 3.74006 10
    endloop
  endfacet
  facet normal -0.885455 0.464726 0
    outer loop
      vertex -3.88377 0.957262 0
      vertex -2.99404 2.65249 10
      vertex -2.99404 2.65249 0
    endloop
  endfacet
  facet normal -0.885455 0.464726 0
    outer loop
      vertex -2.99404 2.65249 10
      vertex -3.88377 0.957262 0
      vertex -3.88377 0.957262 10
    endloop
  endfacet
  facet normal 0 0 -1
    outer loop
      vertex 30.309 -0.951056 0
      vertex 30.309 0.951056 0
      vertex 31 0 0
    endloop
  endfacet
  facet normal 0 0 -1
    outer loop
      vertex 30.309 -0.951056 0
      vertex 1.5 0 0
      vertex 30.309 0.951056 0
    endloop
  endfacet
  facet normal 0 0 -1
    outer loop
      vertex 30.309 -0.951056 0
      vertex 1.29904 -0.75 0
      vertex 1.5 0 0
    endloop
  endfacet
  facet normal 0 0 -1
    outer loop
      vertex 0.482146 -3.97083 0
      vertex 1.29904 -0.75 0
      vertex 30.309 -0.951056 0
    endloop
  endfacet
  facet normal 0 0 -1
    outer loop
      vertex 1.29904 -0.75 0
      vertex 0.482146 -3.97083 0
      vertex 0.75 -1.29904 0
    endloop
  endfacet
  facet normal 0 0 -1
    outer loop
      vertex 0.482146 -3.97083 0
      vertex 0 -1.5 0
      vertex 0.75 -1.29904 0
    endloop
  endfacet
  facet normal 0 0 -1
    outer loop
      vertex -1.41842 -3.74006 0
      vertex 0 -1.5 0
      vertex 0.482146 -3.97083 0
    endloop
  endfacet
  facet normal -0 0 -1
    outer loop
      vertex 0 -1.5 0
      vertex -1.41842 -3.74006 0
      vertex -0.75 -1.29904 0
    endloop
  endfacet
  facet normal 0 0 -1
    outer loop
      vertex -2.99404 -2.65249 0
      vertex -0.75 -1.29904 0
      vertex -1.41842 -3.74006 0
    endloop
  endfacet
  facet normal -0 0 -1
    outer loop
      vertex -0.75 -1.29904 0
      vertex -2.99404 -2.65249 0
      vertex -1.29904 -0.75 0
    endloop
  endfacet
  facet normal 0 0 -1
    outer loop
      vertex -3.88377 -0.957262 0
      vertex -1.29904 -0.75 0
      vertex -2.99404 -2.65249 0
    endloop
  endfacet
  facet normal 0 0 -1
    outer loop
      vertex 1.29904 0.75 0
      vertex 30.309 0.951056 0
      vertex 1.5 0 0
    endloop
  endfacet
  facet normal 0 0 -1
    outer loop
      vertex 0.482146 3.97083 0
      vertex 1.29904 0.75 0
      vertex 0.75 1.29904 0
    endloop
  endfacet
  facet normal 0 0 -1
    outer loop
      vertex 1.29904 0.75 0
      vertex 0.482146 3.97083 0
      vertex 30.309 0.951056 0
    endloop
  endfacet
  facet normal 0 0 -1
    outer loop
      vertex 0 1.5 0
      vertex 0.482146 3.97083 0
      vertex 0.75 1.29904 0
    endloop
  endfacet
  facet normal 0 0 -1
    outer loop
      vertex -1.41842 3.74006 0
      vertex 0 1.5 0
      vertex -0.75 1.29904 0
    endloop
  endfacet
  facet normal 0 0 -1
    outer loop
      vertex -2.99404 2.65249 0
      vertex -0.75 1.29904 0
      vertex -1.29904 0.75 0
    endloop
  endfacet
  facet normal 0 0 -1
    outer loop
      vertex 0 1.5 0
      vertex -1.41842 3.74006 0
      vertex 0.482146 3.97083 0
    endloop
  endfacet
  facet normal 0 0 -1
    outer loop
      vertex -3.88377 0.957262 0
      vertex -1.29904 0.75 0
      vertex -1.5 0 0
    endloop
  endfacet
  facet normal -0 0 -1
    outer loop
      vertex -1.29904 -0.75 0
      vertex -3.88377 -0.957262 0
      vertex -1.5 0 0
    endloop
  endfacet
  facet normal 0 0 -1
    outer loop
      vertex -0.75 1.29904 0
      vertex -2.99404 2.65249 0
      vertex -1.41842 3.74006 0
    endloop
  endfacet
  facet normal 0 0 -1
    outer loop
      vertex -3.88377 0.957262 0
      vertex -1.5 0 0
      vertex -3.88377 -0.957262 0
    endloop
  endfacet
  facet normal 0 0 -1
    outer loop
      vertex -1.29904 0.75 0
      vertex -3.88377 0.957262 0
      vertex -2.99404 2.65249 0
    endloop
  endfacet
  facet normal 0.748511 0.663122 0
    outer loop
      vertex 3.54182 1.85889 10
      vertex 2.27226 3.29193 2
      vertex 2.27226 3.29193 10
    endloop
  endfacet
  facet normal 0.748511 0.663122 0
    outer loop
      vertex 2.27226 3.29193 2
      vertex 3.54182 1.85889 10
      vertex 3.54182 1.85889 2
    endloop
  endfacet
  facet normal 0.970941 0.239318 0
    outer loop
      vertex 4 0 10
      vertex 3.54182 1.85889 2
      vertex 3.54182 1.85889 10
    endloop
  endfacet
  facet normal 0.970941 0.239318 0
    outer loop
      vertex 3.54182 1.85889 2
      vertex 4 0 10
      vertex 4 0 2
    endloop
  endfacet
  facet normal 0.748511 -0.663122 0
    outer loop
      vertex 2.27226 -3.29193 10
      vertex 3.54182 -1.85889 2
      vertex 3.54182 -1.85889 10
    endloop
  endfacet
  facet normal 0.748511 -0.663122 0
    outer loop
      vertex 3.54182 -1.85889 2
      vertex 2.27226 -3.29193 10
      vertex 2.27226 -3.29193 2
    endloop
  endfacet
  facet normal 0.970941 -0.239318 0
    outer loop
      vertex 3.54182 -1.85889 10
      vertex 4 0 2
      vertex 4 0 10
    endloop
  endfacet
  facet normal 0.970941 -0.239318 0
    outer loop
      vertex 4 0 2
      vertex 3.54182 -1.85889 10
      vertex 3.54182 -1.85889 2
    endloop
  endfacet
  facet normal 0.354605 0.935016 -0
    outer loop
      vertex 2.27226 3.29193 2
      vertex 0.482146 3.97083 10
      vertex 2.27226 3.29193 10
    endloop
  endfacet
  facet normal 0.354605 0.935016 0
    outer loop
      vertex 0.482146 3.97083 10
      vertex 2.27226 3.29193 2
      vertex 0.482146 3.97083 2
    endloop
  endfacet
  facet normal 0.354605 -0.935016 0
    outer loop
      vertex 0.482146 -3.97083 2
      vertex 2.27226 -3.29193 10
      vertex 0.482146 -3.97083 10
    endloop
  endfacet
  facet normal 0.354605 -0.935016 0
    outer loop
      vertex 2.27226 -3.29193 10
      vertex 0.482146 -3.97083 2
      vertex 2.27226 -3.29193 2
    endloop
  endfacet
  facet normal 0 0 1
    outer loop
      vertex -3.88377 -0.957262 10
      vertex -2.46817 -0.661344 10
      vertex -2.85 0 10
    endloop
  endfacet
  facet normal -0 0 1
    outer loop
      vertex 2.46817 0.661344 10
      vertex 4 0 10
      vertex 3.54182 1.85889 10
    endloop
  endfacet
  facet normal 0 0 1
    outer loop
      vertex 2.46817 -0.661344 10
      vertex 4 0 10
      vertex 2.85 0 10
    endloop
  endfacet
  facet normal 0 0 1
    outer loop
      vertex 2.46817 0.661344 10
      vertex 3.54182 1.85889 10
      vertex 2.46817 1.425 10
    endloop
  endfacet
  facet normal 0 0 1
    outer loop
      vertex 2.27226 3.29193 10
      vertex 2.46817 1.425 10
      vertex 3.54182 1.85889 10
    endloop
  endfacet
  facet normal 0 0 1
    outer loop
      vertex 2.27226 3.29193 10
      vertex 1.80683 1.80683 10
      vertex 2.46817 1.425 10
    endloop
  endfacet
  facet normal 0 0 1
    outer loop
      vertex 2.27226 3.29193 10
      vertex 1.425 2.46817 10
      vertex 1.80683 1.80683 10
    endloop
  endfacet
  facet normal 0 0 1
    outer loop
      vertex 0.482146 3.97083 10
      vertex 1.425 2.46817 10
      vertex 2.27226 3.29193 10
    endloop
  endfacet
  facet normal 0 0 1
    outer loop
      vertex 1.425 2.46817 10
      vertex 0.482146 3.97083 10
      vertex 0.661344 2.46817 10
    endloop
  endfacet
  facet normal 0 0 1
    outer loop
      vertex 0.482146 3.97083 10
      vertex 0 2.85 10
      vertex 0.661344 2.46817 10
    endloop
  endfacet
  facet normal -0 0 1
    outer loop
      vertex -1.41842 3.74006 10
      vertex 0 2.85 10
      vertex 0.482146 3.97083 10
    endloop
  endfacet
  facet normal 0 0 1
    outer loop
      vertex 0 2.85 10
      vertex -1.41842 3.74006 10
      vertex -0.661344 2.46817 10
    endloop
  endfacet
  facet normal 0 0 1
    outer loop
      vertex -1.41842 3.74006 10
      vertex -1.425 2.46817 10
      vertex -0.661344 2.46817 10
    endloop
  endfacet
  facet normal -0 0 1
    outer loop
      vertex -2.99404 2.65249 10
      vertex -1.425 2.46817 10
      vertex -1.41842 3.74006 10
    endloop
  endfacet
  facet normal 0 0 1
    outer loop
      vertex -1.425 2.46817 10
      vertex -2.99404 2.65249 10
      vertex -1.80683 1.80683 10
    endloop
  endfacet
  facet normal -0 0 1
    outer loop
      vertex -3.88377 0.957262 10
      vertex -2.46817 0.661344 10
      vertex -2.46817 1.425 10
    endloop
  endfacet
  facet normal 0 0 1
    outer loop
      vertex -3.88377 0.957262 10
      vertex -2.46817 1.425 10
      vertex -2.99404 2.65249 10
    endloop
  endfacet
  facet normal 0 0 1
    outer loop
      vertex -1.80683 1.80683 10
      vertex -2.99404 2.65249 10
      vertex -2.46817 1.425 10
    endloop
  endfacet
  facet normal 0 0 1
    outer loop
      vertex 4 0 10
      vertex 2.46817 -0.661344 10
      vertex 3.54182 -1.85889 10
    endloop
  endfacet
  facet normal -0 0 1
    outer loop
      vertex 2.46817 -1.425 10
      vertex 3.54182 -1.85889 10
      vertex 2.46817 -0.661344 10
    endloop
  endfacet
  facet normal 0 0 1
    outer loop
      vertex 2.46817 -1.425 10
      vertex 2.27226 -3.29193 10
      vertex 3.54182 -1.85889 10
    endloop
  endfacet
  facet normal -0 0 1
    outer loop
      vertex 1.80683 -1.80683 10
      vertex 2.27226 -3.29193 10
      vertex 2.46817 -1.425 10
    endloop
  endfacet
  facet normal -0 0 1
    outer loop
      vertex 1.425 -2.46817 10
      vertex 2.27226 -3.29193 10
      vertex 1.80683 -1.80683 10
    endloop
  endfacet
  facet normal 0 0 1
    outer loop
      vertex 0.482146 -3.97083 10
      vertex 1.425 -2.46817 10
      vertex 0.661344 -2.46817 10
    endloop
  endfacet
  facet normal 0 0 1
    outer loop
      vertex 1.425 -2.46817 10
      vertex 0.482146 -3.97083 10
      vertex 2.27226 -3.29193 10
    endloop
  endfacet
  facet normal -0 0 1
    outer loop
      vertex 0 -2.85 10
      vertex 0.482146 -3.97083 10
      vertex 0.661344 -2.46817 10
    endloop
  endfacet
  facet normal 0 0 1
    outer loop
      vertex -1.41842 -3.74006 10
      vertex 0 -2.85 10
      vertex -0.661344 -2.46817 10
    endloop
  endfacet
  facet normal 0 0 1
    outer loop
      vertex 0 -2.85 10
      vertex -1.41842 -3.74006 10
      vertex 0.482146 -3.97083 10
    endloop
  endfacet
  facet normal -0 0 1
    outer loop
      vertex -1.425 -2.46817 10
      vertex -1.41842 -3.74006 10
      vertex -0.661344 -2.46817 10
    endloop
  endfacet
  facet normal 0 0 1
    outer loop
      vertex -2.99404 -2.65249 10
      vertex -1.425 -2.46817 10
      vertex -1.80683 -1.80683 10
    endloop
  endfacet
  facet normal 0 0 1
    outer loop
      vertex -2.99404 -2.65249 10
      vertex -1.80683 -1.80683 10
      vertex -2.46817 -1.425 10
    endloop
  endfacet
  facet normal 0 0 1
    outer loop
      vertex -1.425 -2.46817 10
      vertex -2.99404 -2.65249 10
      vertex -1.41842 -3.74006 10
    endloop
  endfacet
  facet normal 0 0 1
    outer loop
      vertex -2.46817 -0.661344 10
      vertex -3.88377 -0.957262 10
      vertex -2.46817 -1.425 10
    endloop
  endfacet
  facet normal 0 0 1
    outer loop
      vertex -2.46817 0.661344 10
      vertex -3.88377 0.957262 10
      vertex -2.85 0 10
    endloop
  endfacet
  facet normal 0 0 1
    outer loop
      vertex -3.88377 -0.957262 10
      vertex -2.85 0 10
      vertex -3.88377 0.957262 10
    endloop
  endfacet
  facet normal 0 0 1
    outer loop
      vertex -2.46817 -1.425 10
      vertex -3.88377 -0.957262 10
      vertex -2.99404 -2.65249 10
    endloop
  endfacet
  facet normal 0 0 1
    outer loop
      vertex 4 0 10
      vertex 2.46817 0.661344 10
      vertex 2.85 0 10
    endloop
  endfacet
  facet normal 0 1 -0
    outer loop
      vertex -0.661344 -2.46817 8
      vertex -1.425 -2.46817 10
      vertex -0.661344 -2.46817 10
    endloop
  endfacet
  facet normal 0 1 0
    outer loop
      vertex -1.425 -2.46817 10
      vertex -0.661344 -2.46817 8
      vertex -1.425 -2.46817 8
    endloop
  endfacet
  facet normal 0 1 -0
    outer loop
      vertex 1.425 -2.46817 8
      vertex 0.661344 -2.46817 10
      vertex 1.425 -2.46817 10
    endloop
  endfacet
  facet normal 0 1 0
    outer loop
      vertex 0.661344 -2.46817 10
      vertex 1.425 -2.46817 8
      vertex 0.661344 -2.46817 8
    endloop
  endfacet
  facet normal -0.866022 0.500005 0
    outer loop
      vertex 1.425 -2.46817 8
      vertex 1.80683 -1.80683 10
      vertex 1.80683 -1.80683 8
    endloop
  endfacet
  facet normal -0.866022 0.500005 0
    outer loop
      vertex 1.80683 -1.80683 10
      vertex 1.425 -2.46817 8
      vertex 1.425 -2.46817 10
    endloop
  endfacet
  facet normal -0.866024 0.500003 0
    outer loop
      vertex 2.46817 -0.661344 8
      vertex 2.85 0 10
      vertex 2.85 0 8
    endloop
  endfacet
  facet normal -0.866024 0.500003 0
    outer loop
      vertex 2.85 0 10
      vertex 2.46817 -0.661344 8
      vertex 2.46817 -0.661344 10
    endloop
  endfacet
  facet normal 0 -1 0
    outer loop
      vertex 0.661344 2.46817 8
      vertex 1.425 2.46817 10
      vertex 0.661344 2.46817 10
    endloop
  endfacet
  facet normal 0 -1 -0
    outer loop
      vertex 1.425 2.46817 10
      vertex 0.661344 2.46817 8
      vertex 1.425 2.46817 8
    endloop
  endfacet
  facet normal 0 -1 0
    outer loop
      vertex -1.425 2.46817 8
      vertex -0.661344 2.46817 10
      vertex -1.425 2.46817 10
    endloop
  endfacet
  facet normal 0 -1 -0
    outer loop
      vertex -0.661344 2.46817 10
      vertex -1.425 2.46817 8
      vertex -0.661344 2.46817 8
    endloop
  endfacet
  facet normal -0.866022 -0.500005 0
    outer loop
      vertex 1.80683 1.80683 8
      vertex 1.425 2.46817 10
      vertex 1.425 2.46817 8
    endloop
  endfacet
  facet normal -0.866022 -0.500005 0
    outer loop
      vertex 1.425 2.46817 10
      vertex 1.80683 1.80683 8
      vertex 1.80683 1.80683 10
    endloop
  endfacet
  facet normal -0.866024 -0.500003 0
    outer loop
      vertex 2.85 0 8
      vertex 2.46817 0.661344 10
      vertex 2.46817 0.661344 8
    endloop
  endfacet
  facet normal -0.866024 -0.500003 0
    outer loop
      vertex 2.46817 0.661344 10
      vertex 2.85 0 8
      vertex 2.85 0 10
    endloop
  endfacet
  facet normal 0.866024 -0.500003 0
    outer loop
      vertex -2.85 0 10
      vertex -2.46817 0.661344 8
      vertex -2.46817 0.661344 10
    endloop
  endfacet
  facet normal 0.866024 -0.500003 0
    outer loop
      vertex -2.46817 0.661344 8
      vertex -2.85 0 10
      vertex -2.85 0 8
    endloop
  endfacet
  facet normal 0.866022 -0.500005 0
    outer loop
      vertex -1.80683 1.80683 10
      vertex -1.425 2.46817 8
      vertex -1.425 2.46817 10
    endloop
  endfacet
  facet normal 0.866022 -0.500005 0
    outer loop
      vertex -1.425 2.46817 8
      vertex -1.80683 1.80683 10
      vertex -1.80683 1.80683 8
    endloop
  endfacet
  facet normal 0.866022 0.500005 0
    outer loop
      vertex -1.425 -2.46817 10
      vertex -1.80683 -1.80683 8
      vertex -1.80683 -1.80683 10
    endloop
  endfacet
  facet normal 0.866022 0.500005 0
    outer loop
      vertex -1.80683 -1.80683 8
      vertex -1.425 -2.46817 10
      vertex -1.425 -2.46817 8
    endloop
  endfacet
  facet normal 0.866024 0.500003 0
    outer loop
      vertex -2.46817 -0.661344 10
      vertex -2.85 0 8
      vertex -2.85 0 10
    endloop
  endfacet
  facet normal 0.866024 0.500003 0
    outer loop
      vertex -2.85 0 8
      vertex -2.46817 -0.661344 10
      vertex -2.46817 -0.661344 8
    endloop
  endfacet
  facet normal 0 0 1
    outer loop
      vertex -1.5 0 8
      vertex -2.85 0 8
      vertex -2.46817 -0.661344 8
    endloop
  endfacet
  facet normal -0 0 1
    outer loop
      vertex 1.29904 0.75 8
      vertex 2.46817 0.661344 8
      vertex 2.46817 1.425 8
    endloop
  endfacet
  facet normal 0 0 1
    outer loop
      vertex 2.46817 0.661344 8
      vertex 1.5 0 8
      vertex 2.46817 -0.661344 8
    endloop
  endfacet
  facet normal 0 0 1
    outer loop
      vertex 1.29904 0.75 8
      vertex 2.46817 1.425 8
      vertex 1.80683 1.80683 8
    endloop
  endfacet
  facet normal 0 0 1
    outer loop
      vertex 1.29904 -0.75 8
      vertex 2.46817 -0.661344 8
      vertex 1.5 0 8
    endloop
  endfacet
  facet normal 0 0 1
    outer loop
      vertex 2.46817 -0.661344 8
      vertex 1.29904 -0.75 8
      vertex 2.46817 -1.425 8
    endloop
  endfacet
  facet normal 0 0 1
    outer loop
      vertex 0.75 1.29904 8
      vertex 1.80683 1.80683 8
      vertex 1.425 2.46817 8
    endloop
  endfacet
  facet normal 0 0 1
    outer loop
      vertex 2.46817 0.661344 8
      vertex 1.29904 0.75 8
      vertex 1.5 0 8
    endloop
  endfacet
  facet normal 0 0 1
    outer loop
      vertex 1.80683 1.80683 8
      vertex 0.75 1.29904 8
      vertex 1.29904 0.75 8
    endloop
  endfacet
  facet normal -0 0 1
    outer loop
      vertex 0.661344 2.46817 8
      vertex 0.75 1.29904 8
      vertex 1.425 2.46817 8
    endloop
  endfacet
  facet normal 0 0 1
    outer loop
      vertex 0 1.5 8
      vertex 0.661344 2.46817 8
      vertex 0 2.85 8
    endloop
  endfacet
  facet normal 0 0 1
    outer loop
      vertex 0.661344 2.46817 8
      vertex 0 1.5 8
      vertex 0.75 1.29904 8
    endloop
  endfacet
  facet normal -0 0 1
    outer loop
      vertex -0.661344 2.46817 8
      vertex 0 1.5 8
      vertex 0 2.85 8
    endloop
  endfacet
  facet normal 0 0 1
    outer loop
      vertex -0.661344 2.46817 8
      vertex -0.75 1.29904 8
      vertex 0 1.5 8
    endloop
  endfacet
  facet normal -0 0 1
    outer loop
      vertex -1.425 2.46817 8
      vertex -0.75 1.29904 8
      vertex -0.661344 2.46817 8
    endloop
  endfacet
  facet normal 0 0 1
    outer loop
      vertex -0.75 1.29904 8
      vertex -1.425 2.46817 8
      vertex -1.80683 1.80683 8
    endloop
  endfacet
  facet normal 0 0 1
    outer loop
      vertex -0.75 1.29904 8
      vertex -1.80683 1.80683 8
      vertex -1.29904 0.75 8
    endloop
  endfacet
  facet normal -0 0 1
    outer loop
      vertex -2.46817 1.425 8
      vertex -1.29904 0.75 8
      vertex -1.80683 1.80683 8
    endloop
  endfacet
  facet normal 0 0 1
    outer loop
      vertex 2.85 0 8
      vertex 2.46817 0.661344 8
      vertex 2.46817 -0.661344 8
    endloop
  endfacet
  facet normal 0 0 1
    outer loop
      vertex 2.46817 -1.425 8
      vertex 1.29904 -0.75 8
      vertex 1.80683 -1.80683 8
    endloop
  endfacet
  facet normal -0 0 1
    outer loop
      vertex 0.75 -1.29904 8
      vertex 1.80683 -1.80683 8
      vertex 1.29904 -0.75 8
    endloop
  endfacet
  facet normal 0 0 1
    outer loop
      vertex 1.80683 -1.80683 8
      vertex 0.75 -1.29904 8
      vertex 1.425 -2.46817 8
    endloop
  endfacet
  facet normal 0 0 1
    outer loop
      vertex 0.75 -1.29904 8
      vertex 0.661344 -2.46817 8
      vertex 1.425 -2.46817 8
    endloop
  endfacet
  facet normal -0 0 1
    outer loop
      vertex 0 -1.5 8
      vertex 0.661344 -2.46817 8
      vertex 0.75 -1.29904 8
    endloop
  endfacet
  facet normal 0 0 1
    outer loop
      vertex 0 -1.5 8
      vertex 0 -2.85 8
      vertex 0.661344 -2.46817 8
    endloop
  endfacet
  facet normal 0 0 1
    outer loop
      vertex 0 -1.5 8
      vertex -0.661344 -2.46817 8
      vertex 0 -2.85 8
    endloop
  endfacet
  facet normal 0 0 1
    outer loop
      vertex -0.75 -1.29904 8
      vertex -0.661344 -2.46817 8
      vertex 0 -1.5 8
    endloop
  endfacet
  facet normal 0 0 1
    outer loop
      vertex -1.80683 -1.80683 8
      vertex -0.75 -1.29904 8
      vertex -1.29904 -0.75 8
    endloop
  endfacet
  facet normal 0 -0 1
    outer loop
      vertex -1.425 -2.46817 8
      vertex -0.75 -1.29904 8
      vertex -1.80683 -1.80683 8
    endloop
  endfacet
  facet normal -0 0 1
    outer loop
      vertex -2.46817 -0.661344 8
      vertex -1.29904 -0.75 8
      vertex -1.5 0 8
    endloop
  endfacet
  facet normal 0 0 1
    outer loop
      vertex -1.29904 0.75 8
      vertex -2.46817 0.661344 8
      vertex -1.5 0 8
    endloop
  endfacet
  facet normal 0 0 1
    outer loop
      vertex -0.75 -1.29904 8
      vertex -1.425 -2.46817 8
      vertex -0.661344 -2.46817 8
    endloop
  endfacet
  facet normal 0 0 1
    outer loop
      vertex -1.29904 0.75 8
      vertex -2.46817 1.425 8
      vertex -2.46817 0.661344 8
    endloop
  endfacet
  facet normal 0 0 1
    outer loop
      vertex -2.85 0 8
      vertex -1.5 0 8
      vertex -2.46817 0.661344 8
    endloop
  endfacet
  facet normal 0 0 1
    outer loop
      vertex -2.46817 -1.425 8
      vertex -1.29904 -0.75 8
      vertex -2.46817 -0.661344 8
    endloop
  endfacet
  facet normal 0 0 1
    outer loop
      vertex -1.29904 -0.75 8
      vertex -2.46817 -1.425 8
      vertex -1.80683 -1.80683 8
    endloop
  endfacet
  facet normal -1 0 0
    outer loop
      vertex 2.46817 -1.425 8
      vertex 2.46817 -0.661344 10
      vertex 2.46817 -0.661344 8
    endloop
  endfacet
  facet normal -1 -0 0
    outer loop
      vertex 2.46817 -0.661344 10
      vertex 2.46817 -1.425 8
      vertex 2.46817 -1.425 10
    endloop
  endfacet
  facet normal -1 0 0
    outer loop
      vertex 2.46817 0.661344 8
      vertex 2.46817 1.425 10
      vertex 2.46817 1.425 8
    endloop
  endfacet
  facet normal -1 -0 0
    outer loop
      vertex 2.46817 1.425 10
      vertex 2.46817 0.661344 8
      vertex 2.46817 0.661344 10
    endloop
  endfacet
  facet normal -0.500005 -0.866022 0
    outer loop
      vertex 1.80683 1.80683 8
      vertex 2.46817 1.425 10
      vertex 1.80683 1.80683 10
    endloop
  endfacet
  facet normal -0.500005 -0.866022 -0
    outer loop
      vertex 2.46817 1.425 10
      vertex 1.80683 1.80683 8
      vertex 2.46817 1.425 8
    endloop
  endfacet
  facet normal -0.500003 -0.866024 0
    outer loop
      vertex 0 2.85 8
      vertex 0.661344 2.46817 10
      vertex 0 2.85 10
    endloop
  endfacet
  facet normal -0.500003 -0.866024 -0
    outer loop
      vertex 0.661344 2.46817 10
      vertex 0 2.85 8
      vertex 0.661344 2.46817 8
    endloop
  endfacet
  facet normal 1 -0 0
    outer loop
      vertex -2.46817 0.661344 10
      vertex -2.46817 1.425 8
      vertex -2.46817 1.425 10
    endloop
  endfacet
  facet normal 1 0 0
    outer loop
      vertex -2.46817 1.425 8
      vertex -2.46817 0.661344 10
      vertex -2.46817 0.661344 8
    endloop
  endfacet
  facet normal 1 -0 0
    outer loop
      vertex -2.46817 -1.425 10
      vertex -2.46817 -0.661344 8
      vertex -2.46817 -0.661344 10
    endloop
  endfacet
  facet normal 1 0 0
    outer loop
      vertex -2.46817 -0.661344 8
      vertex -2.46817 -1.425 10
      vertex -2.46817 -1.425 8
    endloop
  endfacet
  facet normal 0.500005 -0.866022 0
    outer loop
      vertex -2.46817 1.425 8
      vertex -1.80683 1.80683 10
      vertex -2.46817 1.425 10
    endloop
  endfacet
  facet normal 0.500005 -0.866022 0
    outer loop
      vertex -1.80683 1.80683 10
      vertex -2.46817 1.425 8
      vertex -1.80683 1.80683 8
    endloop
  endfacet
  facet normal 0.500003 -0.866024 0
    outer loop
      vertex -0.661344 2.46817 8
      vertex 0 2.85 10
      vertex -0.661344 2.46817 10
    endloop
  endfacet
  facet normal 0.500003 -0.866024 0
    outer loop
      vertex 0 2.85 10
      vertex -0.661344 2.46817 8
      vertex 0 2.85 8
    endloop
  endfacet
  facet normal 0.500003 0.866024 -0
    outer loop
      vertex 0 -2.85 8
      vertex -0.661344 -2.46817 10
      vertex 0 -2.85 10
    endloop
  endfacet
  facet normal 0.500003 0.866024 0
    outer loop
      vertex -0.661344 -2.46817 10
      vertex 0 -2.85 8
      vertex -0.661344 -2.46817 8
    endloop
  endfacet
  facet normal 0.500005 0.866022 -0
    outer loop
      vertex -1.80683 -1.80683 8
      vertex -2.46817 -1.425 10
      vertex -1.80683 -1.80683 10
    endloop
  endfacet
  facet normal 0.500005 0.866022 0
    outer loop
      vertex -2.46817 -1.425 10
      vertex -1.80683 -1.80683 8
      vertex -2.46817 -1.425 8
    endloop
  endfacet
  facet normal -0.500005 0.866022 0
    outer loop
      vertex 2.46817 -1.425 8
      vertex 1.80683 -1.80683 10
      vertex 2.46817 -1.425 10
    endloop
  endfacet
  facet normal -0.500005 0.866022 0
    outer loop
      vertex 1.80683 -1.80683 10
      vertex 2.46817 -1.425 8
      vertex 1.80683 -1.80683 8
    endloop
  endfacet
  facet normal -0.500003 0.866024 0
    outer loop
      vertex 0.661344 -2.46817 8
      vertex 0 -2.85 10
      vertex 0.661344 -2.46817 10
    endloop
  endfacet
  facet normal -0.500003 0.866024 0
    outer loop
      vertex 0 -2.85 10
      vertex 0.661344 -2.46817 8
      vertex 0 -2.85 8
    endloop
  endfacet
  facet normal 0.965926 0.258817 0
    outer loop
      vertex -1.29904 -0.75 8
      vertex -1.5 0 0
      vertex -1.5 0 8
    endloop
  endfacet
  facet normal 0.965926 0.258817 0
    outer loop
      vertex -1.5 0 0
      vertex -1.29904 -0.75 8
      vertex -1.29904 -0.75 0
    endloop
  endfacet
  facet normal -0.707107 -0.707107 0
    outer loop
      vertex 1.29904 0.75 0
      vertex 0.75 1.29904 8
      vertex 0.75 1.29904 0
    endloop
  endfacet
  facet normal -0.707107 -0.707107 0
    outer loop
      vertex 0.75 1.29904 8
      vertex 1.29904 0.75 0
      vertex 1.29904 0.75 8
    endloop
  endfacet
  facet normal -0.965926 -0.258817 0
    outer loop
      vertex 1.5 0 0
      vertex 1.29904 0.75 8
      vertex 1.29904 0.75 0
    endloop
  endfacet
  facet normal -0.965926 -0.258817 0
    outer loop
      vertex 1.29904 0.75 8
      vertex 1.5 0 0
      vertex 1.5 0 8
    endloop
  endfacet
  facet normal -0.258817 -0.965926 0
    outer loop
      vertex 0 1.5 0
      vertex 0.75 1.29904 8
      vertex 0 1.5 8
    endloop
  endfacet
  facet normal -0.258817 -0.965926 -0
    outer loop
      vertex 0.75 1.29904 8
      vertex 0 1.5 0
      vertex 0.75 1.29904 0
    endloop
  endfacet
  facet normal -0.258817 0.965926 0
    outer loop
      vertex 0.75 -1.29904 0
      vertex 0 -1.5 8
      vertex 0.75 -1.29904 8
    endloop
  endfacet
  facet normal -0.258817 0.965926 0
    outer loop
      vertex 0 -1.5 8
      vertex 0.75 -1.29904 0
      vertex 0 -1.5 0
    endloop
  endfacet
  facet normal -0.965926 0.258817 0
    outer loop
      vertex 1.29904 -0.75 0
      vertex 1.5 0 8
      vertex 1.5 0 0
    endloop
  endfacet
  facet normal -0.965926 0.258817 0
    outer loop
      vertex 1.5 0 8
      vertex 1.29904 -0.75 0
      vertex 1.29904 -0.75 8
    endloop
  endfacet
  facet normal 0.707107 -0.707107 0
    outer loop
      vertex -1.29904 0.75 8
      vertex -0.75 1.29904 0
      vertex -0.75 1.29904 8
    endloop
  endfacet
  facet normal 0.707107 -0.707107 0
    outer loop
      vertex -0.75 1.29904 0
      vertex -1.29904 0.75 8
      vertex -1.29904 0.75 0
    endloop
  endfacet
  facet normal 0.258817 -0.965926 0
    outer loop
      vertex -0.75 1.29904 0
      vertex 0 1.5 8
      vertex -0.75 1.29904 8
    endloop
  endfacet
  facet normal 0.258817 -0.965926 0
    outer loop
      vertex 0 1.5 8
      vertex -0.75 1.29904 0
      vertex 0 1.5 0
    endloop
  endfacet
  facet normal 0.965926 -0.258817 0
    outer loop
      vertex -1.5 0 8
      vertex -1.29904 0.75 0
      vertex -1.29904 0.75 8
    endloop
  endfacet
  facet normal 0.965926 -0.258817 0
    outer loop
      vertex -1.29904 0.75 0
      vertex -1.5 0 8
      vertex -1.5 0 0
    endloop
  endfacet
  facet normal -0.707107 0.707107 0
    outer loop
      vertex 0.75 -1.29904 0
      vertex 1.29904 -0.75 8
      vertex 1.29904 -0.75 0
    endloop
  endfacet
  facet normal -0.707107 0.707107 0
    outer loop
      vertex 1.29904 -0.75 8
      vertex 0.75 -1.29904 0
      vertex 0.75 -1.29904 8
    endloop
  endfacet
  facet normal 0.707107 0.707107 0
    outer loop
      vertex -0.75 -1.29904 8
      vertex -1.29904 -0.75 0
      vertex -1.29904 -0.75 8
    endloop
  endfacet
  facet normal 0.707107 0.707107 0
    outer loop
      vertex -1.29904 -0.75 0
      vertex -0.75 -1.29904 8
      vertex -0.75 -1.29904 0
    endloop
  endfacet
  facet normal 0.258817 0.965926 -0
    outer loop
      vertex 0 -1.5 0
      vertex -0.75 -1.29904 8
      vertex 0 -1.5 8
    endloop
  endfacet
  facet normal 0.258817 0.965926 0
    outer loop
      vertex -0.75 -1.29904 8
      vertex 0 -1.5 0
      vertex -0.75 -1.29904 0
    endloop
  endfacet
endsolid OpenSCAD_Model
