solid OpenSCAD_Model
  facet normal -0.965914 -0.258865 0
    outer loop
      vertex -11.2425 -6.975 -10
      vertex -11.41 -6.35 0
      vertex -11.41 -6.35 -10
    endloop
  endfacet
  facet normal -0.965914 -0.258865 0
    outer loop
      vertex -11.41 -6.35 0
      vertex -11.2425 -6.975 -10
      vertex -11.2425 -6.975 0
    endloop
  endfacet
  facet normal -0.965914 -0.258865 0
    outer loop
      vertex -11.2425 -6.975 9.2
      vertex -11.41 -6.35 20
      vertex -11.41 -6.35 9.2
    endloop
  endfacet
  facet normal -0.965914 -0.258865 0
    outer loop
      vertex -11.41 -6.35 20
      vertex -11.2425 -6.975 9.2
      vertex -11.2425 -6.975 20
    endloop
  endfacet
  facet normal 0.707107 0.707107 0
    outer loop
      vertex -9.07747 -5.725 0
      vertex -9.535 -5.26747 -10
      vertex -9.535 -5.26747 0
    endloop
  endfacet
  facet normal 0.707107 0.707107 0
    outer loop
      vertex -9.535 -5.26747 -10
      vertex -9.07747 -5.725 0
      vertex -9.07747 -5.725 -10
    endloop
  endfacet
  facet normal 0.707107 0.707107 0
    outer loop
      vertex -9.07747 -5.725 20
      vertex -9.535 -5.26747 9.2
      vertex -9.535 -5.26747 20
    endloop
  endfacet
  facet normal 0.707107 0.707107 0
    outer loop
      vertex -9.535 -5.26747 9.2
      vertex -9.07747 -5.725 20
      vertex -9.07747 -5.725 9.2
    endloop
  endfacet
  facet normal 0.965925 0.258822 0
    outer loop
      vertex -8.91 -6.35 0
      vertex -9.07747 -5.725 -10
      vertex -9.07747 -5.725 0
    endloop
  endfacet
  facet normal 0.965925 0.258822 0
    outer loop
      vertex -9.07747 -5.725 -10
      vertex -8.91 -6.35 0
      vertex -8.91 -6.35 -10
    endloop
  endfacet
  facet normal 0.965925 0.258822 0
    outer loop
      vertex -8.91 -6.35 20
      vertex -9.07747 -5.725 9.2
      vertex -9.07747 -5.725 20
    endloop
  endfacet
  facet normal 0.965925 0.258822 0
    outer loop
      vertex -9.07747 -5.725 9.2
      vertex -8.91 -6.35 20
      vertex -8.91 -6.35 9.2
    endloop
  endfacet
  facet normal 0.258822 0.965925 -0
    outer loop
      vertex -9.535 -5.26747 -10
      vertex -10.16 -5.1 0
      vertex -9.535 -5.26747 0
    endloop
  endfacet
  facet normal 0.258822 0.965925 0
    outer loop
      vertex -10.16 -5.1 0
      vertex -9.535 -5.26747 -10
      vertex -10.16 -5.1 -10
    endloop
  endfacet
  facet normal 0.258822 0.965925 -0
    outer loop
      vertex -9.535 -5.26747 9.2
      vertex -10.16 -5.1 20
      vertex -9.535 -5.26747 20
    endloop
  endfacet
  facet normal 0.258822 0.965925 0
    outer loop
      vertex -10.16 -5.1 20
      vertex -9.535 -5.26747 9.2
      vertex -10.16 -5.1 9.2
    endloop
  endfacet
  facet normal 0.258822 -0.965925 0
    outer loop
      vertex -10.16 -7.6 -10
      vertex -9.535 -7.43253 0
      vertex -10.16 -7.6 0
    endloop
  endfacet
  facet normal 0.258822 -0.965925 0
    outer loop
      vertex -9.535 -7.43253 0
      vertex -10.16 -7.6 -10
      vertex -9.535 -7.43253 -10
    endloop
  endfacet
  facet normal 0.258822 -0.965925 0
    outer loop
      vertex -10.16 -7.6 9.2
      vertex -9.535 -7.43253 20
      vertex -10.16 -7.6 20
    endloop
  endfacet
  facet normal 0.258822 -0.965925 0
    outer loop
      vertex -9.535 -7.43253 20
      vertex -10.16 -7.6 9.2
      vertex -9.535 -7.43253 9.2
    endloop
  endfacet
  facet normal 0.965925 -0.258822 0
    outer loop
      vertex -9.07747 -6.975 0
      vertex -8.91 -6.35 -10
      vertex -8.91 -6.35 0
    endloop
  endfacet
  facet normal 0.965925 -0.258822 0
    outer loop
      vertex -8.91 -6.35 -10
      vertex -9.07747 -6.975 0
      vertex -9.07747 -6.975 -10
    endloop
  endfacet
  facet normal 0.965925 -0.258822 0
    outer loop
      vertex -9.07747 -6.975 20
      vertex -8.91 -6.35 9.2
      vertex -8.91 -6.35 20
    endloop
  endfacet
  facet normal 0.965925 -0.258822 0
    outer loop
      vertex -8.91 -6.35 9.2
      vertex -9.07747 -6.975 20
      vertex -9.07747 -6.975 9.2
    endloop
  endfacet
  facet normal -0.70713 0.707084 0
    outer loop
      vertex -11.2425 -5.725 9.2
      vertex -10.785 -5.26747 20
      vertex -10.785 -5.26747 9.2
    endloop
  endfacet
  facet normal -0.70713 0.707084 0
    outer loop
      vertex -10.785 -5.26747 20
      vertex -11.2425 -5.725 9.2
      vertex -11.2425 -5.725 20
    endloop
  endfacet
  facet normal -0.70713 0.707084 0
    outer loop
      vertex -11.2425 -5.725 -10
      vertex -10.785 -5.26747 0
      vertex -10.785 -5.26747 -10
    endloop
  endfacet
  facet normal -0.70713 0.707084 0
    outer loop
      vertex -10.785 -5.26747 0
      vertex -11.2425 -5.725 -10
      vertex -11.2425 -5.725 0
    endloop
  endfacet
  facet normal -0.258822 0.965925 0
    outer loop
      vertex -10.16 -5.1 9.2
      vertex -10.785 -5.26747 20
      vertex -10.16 -5.1 20
    endloop
  endfacet
  facet normal -0.258822 0.965925 0
    outer loop
      vertex -10.785 -5.26747 20
      vertex -10.16 -5.1 9.2
      vertex -10.785 -5.26747 9.2
    endloop
  endfacet
  facet normal -0.258822 0.965925 0
    outer loop
      vertex -10.16 -5.1 -10
      vertex -10.785 -5.26747 0
      vertex -10.16 -5.1 0
    endloop
  endfacet
  facet normal -0.258822 0.965925 0
    outer loop
      vertex -10.785 -5.26747 0
      vertex -10.16 -5.1 -10
      vertex -10.785 -5.26747 -10
    endloop
  endfacet
  facet normal -0.965914 0.258865 0
    outer loop
      vertex -11.41 -6.35 -10
      vertex -11.2425 -5.725 0
      vertex -11.2425 -5.725 -10
    endloop
  endfacet
  facet normal -0.965914 0.258865 0
    outer loop
      vertex -11.2425 -5.725 0
      vertex -11.41 -6.35 -10
      vertex -11.41 -6.35 0
    endloop
  endfacet
  facet normal -0.965914 0.258865 0
    outer loop
      vertex -11.41 -6.35 9.2
      vertex -11.2425 -5.725 20
      vertex -11.2425 -5.725 9.2
    endloop
  endfacet
  facet normal -0.965914 0.258865 0
    outer loop
      vertex -11.2425 -5.725 20
      vertex -11.41 -6.35 9.2
      vertex -11.41 -6.35 20
    endloop
  endfacet
  facet normal 0.707107 -0.707107 0
    outer loop
      vertex -9.535 -7.43253 0
      vertex -9.07747 -6.975 -10
      vertex -9.07747 -6.975 0
    endloop
  endfacet
  facet normal 0.707107 -0.707107 0
    outer loop
      vertex -9.07747 -6.975 -10
      vertex -9.535 -7.43253 0
      vertex -9.535 -7.43253 -10
    endloop
  endfacet
  facet normal 0.707107 -0.707107 0
    outer loop
      vertex -9.535 -7.43253 20
      vertex -9.07747 -6.975 9.2
      vertex -9.07747 -6.975 20
    endloop
  endfacet
  facet normal 0.707107 -0.707107 0
    outer loop
      vertex -9.07747 -6.975 9.2
      vertex -9.535 -7.43253 20
      vertex -9.535 -7.43253 9.2
    endloop
  endfacet
  facet normal 0 0 1
    outer loop
      vertex -9.07747 -5.725 20
      vertex -9.07747 -6.975 20
      vertex -8.91 -6.35 20
    endloop
  endfacet
  facet normal 0 0 1
    outer loop
      vertex -9.535 -5.26747 20
      vertex -9.07747 -6.975 20
      vertex -9.07747 -5.725 20
    endloop
  endfacet
  facet normal 0 0 1
    outer loop
      vertex -9.535 -5.26747 20
      vertex -9.535 -7.43253 20
      vertex -9.07747 -6.975 20
    endloop
  endfacet
  facet normal 0 0 1
    outer loop
      vertex -10.16 -5.1 20
      vertex -9.535 -7.43253 20
      vertex -9.535 -5.26747 20
    endloop
  endfacet
  facet normal 0 0 1
    outer loop
      vertex -10.16 -5.1 20
      vertex -10.16 -7.6 20
      vertex -9.535 -7.43253 20
    endloop
  endfacet
  facet normal -0 0 1
    outer loop
      vertex -10.785 -5.26747 20
      vertex -10.16 -7.6 20
      vertex -10.16 -5.1 20
    endloop
  endfacet
  facet normal 0 0 1
    outer loop
      vertex -10.785 -5.26747 20
      vertex -10.785 -7.43253 20
      vertex -10.16 -7.6 20
    endloop
  endfacet
  facet normal -0 0 1
    outer loop
      vertex -11.2425 -5.725 20
      vertex -10.785 -7.43253 20
      vertex -10.785 -5.26747 20
    endloop
  endfacet
  facet normal 0 0 1
    outer loop
      vertex -11.2425 -5.725 20
      vertex -11.2425 -6.975 20
      vertex -10.785 -7.43253 20
    endloop
  endfacet
  facet normal 0 -0 1
    outer loop
      vertex -11.2425 -6.975 20
      vertex -11.2425 -5.725 20
      vertex -11.41 -6.35 20
    endloop
  endfacet
  facet normal 0 0 -1
    outer loop
      vertex -9.07747 -6.975 -10
      vertex -9.07747 -5.725 -10
      vertex -8.91 -6.35 -10
    endloop
  endfacet
  facet normal 0 0 -1
    outer loop
      vertex -9.535 -7.43253 -10
      vertex -9.07747 -5.725 -10
      vertex -9.07747 -6.975 -10
    endloop
  endfacet
  facet normal 0 0 -1
    outer loop
      vertex -9.535 -7.43253 -10
      vertex -9.535 -5.26747 -10
      vertex -9.07747 -5.725 -10
    endloop
  endfacet
  facet normal 0 0 -1
    outer loop
      vertex -10.16 -7.6 -10
      vertex -9.535 -5.26747 -10
      vertex -9.535 -7.43253 -10
    endloop
  endfacet
  facet normal 0 0 -1
    outer loop
      vertex -10.16 -7.6 -10
      vertex -10.16 -5.1 -10
      vertex -9.535 -5.26747 -10
    endloop
  endfacet
  facet normal 0 0 -1
    outer loop
      vertex -10.785 -7.43253 -10
      vertex -10.16 -5.1 -10
      vertex -10.16 -7.6 -10
    endloop
  endfacet
  facet normal 0 0 -1
    outer loop
      vertex -10.785 -7.43253 -10
      vertex -10.785 -5.26747 -10
      vertex -10.16 -5.1 -10
    endloop
  endfacet
  facet normal 0 0 -1
    outer loop
      vertex -11.2425 -6.975 -10
      vertex -10.785 -5.26747 -10
      vertex -10.785 -7.43253 -10
    endloop
  endfacet
  facet normal 0 0 -1
    outer loop
      vertex -11.2425 -6.975 -10
      vertex -11.2425 -5.725 -10
      vertex -10.785 -5.26747 -10
    endloop
  endfacet
  facet normal 0 -0 -1
    outer loop
      vertex -11.2425 -5.725 -10
      vertex -11.2425 -6.975 -10
      vertex -11.41 -6.35 -10
    endloop
  endfacet
  facet normal -0.70713 -0.707084 0
    outer loop
      vertex -10.785 -7.43253 9.2
      vertex -11.2425 -6.975 20
      vertex -11.2425 -6.975 9.2
    endloop
  endfacet
  facet normal -0.70713 -0.707084 0
    outer loop
      vertex -11.2425 -6.975 20
      vertex -10.785 -7.43253 9.2
      vertex -10.785 -7.43253 20
    endloop
  endfacet
  facet normal -0.70713 -0.707084 0
    outer loop
      vertex -10.785 -7.43253 -10
      vertex -11.2425 -6.975 0
      vertex -11.2425 -6.975 -10
    endloop
  endfacet
  facet normal -0.70713 -0.707084 0
    outer loop
      vertex -11.2425 -6.975 0
      vertex -10.785 -7.43253 -10
      vertex -10.785 -7.43253 0
    endloop
  endfacet
  facet normal -0.258822 -0.965925 0
    outer loop
      vertex -10.785 -7.43253 -10
      vertex -10.16 -7.6 0
      vertex -10.785 -7.43253 0
    endloop
  endfacet
  facet normal -0.258822 -0.965925 -0
    outer loop
      vertex -10.16 -7.6 0
      vertex -10.785 -7.43253 -10
      vertex -10.16 -7.6 -10
    endloop
  endfacet
  facet normal -0.258822 -0.965925 0
    outer loop
      vertex -10.785 -7.43253 9.2
      vertex -10.16 -7.6 20
      vertex -10.785 -7.43253 20
    endloop
  endfacet
  facet normal -0.258822 -0.965925 -0
    outer loop
      vertex -10.16 -7.6 20
      vertex -10.785 -7.43253 9.2
      vertex -10.16 -7.6 9.2
    endloop
  endfacet
  facet normal -0.965925 -0.258822 0
    outer loop
      vertex 9.07747 -6.975 -10
      vertex 8.91 -6.35 0
      vertex 8.91 -6.35 -10
    endloop
  endfacet
  facet normal -0.965925 -0.258822 0
    outer loop
      vertex 8.91 -6.35 0
      vertex 9.07747 -6.975 -10
      vertex 9.07747 -6.975 0
    endloop
  endfacet
  facet normal -0.965925 -0.258822 0
    outer loop
      vertex 9.07747 -6.975 9.2
      vertex 8.91 -6.35 20
      vertex 8.91 -6.35 9.2
    endloop
  endfacet
  facet normal -0.965925 -0.258822 0
    outer loop
      vertex 8.91 -6.35 20
      vertex 9.07747 -6.975 9.2
      vertex 9.07747 -6.975 20
    endloop
  endfacet
  facet normal 0.70713 0.707084 -0
    outer loop
      vertex 11.2425 -5.725 -10
      vertex 10.785 -5.26747 0
      vertex 11.2425 -5.725 0
    endloop
  endfacet
  facet normal 0.70713 0.707084 0
    outer loop
      vertex 10.785 -5.26747 0
      vertex 11.2425 -5.725 -10
      vertex 10.785 -5.26747 -10
    endloop
  endfacet
  facet normal 0.70713 0.707084 -0
    outer loop
      vertex 11.2425 -5.725 9.2
      vertex 10.785 -5.26747 20
      vertex 11.2425 -5.725 20
    endloop
  endfacet
  facet normal 0.70713 0.707084 0
    outer loop
      vertex 10.785 -5.26747 20
      vertex 11.2425 -5.725 9.2
      vertex 10.785 -5.26747 9.2
    endloop
  endfacet
  facet normal 0.965914 0.258865 0
    outer loop
      vertex 11.41 -6.35 0
      vertex 11.2425 -5.725 -10
      vertex 11.2425 -5.725 0
    endloop
  endfacet
  facet normal 0.965914 0.258865 0
    outer loop
      vertex 11.2425 -5.725 -10
      vertex 11.41 -6.35 0
      vertex 11.41 -6.35 -10
    endloop
  endfacet
  facet normal 0.965914 0.258865 0
    outer loop
      vertex 11.41 -6.35 20
      vertex 11.2425 -5.725 9.2
      vertex 11.2425 -5.725 20
    endloop
  endfacet
  facet normal 0.965914 0.258865 0
    outer loop
      vertex 11.2425 -5.725 9.2
      vertex 11.41 -6.35 20
      vertex 11.41 -6.35 9.2
    endloop
  endfacet
  facet normal 0.258822 0.965925 -0
    outer loop
      vertex 10.785 -5.26747 -10
      vertex 10.16 -5.1 0
      vertex 10.785 -5.26747 0
    endloop
  endfacet
  facet normal 0.258822 0.965925 0
    outer loop
      vertex 10.16 -5.1 0
      vertex 10.785 -5.26747 -10
      vertex 10.16 -5.1 -10
    endloop
  endfacet
  facet normal 0.258822 0.965925 -0
    outer loop
      vertex 10.785 -5.26747 9.2
      vertex 10.16 -5.1 20
      vertex 10.785 -5.26747 20
    endloop
  endfacet
  facet normal 0.258822 0.965925 0
    outer loop
      vertex 10.16 -5.1 20
      vertex 10.785 -5.26747 9.2
      vertex 10.16 -5.1 9.2
    endloop
  endfacet
  facet normal 0.965914 -0.258865 0
    outer loop
      vertex 11.2425 -6.975 0
      vertex 11.41 -6.35 -10
      vertex 11.41 -6.35 0
    endloop
  endfacet
  facet normal 0.965914 -0.258865 0
    outer loop
      vertex 11.41 -6.35 -10
      vertex 11.2425 -6.975 0
      vertex 11.2425 -6.975 -10
    endloop
  endfacet
  facet normal 0.965914 -0.258865 0
    outer loop
      vertex 11.2425 -6.975 20
      vertex 11.41 -6.35 9.2
      vertex 11.41 -6.35 20
    endloop
  endfacet
  facet normal 0.965914 -0.258865 0
    outer loop
      vertex 11.41 -6.35 9.2
      vertex 11.2425 -6.975 20
      vertex 11.2425 -6.975 9.2
    endloop
  endfacet
  facet normal 0.258822 -0.965925 0
    outer loop
      vertex 10.16 -7.6 -10
      vertex 10.785 -7.43253 0
      vertex 10.16 -7.6 0
    endloop
  endfacet
  facet normal 0.258822 -0.965925 0
    outer loop
      vertex 10.785 -7.43253 0
      vertex 10.16 -7.6 -10
      vertex 10.785 -7.43253 -10
    endloop
  endfacet
  facet normal 0.258822 -0.965925 0
    outer loop
      vertex 10.16 -7.6 9.2
      vertex 10.785 -7.43253 20
      vertex 10.16 -7.6 20
    endloop
  endfacet
  facet normal 0.258822 -0.965925 0
    outer loop
      vertex 10.785 -7.43253 20
      vertex 10.16 -7.6 9.2
      vertex 10.785 -7.43253 9.2
    endloop
  endfacet
  facet normal -0.258822 0.965925 0
    outer loop
      vertex 10.16 -5.1 -10
      vertex 9.535 -5.26747 0
      vertex 10.16 -5.1 0
    endloop
  endfacet
  facet normal -0.258822 0.965925 0
    outer loop
      vertex 9.535 -5.26747 0
      vertex 10.16 -5.1 -10
      vertex 9.535 -5.26747 -10
    endloop
  endfacet
  facet normal -0.258822 0.965925 0
    outer loop
      vertex 10.16 -5.1 9.2
      vertex 9.535 -5.26747 20
      vertex 10.16 -5.1 20
    endloop
  endfacet
  facet normal -0.258822 0.965925 0
    outer loop
      vertex 9.535 -5.26747 20
      vertex 10.16 -5.1 9.2
      vertex 9.535 -5.26747 9.2
    endloop
  endfacet
  facet normal -0.258822 -0.965925 0
    outer loop
      vertex 9.535 -7.43253 -10
      vertex 10.16 -7.6 0
      vertex 9.535 -7.43253 0
    endloop
  endfacet
  facet normal -0.258822 -0.965925 -0
    outer loop
      vertex 10.16 -7.6 0
      vertex 9.535 -7.43253 -10
      vertex 10.16 -7.6 -10
    endloop
  endfacet
  facet normal -0.258822 -0.965925 0
    outer loop
      vertex 9.535 -7.43253 9.2
      vertex 10.16 -7.6 20
      vertex 9.535 -7.43253 20
    endloop
  endfacet
  facet normal -0.258822 -0.965925 -0
    outer loop
      vertex 10.16 -7.6 20
      vertex 9.535 -7.43253 9.2
      vertex 10.16 -7.6 9.2
    endloop
  endfacet
  facet normal -0.965925 0.258822 0
    outer loop
      vertex 8.91 -6.35 9.2
      vertex 9.07747 -5.725 20
      vertex 9.07747 -5.725 9.2
    endloop
  endfacet
  facet normal -0.965925 0.258822 0
    outer loop
      vertex 9.07747 -5.725 20
      vertex 8.91 -6.35 9.2
      vertex 8.91 -6.35 20
    endloop
  endfacet
  facet normal -0.965925 0.258822 0
    outer loop
      vertex 8.91 -6.35 -10
      vertex 9.07747 -5.725 0
      vertex 9.07747 -5.725 -10
    endloop
  endfacet
  facet normal -0.965925 0.258822 0
    outer loop
      vertex 9.07747 -5.725 0
      vertex 8.91 -6.35 -10
      vertex 8.91 -6.35 0
    endloop
  endfacet
  facet normal 0.70713 -0.707084 0
    outer loop
      vertex 10.785 -7.43253 -10
      vertex 11.2425 -6.975 0
      vertex 10.785 -7.43253 0
    endloop
  endfacet
  facet normal 0.70713 -0.707084 0
    outer loop
      vertex 11.2425 -6.975 0
      vertex 10.785 -7.43253 -10
      vertex 11.2425 -6.975 -10
    endloop
  endfacet
  facet normal 0.70713 -0.707084 0
    outer loop
      vertex 10.785 -7.43253 9.2
      vertex 11.2425 -6.975 20
      vertex 10.785 -7.43253 20
    endloop
  endfacet
  facet normal 0.70713 -0.707084 0
    outer loop
      vertex 11.2425 -6.975 20
      vertex 10.785 -7.43253 9.2
      vertex 11.2425 -6.975 9.2
    endloop
  endfacet
  facet normal 0 0 1
    outer loop
      vertex 11.2425 -5.725 20
      vertex 11.2425 -6.975 20
      vertex 11.41 -6.35 20
    endloop
  endfacet
  facet normal 0 0 1
    outer loop
      vertex 10.785 -5.26747 20
      vertex 11.2425 -6.975 20
      vertex 11.2425 -5.725 20
    endloop
  endfacet
  facet normal 0 0 1
    outer loop
      vertex 10.785 -5.26747 20
      vertex 10.785 -7.43253 20
      vertex 11.2425 -6.975 20
    endloop
  endfacet
  facet normal 0 0 1
    outer loop
      vertex 10.16 -5.1 20
      vertex 10.785 -7.43253 20
      vertex 10.785 -5.26747 20
    endloop
  endfacet
  facet normal 0 0 1
    outer loop
      vertex 10.16 -5.1 20
      vertex 10.16 -7.6 20
      vertex 10.785 -7.43253 20
    endloop
  endfacet
  facet normal -0 0 1
    outer loop
      vertex 9.535 -5.26747 20
      vertex 10.16 -7.6 20
      vertex 10.16 -5.1 20
    endloop
  endfacet
  facet normal 0 0 1
    outer loop
      vertex 9.535 -5.26747 20
      vertex 9.535 -7.43253 20
      vertex 10.16 -7.6 20
    endloop
  endfacet
  facet normal -0 0 1
    outer loop
      vertex 9.07747 -5.725 20
      vertex 9.535 -7.43253 20
      vertex 9.535 -5.26747 20
    endloop
  endfacet
  facet normal 0 0 1
    outer loop
      vertex 9.07747 -5.725 20
      vertex 9.07747 -6.975 20
      vertex 9.535 -7.43253 20
    endloop
  endfacet
  facet normal 0 -0 1
    outer loop
      vertex 9.07747 -6.975 20
      vertex 9.07747 -5.725 20
      vertex 8.91 -6.35 20
    endloop
  endfacet
  facet normal -0.707107 -0.707107 0
    outer loop
      vertex 9.07747 -6.975 -10
      vertex 9.535 -7.43253 0
      vertex 9.07747 -6.975 0
    endloop
  endfacet
  facet normal -0.707107 -0.707107 -0
    outer loop
      vertex 9.535 -7.43253 0
      vertex 9.07747 -6.975 -10
      vertex 9.535 -7.43253 -10
    endloop
  endfacet
  facet normal -0.707107 -0.707107 0
    outer loop
      vertex 9.07747 -6.975 9.2
      vertex 9.535 -7.43253 20
      vertex 9.07747 -6.975 20
    endloop
  endfacet
  facet normal -0.707107 -0.707107 -0
    outer loop
      vertex 9.535 -7.43253 20
      vertex 9.07747 -6.975 9.2
      vertex 9.535 -7.43253 9.2
    endloop
  endfacet
  facet normal 0 0 -1
    outer loop
      vertex 11.2425 -6.975 -10
      vertex 11.2425 -5.725 -10
      vertex 11.41 -6.35 -10
    endloop
  endfacet
  facet normal 0 0 -1
    outer loop
      vertex 10.785 -7.43253 -10
      vertex 11.2425 -5.725 -10
      vertex 11.2425 -6.975 -10
    endloop
  endfacet
  facet normal 0 0 -1
    outer loop
      vertex 10.785 -7.43253 -10
      vertex 10.785 -5.26747 -10
      vertex 11.2425 -5.725 -10
    endloop
  endfacet
  facet normal 0 0 -1
    outer loop
      vertex 10.16 -7.6 -10
      vertex 10.785 -5.26747 -10
      vertex 10.785 -7.43253 -10
    endloop
  endfacet
  facet normal 0 0 -1
    outer loop
      vertex 10.16 -7.6 -10
      vertex 10.16 -5.1 -10
      vertex 10.785 -5.26747 -10
    endloop
  endfacet
  facet normal 0 0 -1
    outer loop
      vertex 9.535 -7.43253 -10
      vertex 10.16 -5.1 -10
      vertex 10.16 -7.6 -10
    endloop
  endfacet
  facet normal 0 0 -1
    outer loop
      vertex 9.535 -7.43253 -10
      vertex 9.535 -5.26747 -10
      vertex 10.16 -5.1 -10
    endloop
  endfacet
  facet normal 0 0 -1
    outer loop
      vertex 9.07747 -6.975 -10
      vertex 9.535 -5.26747 -10
      vertex 9.535 -7.43253 -10
    endloop
  endfacet
  facet normal 0 0 -1
    outer loop
      vertex 9.07747 -6.975 -10
      vertex 9.07747 -5.725 -10
      vertex 9.535 -5.26747 -10
    endloop
  endfacet
  facet normal 0 -0 -1
    outer loop
      vertex 9.07747 -5.725 -10
      vertex 9.07747 -6.975 -10
      vertex 8.91 -6.35 -10
    endloop
  endfacet
  facet normal -0.707107 0.707107 0
    outer loop
      vertex 9.535 -5.26747 9.2
      vertex 9.07747 -5.725 20
      vertex 9.535 -5.26747 20
    endloop
  endfacet
  facet normal -0.707107 0.707107 0
    outer loop
      vertex 9.07747 -5.725 20
      vertex 9.535 -5.26747 9.2
      vertex 9.07747 -5.725 9.2
    endloop
  endfacet
  facet normal -0.707107 0.707107 0
    outer loop
      vertex 9.535 -5.26747 -10
      vertex 9.07747 -5.725 0
      vertex 9.535 -5.26747 0
    endloop
  endfacet
  facet normal -0.707107 0.707107 0
    outer loop
      vertex 9.07747 -5.725 0
      vertex 9.535 -5.26747 -10
      vertex 9.07747 -5.725 -10
    endloop
  endfacet
  facet normal 0.70713 0.707084 0
    outer loop
      vertex 11.2425 6.975 0
      vertex 10.785 7.43253 -10
      vertex 10.785 7.43253 0
    endloop
  endfacet
  facet normal 0.70713 0.707084 0
    outer loop
      vertex 10.785 7.43253 -10
      vertex 11.2425 6.975 0
      vertex 11.2425 6.975 -10
    endloop
  endfacet
  facet normal 0.70713 0.707084 0
    outer loop
      vertex 11.2425 6.975 20
      vertex 10.785 7.43253 9.2
      vertex 10.785 7.43253 20
    endloop
  endfacet
  facet normal 0.70713 0.707084 0
    outer loop
      vertex 10.785 7.43253 9.2
      vertex 11.2425 6.975 20
      vertex 11.2425 6.975 9.2
    endloop
  endfacet
  facet normal 0.965914 0.258865 0
    outer loop
      vertex 11.41 6.35 0
      vertex 11.2425 6.975 -10
      vertex 11.2425 6.975 0
    endloop
  endfacet
  facet normal 0.965914 0.258865 0
    outer loop
      vertex 11.2425 6.975 -10
      vertex 11.41 6.35 0
      vertex 11.41 6.35 -10
    endloop
  endfacet
  facet normal 0.965914 0.258865 0
    outer loop
      vertex 11.41 6.35 20
      vertex 11.2425 6.975 9.2
      vertex 11.2425 6.975 20
    endloop
  endfacet
  facet normal 0.965914 0.258865 0
    outer loop
      vertex 11.2425 6.975 9.2
      vertex 11.41 6.35 20
      vertex 11.41 6.35 9.2
    endloop
  endfacet
  facet normal 0.258822 -0.965925 0
    outer loop
      vertex 10.16 5.1 -10
      vertex 10.785 5.26747 0
      vertex 10.16 5.1 0
    endloop
  endfacet
  facet normal 0.258822 -0.965925 0
    outer loop
      vertex 10.785 5.26747 0
      vertex 10.16 5.1 -10
      vertex 10.785 5.26747 -10
    endloop
  endfacet
  facet normal 0.258822 -0.965925 0
    outer loop
      vertex 10.16 5.1 9.2
      vertex 10.785 5.26747 20
      vertex 10.16 5.1 20
    endloop
  endfacet
  facet normal 0.258822 -0.965925 0
    outer loop
      vertex 10.785 5.26747 20
      vertex 10.16 5.1 9.2
      vertex 10.785 5.26747 9.2
    endloop
  endfacet
  facet normal 0.258822 0.965925 -0
    outer loop
      vertex 10.785 7.43253 9.2
      vertex 10.16 7.6 20
      vertex 10.785 7.43253 20
    endloop
  endfacet
  facet normal 0.258822 0.965925 0
    outer loop
      vertex 10.16 7.6 20
      vertex 10.785 7.43253 9.2
      vertex 10.16 7.6 9.2
    endloop
  endfacet
  facet normal 0.258822 0.965925 -0
    outer loop
      vertex 10.785 7.43253 -10
      vertex 10.16 7.6 0
      vertex 10.785 7.43253 0
    endloop
  endfacet
  facet normal 0.258822 0.965925 0
    outer loop
      vertex 10.16 7.6 0
      vertex 10.785 7.43253 -10
      vertex 10.16 7.6 -10
    endloop
  endfacet
  facet normal 0 0 -1
    outer loop
      vertex 11.2425 5.725 -10
      vertex 11.2425 6.975 -10
      vertex 11.41 6.35 -10
    endloop
  endfacet
  facet normal 0 0 -1
    outer loop
      vertex 10.785 5.26747 -10
      vertex 11.2425 6.975 -10
      vertex 11.2425 5.725 -10
    endloop
  endfacet
  facet normal 0 0 -1
    outer loop
      vertex 10.785 5.26747 -10
      vertex 10.785 7.43253 -10
      vertex 11.2425 6.975 -10
    endloop
  endfacet
  facet normal 0 0 -1
    outer loop
      vertex 10.16 5.1 -10
      vertex 10.785 7.43253 -10
      vertex 10.785 5.26747 -10
    endloop
  endfacet
  facet normal 0 0 -1
    outer loop
      vertex 10.16 5.1 -10
      vertex 10.16 7.6 -10
      vertex 10.785 7.43253 -10
    endloop
  endfacet
  facet normal 0 0 -1
    outer loop
      vertex 9.535 5.26747 -10
      vertex 10.16 7.6 -10
      vertex 10.16 5.1 -10
    endloop
  endfacet
  facet normal 0 0 -1
    outer loop
      vertex 9.535 5.26747 -10
      vertex 9.535 7.43253 -10
      vertex 10.16 7.6 -10
    endloop
  endfacet
  facet normal 0 0 -1
    outer loop
      vertex 9.07747 5.725 -10
      vertex 9.535 7.43253 -10
      vertex 9.535 5.26747 -10
    endloop
  endfacet
  facet normal 0 0 -1
    outer loop
      vertex 9.07747 5.725 -10
      vertex 9.07747 6.975 -10
      vertex 9.535 7.43253 -10
    endloop
  endfacet
  facet normal 0 -0 -1
    outer loop
      vertex 9.07747 6.975 -10
      vertex 9.07747 5.725 -10
      vertex 8.91 6.35 -10
    endloop
  endfacet
  facet normal 0 0 1
    outer loop
      vertex 11.2425 6.975 20
      vertex 11.2425 5.725 20
      vertex 11.41 6.35 20
    endloop
  endfacet
  facet normal 0 0 1
    outer loop
      vertex 10.785 7.43253 20
      vertex 11.2425 5.725 20
      vertex 11.2425 6.975 20
    endloop
  endfacet
  facet normal 0 0 1
    outer loop
      vertex 10.785 7.43253 20
      vertex 10.785 5.26747 20
      vertex 11.2425 5.725 20
    endloop
  endfacet
  facet normal 0 0 1
    outer loop
      vertex 10.16 7.6 20
      vertex 10.785 5.26747 20
      vertex 10.785 7.43253 20
    endloop
  endfacet
  facet normal 0 0 1
    outer loop
      vertex 10.16 7.6 20
      vertex 10.16 5.1 20
      vertex 10.785 5.26747 20
    endloop
  endfacet
  facet normal -0 0 1
    outer loop
      vertex 9.535 7.43253 20
      vertex 10.16 5.1 20
      vertex 10.16 7.6 20
    endloop
  endfacet
  facet normal 0 0 1
    outer loop
      vertex 9.535 7.43253 20
      vertex 9.535 5.26747 20
      vertex 10.16 5.1 20
    endloop
  endfacet
  facet normal -0 0 1
    outer loop
      vertex 9.07747 6.975 20
      vertex 9.535 5.26747 20
      vertex 9.535 7.43253 20
    endloop
  endfacet
  facet normal 0 0 1
    outer loop
      vertex 9.07747 6.975 20
      vertex 9.07747 5.725 20
      vertex 9.535 5.26747 20
    endloop
  endfacet
  facet normal 0 -0 1
    outer loop
      vertex 9.07747 5.725 20
      vertex 9.07747 6.975 20
      vertex 8.91 6.35 20
    endloop
  endfacet
  facet normal 0.965914 -0.258865 0
    outer loop
      vertex 11.2425 5.725 20
      vertex 11.41 6.35 9.2
      vertex 11.41 6.35 20
    endloop
  endfacet
  facet normal 0.965914 -0.258865 0
    outer loop
      vertex 11.41 6.35 9.2
      vertex 11.2425 5.725 20
      vertex 11.2425 5.725 9.2
    endloop
  endfacet
  facet normal 0.965914 -0.258865 0
    outer loop
      vertex 11.2425 5.725 0
      vertex 11.41 6.35 -10
      vertex 11.41 6.35 0
    endloop
  endfacet
  facet normal 0.965914 -0.258865 0
    outer loop
      vertex 11.41 6.35 -10
      vertex 11.2425 5.725 0
      vertex 11.2425 5.725 -10
    endloop
  endfacet
  facet normal -0.707107 0.707107 0
    outer loop
      vertex 9.07747 6.975 9.2
      vertex 9.535 7.43253 20
      vertex 9.535 7.43253 9.2
    endloop
  endfacet
  facet normal -0.707107 0.707107 0
    outer loop
      vertex 9.535 7.43253 20
      vertex 9.07747 6.975 9.2
      vertex 9.07747 6.975 20
    endloop
  endfacet
  facet normal -0.707107 0.707107 0
    outer loop
      vertex 9.07747 6.975 -10
      vertex 9.535 7.43253 0
      vertex 9.535 7.43253 -10
    endloop
  endfacet
  facet normal -0.707107 0.707107 0
    outer loop
      vertex 9.535 7.43253 0
      vertex 9.07747 6.975 -10
      vertex 9.07747 6.975 0
    endloop
  endfacet
  facet normal -0.258822 -0.965925 0
    outer loop
      vertex 9.535 5.26747 -10
      vertex 10.16 5.1 0
      vertex 9.535 5.26747 0
    endloop
  endfacet
  facet normal -0.258822 -0.965925 -0
    outer loop
      vertex 10.16 5.1 0
      vertex 9.535 5.26747 -10
      vertex 10.16 5.1 -10
    endloop
  endfacet
  facet normal -0.258822 -0.965925 0
    outer loop
      vertex 9.535 5.26747 9.2
      vertex 10.16 5.1 20
      vertex 9.535 5.26747 20
    endloop
  endfacet
  facet normal -0.258822 -0.965925 -0
    outer loop
      vertex 10.16 5.1 20
      vertex 9.535 5.26747 9.2
      vertex 10.16 5.1 9.2
    endloop
  endfacet
  facet normal -0.965925 0.258822 0
    outer loop
      vertex 8.91 6.35 9.2
      vertex 9.07747 6.975 20
      vertex 9.07747 6.975 9.2
    endloop
  endfacet
  facet normal -0.965925 0.258822 0
    outer loop
      vertex 9.07747 6.975 20
      vertex 8.91 6.35 9.2
      vertex 8.91 6.35 20
    endloop
  endfacet
  facet normal -0.965925 0.258822 0
    outer loop
      vertex 8.91 6.35 -10
      vertex 9.07747 6.975 0
      vertex 9.07747 6.975 -10
    endloop
  endfacet
  facet normal -0.965925 0.258822 0
    outer loop
      vertex 9.07747 6.975 0
      vertex 8.91 6.35 -10
      vertex 8.91 6.35 0
    endloop
  endfacet
  facet normal 0.70713 -0.707084 0
    outer loop
      vertex 10.785 5.26747 0
      vertex 11.2425 5.725 -10
      vertex 11.2425 5.725 0
    endloop
  endfacet
  facet normal 0.70713 -0.707084 0
    outer loop
      vertex 11.2425 5.725 -10
      vertex 10.785 5.26747 0
      vertex 10.785 5.26747 -10
    endloop
  endfacet
  facet normal 0.70713 -0.707084 0
    outer loop
      vertex 10.785 5.26747 20
      vertex 11.2425 5.725 9.2
      vertex 11.2425 5.725 20
    endloop
  endfacet
  facet normal 0.70713 -0.707084 0
    outer loop
      vertex 11.2425 5.725 9.2
      vertex 10.785 5.26747 20
      vertex 10.785 5.26747 9.2
    endloop
  endfacet
  facet normal -0.258822 0.965925 0
    outer loop
      vertex 10.16 7.6 9.2
      vertex 9.535 7.43253 20
      vertex 10.16 7.6 20
    endloop
  endfacet
  facet normal -0.258822 0.965925 0
    outer loop
      vertex 9.535 7.43253 20
      vertex 10.16 7.6 9.2
      vertex 9.535 7.43253 9.2
    endloop
  endfacet
  facet normal -0.258822 0.965925 0
    outer loop
      vertex 10.16 7.6 -10
      vertex 9.535 7.43253 0
      vertex 10.16 7.6 0
    endloop
  endfacet
  facet normal -0.258822 0.965925 0
    outer loop
      vertex 9.535 7.43253 0
      vertex 10.16 7.6 -10
      vertex 9.535 7.43253 -10
    endloop
  endfacet
  facet normal -0.707107 -0.707107 0
    outer loop
      vertex 9.535 5.26747 -10
      vertex 9.07747 5.725 0
      vertex 9.07747 5.725 -10
    endloop
  endfacet
  facet normal -0.707107 -0.707107 0
    outer loop
      vertex 9.07747 5.725 0
      vertex 9.535 5.26747 -10
      vertex 9.535 5.26747 0
    endloop
  endfacet
  facet normal -0.707107 -0.707107 0
    outer loop
      vertex 9.535 5.26747 9.2
      vertex 9.07747 5.725 20
      vertex 9.07747 5.725 9.2
    endloop
  endfacet
  facet normal -0.707107 -0.707107 0
    outer loop
      vertex 9.07747 5.725 20
      vertex 9.535 5.26747 9.2
      vertex 9.535 5.26747 20
    endloop
  endfacet
  facet normal -0.965925 -0.258822 0
    outer loop
      vertex 9.07747 5.725 -10
      vertex 8.91 6.35 0
      vertex 8.91 6.35 -10
    endloop
  endfacet
  facet normal -0.965925 -0.258822 0
    outer loop
      vertex 8.91 6.35 0
      vertex 9.07747 5.725 -10
      vertex 9.07747 5.725 0
    endloop
  endfacet
  facet normal -0.965925 -0.258822 0
    outer loop
      vertex 9.07747 5.725 9.2
      vertex 8.91 6.35 20
      vertex 8.91 6.35 9.2
    endloop
  endfacet
  facet normal -0.965925 -0.258822 0
    outer loop
      vertex 8.91 6.35 20
      vertex 9.07747 5.725 9.2
      vertex 9.07747 5.725 20
    endloop
  endfacet
  facet normal -0.70713 0.707084 0
    outer loop
      vertex -11.2425 6.975 -10
      vertex -10.785 7.43253 0
      vertex -10.785 7.43253 -10
    endloop
  endfacet
  facet normal -0.70713 0.707084 0
    outer loop
      vertex -10.785 7.43253 0
      vertex -11.2425 6.975 -10
      vertex -11.2425 6.975 0
    endloop
  endfacet
  facet normal -0.70713 0.707084 0
    outer loop
      vertex -11.2425 6.975 9.2
      vertex -10.785 7.43253 20
      vertex -10.785 7.43253 9.2
    endloop
  endfacet
  facet normal -0.70713 0.707084 0
    outer loop
      vertex -10.785 7.43253 20
      vertex -11.2425 6.975 9.2
      vertex -11.2425 6.975 20
    endloop
  endfacet
  facet normal 0.707107 0.707107 0
    outer loop
      vertex -9.07747 6.975 20
      vertex -9.535 7.43253 9.2
      vertex -9.535 7.43253 20
    endloop
  endfacet
  facet normal 0.707107 0.707107 0
    outer loop
      vertex -9.535 7.43253 9.2
      vertex -9.07747 6.975 20
      vertex -9.07747 6.975 9.2
    endloop
  endfacet
  facet normal 0.707107 0.707107 0
    outer loop
      vertex -9.07747 6.975 0
      vertex -9.535 7.43253 -10
      vertex -9.535 7.43253 0
    endloop
  endfacet
  facet normal 0.707107 0.707107 0
    outer loop
      vertex -9.535 7.43253 -10
      vertex -9.07747 6.975 0
      vertex -9.07747 6.975 -10
    endloop
  endfacet
  facet normal 0.965925 0.258822 0
    outer loop
      vertex -8.91 6.35 0
      vertex -9.07747 6.975 -10
      vertex -9.07747 6.975 0
    endloop
  endfacet
  facet normal 0.965925 0.258822 0
    outer loop
      vertex -9.07747 6.975 -10
      vertex -8.91 6.35 0
      vertex -8.91 6.35 -10
    endloop
  endfacet
  facet normal 0.965925 0.258822 0
    outer loop
      vertex -8.91 6.35 20
      vertex -9.07747 6.975 9.2
      vertex -9.07747 6.975 20
    endloop
  endfacet
  facet normal 0.965925 0.258822 0
    outer loop
      vertex -9.07747 6.975 9.2
      vertex -8.91 6.35 20
      vertex -8.91 6.35 9.2
    endloop
  endfacet
  facet normal -0.965914 -0.258865 0
    outer loop
      vertex -11.2425 5.725 -10
      vertex -11.41 6.35 0
      vertex -11.41 6.35 -10
    endloop
  endfacet
  facet normal -0.965914 -0.258865 0
    outer loop
      vertex -11.41 6.35 0
      vertex -11.2425 5.725 -10
      vertex -11.2425 5.725 0
    endloop
  endfacet
  facet normal -0.965914 -0.258865 0
    outer loop
      vertex -11.2425 5.725 9.2
      vertex -11.41 6.35 20
      vertex -11.41 6.35 9.2
    endloop
  endfacet
  facet normal -0.965914 -0.258865 0
    outer loop
      vertex -11.41 6.35 20
      vertex -11.2425 5.725 9.2
      vertex -11.2425 5.725 20
    endloop
  endfacet
  facet normal 0.707107 -0.707107 0
    outer loop
      vertex -9.535 5.26747 20
      vertex -9.07747 5.725 9.2
      vertex -9.07747 5.725 20
    endloop
  endfacet
  facet normal 0.707107 -0.707107 0
    outer loop
      vertex -9.07747 5.725 9.2
      vertex -9.535 5.26747 20
      vertex -9.535 5.26747 9.2
    endloop
  endfacet
  facet normal 0.707107 -0.707107 0
    outer loop
      vertex -9.535 5.26747 0
      vertex -9.07747 5.725 -10
      vertex -9.07747 5.725 0
    endloop
  endfacet
  facet normal 0.707107 -0.707107 0
    outer loop
      vertex -9.07747 5.725 -10
      vertex -9.535 5.26747 0
      vertex -9.535 5.26747 -10
    endloop
  endfacet
  facet normal 0 0 1
    outer loop
      vertex -9.07747 6.975 20
      vertex -9.07747 5.725 20
      vertex -8.91 6.35 20
    endloop
  endfacet
  facet normal 0 0 1
    outer loop
      vertex -9.535 7.43253 20
      vertex -9.07747 5.725 20
      vertex -9.07747 6.975 20
    endloop
  endfacet
  facet normal 0 0 1
    outer loop
      vertex -9.535 7.43253 20
      vertex -9.535 5.26747 20
      vertex -9.07747 5.725 20
    endloop
  endfacet
  facet normal 0 0 1
    outer loop
      vertex -10.16 7.6 20
      vertex -9.535 5.26747 20
      vertex -9.535 7.43253 20
    endloop
  endfacet
  facet normal 0 0 1
    outer loop
      vertex -10.16 7.6 20
      vertex -10.16 5.1 20
      vertex -9.535 5.26747 20
    endloop
  endfacet
  facet normal -0 0 1
    outer loop
      vertex -10.785 7.43253 20
      vertex -10.16 5.1 20
      vertex -10.16 7.6 20
    endloop
  endfacet
  facet normal 0 0 1
    outer loop
      vertex -10.785 7.43253 20
      vertex -10.785 5.26747 20
      vertex -10.16 5.1 20
    endloop
  endfacet
  facet normal -0 0 1
    outer loop
      vertex -11.2425 6.975 20
      vertex -10.785 5.26747 20
      vertex -10.785 7.43253 20
    endloop
  endfacet
  facet normal 0 0 1
    outer loop
      vertex -11.2425 6.975 20
      vertex -11.2425 5.725 20
      vertex -10.785 5.26747 20
    endloop
  endfacet
  facet normal 0 -0 1
    outer loop
      vertex -11.2425 5.725 20
      vertex -11.2425 6.975 20
      vertex -11.41 6.35 20
    endloop
  endfacet
  facet normal -0.965914 0.258865 0
    outer loop
      vertex -11.41 6.35 -10
      vertex -11.2425 6.975 0
      vertex -11.2425 6.975 -10
    endloop
  endfacet
  facet normal -0.965914 0.258865 0
    outer loop
      vertex -11.2425 6.975 0
      vertex -11.41 6.35 -10
      vertex -11.41 6.35 0
    endloop
  endfacet
  facet normal -0.965914 0.258865 0
    outer loop
      vertex -11.41 6.35 9.2
      vertex -11.2425 6.975 20
      vertex -11.2425 6.975 9.2
    endloop
  endfacet
  facet normal -0.965914 0.258865 0
    outer loop
      vertex -11.2425 6.975 20
      vertex -11.41 6.35 9.2
      vertex -11.41 6.35 20
    endloop
  endfacet
  facet normal 0.258822 0.965925 -0
    outer loop
      vertex -9.535 7.43253 9.2
      vertex -10.16 7.6 20
      vertex -9.535 7.43253 20
    endloop
  endfacet
  facet normal 0.258822 0.965925 0
    outer loop
      vertex -10.16 7.6 20
      vertex -9.535 7.43253 9.2
      vertex -10.16 7.6 9.2
    endloop
  endfacet
  facet normal 0.258822 0.965925 -0
    outer loop
      vertex -9.535 7.43253 -10
      vertex -10.16 7.6 0
      vertex -9.535 7.43253 0
    endloop
  endfacet
  facet normal 0.258822 0.965925 0
    outer loop
      vertex -10.16 7.6 0
      vertex -9.535 7.43253 -10
      vertex -10.16 7.6 -10
    endloop
  endfacet
  facet normal 0.965925 -0.258822 0
    outer loop
      vertex -9.07747 5.725 0
      vertex -8.91 6.35 -10
      vertex -8.91 6.35 0
    endloop
  endfacet
  facet normal 0.965925 -0.258822 0
    outer loop
      vertex -8.91 6.35 -10
      vertex -9.07747 5.725 0
      vertex -9.07747 5.725 -10
    endloop
  endfacet
  facet normal 0.965925 -0.258822 0
    outer loop
      vertex -9.07747 5.725 20
      vertex -8.91 6.35 9.2
      vertex -8.91 6.35 20
    endloop
  endfacet
  facet normal 0.965925 -0.258822 0
    outer loop
      vertex -8.91 6.35 9.2
      vertex -9.07747 5.725 20
      vertex -9.07747 5.725 9.2
    endloop
  endfacet
  facet normal -0.258822 -0.965925 0
    outer loop
      vertex -10.785 5.26747 9.2
      vertex -10.16 5.1 20
      vertex -10.785 5.26747 20
    endloop
  endfacet
  facet normal -0.258822 -0.965925 -0
    outer loop
      vertex -10.16 5.1 20
      vertex -10.785 5.26747 9.2
      vertex -10.16 5.1 9.2
    endloop
  endfacet
  facet normal -0.258822 -0.965925 0
    outer loop
      vertex -10.785 5.26747 -10
      vertex -10.16 5.1 0
      vertex -10.785 5.26747 0
    endloop
  endfacet
  facet normal -0.258822 -0.965925 -0
    outer loop
      vertex -10.16 5.1 0
      vertex -10.785 5.26747 -10
      vertex -10.16 5.1 -10
    endloop
  endfacet
  facet normal -0.258822 0.965925 0
    outer loop
      vertex -10.16 7.6 -10
      vertex -10.785 7.43253 0
      vertex -10.16 7.6 0
    endloop
  endfacet
  facet normal -0.258822 0.965925 0
    outer loop
      vertex -10.785 7.43253 0
      vertex -10.16 7.6 -10
      vertex -10.785 7.43253 -10
    endloop
  endfacet
  facet normal -0.258822 0.965925 0
    outer loop
      vertex -10.16 7.6 9.2
      vertex -10.785 7.43253 20
      vertex -10.16 7.6 20
    endloop
  endfacet
  facet normal -0.258822 0.965925 0
    outer loop
      vertex -10.785 7.43253 20
      vertex -10.16 7.6 9.2
      vertex -10.785 7.43253 9.2
    endloop
  endfacet
  facet normal 0 0 -1
    outer loop
      vertex -9.07747 5.725 -10
      vertex -9.07747 6.975 -10
      vertex -8.91 6.35 -10
    endloop
  endfacet
  facet normal 0 0 -1
    outer loop
      vertex -9.535 5.26747 -10
      vertex -9.07747 6.975 -10
      vertex -9.07747 5.725 -10
    endloop
  endfacet
  facet normal 0 0 -1
    outer loop
      vertex -9.535 5.26747 -10
      vertex -9.535 7.43253 -10
      vertex -9.07747 6.975 -10
    endloop
  endfacet
  facet normal 0 0 -1
    outer loop
      vertex -10.16 5.1 -10
      vertex -9.535 7.43253 -10
      vertex -9.535 5.26747 -10
    endloop
  endfacet
  facet normal 0 0 -1
    outer loop
      vertex -10.16 5.1 -10
      vertex -10.16 7.6 -10
      vertex -9.535 7.43253 -10
    endloop
  endfacet
  facet normal 0 0 -1
    outer loop
      vertex -10.785 5.26747 -10
      vertex -10.16 7.6 -10
      vertex -10.16 5.1 -10
    endloop
  endfacet
  facet normal 0 0 -1
    outer loop
      vertex -10.785 5.26747 -10
      vertex -10.785 7.43253 -10
      vertex -10.16 7.6 -10
    endloop
  endfacet
  facet normal 0 0 -1
    outer loop
      vertex -11.2425 5.725 -10
      vertex -10.785 7.43253 -10
      vertex -10.785 5.26747 -10
    endloop
  endfacet
  facet normal 0 0 -1
    outer loop
      vertex -11.2425 5.725 -10
      vertex -11.2425 6.975 -10
      vertex -10.785 7.43253 -10
    endloop
  endfacet
  facet normal 0 -0 -1
    outer loop
      vertex -11.2425 6.975 -10
      vertex -11.2425 5.725 -10
      vertex -11.41 6.35 -10
    endloop
  endfacet
  facet normal -0.70713 -0.707084 0
    outer loop
      vertex -10.785 5.26747 -10
      vertex -11.2425 5.725 0
      vertex -11.2425 5.725 -10
    endloop
  endfacet
  facet normal -0.70713 -0.707084 0
    outer loop
      vertex -11.2425 5.725 0
      vertex -10.785 5.26747 -10
      vertex -10.785 5.26747 0
    endloop
  endfacet
  facet normal -0.70713 -0.707084 0
    outer loop
      vertex -10.785 5.26747 9.2
      vertex -11.2425 5.725 20
      vertex -11.2425 5.725 9.2
    endloop
  endfacet
  facet normal -0.70713 -0.707084 0
    outer loop
      vertex -11.2425 5.725 20
      vertex -10.785 5.26747 9.2
      vertex -10.785 5.26747 20
    endloop
  endfacet
  facet normal 0.258822 -0.965925 0
    outer loop
      vertex -10.16 5.1 9.2
      vertex -9.535 5.26747 20
      vertex -10.16 5.1 20
    endloop
  endfacet
  facet normal 0.258822 -0.965925 0
    outer loop
      vertex -9.535 5.26747 20
      vertex -10.16 5.1 9.2
      vertex -9.535 5.26747 9.2
    endloop
  endfacet
  facet normal 0.258822 -0.965925 0
    outer loop
      vertex -10.16 5.1 -10
      vertex -9.535 5.26747 0
      vertex -10.16 5.1 0
    endloop
  endfacet
  facet normal 0.258822 -0.965925 0
    outer loop
      vertex -9.535 5.26747 0
      vertex -10.16 5.1 -10
      vertex -9.535 5.26747 -10
    endloop
  endfacet
  facet normal -0.258822 0.965925 0
    outer loop
      vertex -10.16 8.89 0
      vertex -11.43 8.5497 9.2
      vertex -10.16 8.89 9.2
    endloop
  endfacet
  facet normal -0.258822 0.965925 0
    outer loop
      vertex -11.43 8.5497 9.2
      vertex -10.16 8.89 0
      vertex -11.43 8.5497 0
    endloop
  endfacet
  facet normal 0 -1 0
    outer loop
      vertex -10.16 -8.89 0
      vertex 10.16 -8.89 9.2
      vertex -10.16 -8.89 9.2
    endloop
  endfacet
  facet normal 0 -1 -0
    outer loop
      vertex 10.16 -8.89 9.2
      vertex -10.16 -8.89 0
      vertex 10.16 -8.89 0
    endloop
  endfacet
  facet normal -1 0 0
    outer loop
      vertex -12.7 -6.35 0
      vertex -12.7 6.35 9.2
      vertex -12.7 6.35 0
    endloop
  endfacet
  facet normal -1 -0 0
    outer loop
      vertex -12.7 6.35 9.2
      vertex -12.7 -6.35 0
      vertex -12.7 -6.35 9.2
    endloop
  endfacet
  facet normal 0.258822 -0.965925 0
    outer loop
      vertex 10.16 -8.89 0
      vertex 11.43 -8.5497 9.2
      vertex 10.16 -8.89 9.2
    endloop
  endfacet
  facet normal 0.258822 -0.965925 0
    outer loop
      vertex 11.43 -8.5497 9.2
      vertex 10.16 -8.89 0
      vertex 11.43 -8.5497 0
    endloop
  endfacet
  facet normal -0.707107 -0.707107 0
    outer loop
      vertex -11.43 -8.5497 0
      vertex -12.3597 -7.62 9.2
      vertex -12.3597 -7.62 0
    endloop
  endfacet
  facet normal -0.707107 -0.707107 0
    outer loop
      vertex -12.3597 -7.62 9.2
      vertex -11.43 -8.5497 0
      vertex -11.43 -8.5497 9.2
    endloop
  endfacet
  facet normal -0.707107 0.707107 0
    outer loop
      vertex -11.43 8.5497 0
      vertex -12.3597 7.62 9.2
      vertex -11.43 8.5497 9.2
    endloop
  endfacet
  facet normal -0.707107 0.707107 0
    outer loop
      vertex -12.3597 7.62 9.2
      vertex -11.43 8.5497 0
      vertex -12.3597 7.62 0
    endloop
  endfacet
  facet normal -0.965925 -0.258822 0
    outer loop
      vertex -12.3597 -7.62 0
      vertex -12.7 -6.35 9.2
      vertex -12.7 -6.35 0
    endloop
  endfacet
  facet normal -0.965925 -0.258822 0
    outer loop
      vertex -12.7 -6.35 9.2
      vertex -12.3597 -7.62 0
      vertex -12.3597 -7.62 9.2
    endloop
  endfacet
  facet normal -0.258822 -0.965925 0
    outer loop
      vertex -11.43 -8.5497 0
      vertex -10.16 -8.89 9.2
      vertex -11.43 -8.5497 9.2
    endloop
  endfacet
  facet normal -0.258822 -0.965925 -0
    outer loop
      vertex -10.16 -8.89 9.2
      vertex -11.43 -8.5497 0
      vertex -10.16 -8.89 0
    endloop
  endfacet
  facet normal 0.965925 0.258822 0
    outer loop
      vertex 12.7 6.35 9.2
      vertex 12.3597 7.62 0
      vertex 12.3597 7.62 9.2
    endloop
  endfacet
  facet normal 0.965925 0.258822 0
    outer loop
      vertex 12.3597 7.62 0
      vertex 12.7 6.35 9.2
      vertex 12.7 6.35 0
    endloop
  endfacet
  facet normal 0.258822 0.965925 -0
    outer loop
      vertex 11.43 8.5497 0
      vertex 10.16 8.89 9.2
      vertex 11.43 8.5497 9.2
    endloop
  endfacet
  facet normal 0.258822 0.965925 0
    outer loop
      vertex 10.16 8.89 9.2
      vertex 11.43 8.5497 0
      vertex 10.16 8.89 0
    endloop
  endfacet
  facet normal -0.965925 0.258822 0
    outer loop
      vertex -12.7 6.35 0
      vertex -12.3597 7.62 9.2
      vertex -12.3597 7.62 0
    endloop
  endfacet
  facet normal -0.965925 0.258822 0
    outer loop
      vertex -12.3597 7.62 9.2
      vertex -12.7 6.35 0
      vertex -12.7 6.35 9.2
    endloop
  endfacet
  facet normal 0.707107 -0.707107 0
    outer loop
      vertex 11.43 -8.5497 9.2
      vertex 12.3597 -7.62 0
      vertex 12.3597 -7.62 9.2
    endloop
  endfacet
  facet normal 0.707107 -0.707107 0
    outer loop
      vertex 12.3597 -7.62 0
      vertex 11.43 -8.5497 9.2
      vertex 11.43 -8.5497 0
    endloop
  endfacet
  facet normal 0 1 -0
    outer loop
      vertex 10.16 8.89 0
      vertex -10.16 8.89 9.2
      vertex 10.16 8.89 9.2
    endloop
  endfacet
  facet normal 0 1 0
    outer loop
      vertex -10.16 8.89 9.2
      vertex 10.16 8.89 0
      vertex -10.16 8.89 0
    endloop
  endfacet
  facet normal 1 -0 0
    outer loop
      vertex 12.7 -6.35 9.2
      vertex 12.7 6.35 0
      vertex 12.7 6.35 9.2
    endloop
  endfacet
  facet normal 1 0 0
    outer loop
      vertex 12.7 6.35 0
      vertex 12.7 -6.35 9.2
      vertex 12.7 -6.35 0
    endloop
  endfacet
  facet normal 0.965925 -0.258822 0
    outer loop
      vertex 12.3597 -7.62 9.2
      vertex 12.7 -6.35 0
      vertex 12.7 -6.35 9.2
    endloop
  endfacet
  facet normal 0.965925 -0.258822 0
    outer loop
      vertex 12.7 -6.35 0
      vertex 12.3597 -7.62 9.2
      vertex 12.3597 -7.62 0
    endloop
  endfacet
  facet normal 0 0 -1
    outer loop
      vertex -9.07747 5.725 0
      vertex 9.07747 5.725 0
      vertex -9.07747 -5.725 0
    endloop
  endfacet
  facet normal 0 0 -1
    outer loop
      vertex 9.07747 5.725 0
      vertex -9.07747 5.725 0
      vertex -8.91 6.35 0
    endloop
  endfacet
  facet normal 0 0 -1
    outer loop
      vertex -9.535 -5.26747 0
      vertex -9.07747 5.725 0
      vertex -9.07747 -5.725 0
    endloop
  endfacet
  facet normal 0 0 -1
    outer loop
      vertex -9.535 -5.26747 0
      vertex -9.535 5.26747 0
      vertex -9.07747 5.725 0
    endloop
  endfacet
  facet normal 0 0 -1
    outer loop
      vertex -10.16 -5.1 0
      vertex -9.535 5.26747 0
      vertex -9.535 -5.26747 0
    endloop
  endfacet
  facet normal 0 0 -1
    outer loop
      vertex -10.16 -5.1 0
      vertex -10.16 5.1 0
      vertex -9.535 5.26747 0
    endloop
  endfacet
  facet normal 0 0 -1
    outer loop
      vertex -10.785 -5.26747 0
      vertex -10.16 5.1 0
      vertex -10.16 -5.1 0
    endloop
  endfacet
  facet normal 0 0 -1
    outer loop
      vertex -10.785 -5.26747 0
      vertex -10.785 5.26747 0
      vertex -10.16 5.1 0
    endloop
  endfacet
  facet normal 0 0 -1
    outer loop
      vertex -12.7 -6.35 0
      vertex -10.785 -5.26747 0
      vertex -11.2425 -5.725 0
    endloop
  endfacet
  facet normal -0 0 -1
    outer loop
      vertex -10.785 -5.26747 0
      vertex -12.7 -6.35 0
      vertex -10.785 5.26747 0
    endloop
  endfacet
  facet normal 0 0 -1
    outer loop
      vertex -12.7 -6.35 0
      vertex -11.2425 -5.725 0
      vertex -11.41 -6.35 0
    endloop
  endfacet
  facet normal 0 0 -1
    outer loop
      vertex -12.7 6.35 0
      vertex -10.785 5.26747 0
      vertex -12.7 -6.35 0
    endloop
  endfacet
  facet normal 0 0 -1
    outer loop
      vertex 12.7 -6.35 0
      vertex 10.785 -5.26747 0
      vertex 12.7 6.35 0
    endloop
  endfacet
  facet normal -0 0 -1
    outer loop
      vertex 12.7 6.35 0
      vertex 11.2425 5.725 0
      vertex 11.41 6.35 0
    endloop
  endfacet
  facet normal 0 0 -1
    outer loop
      vertex 10.785 5.26747 0
      vertex 12.7 6.35 0
      vertex 10.785 -5.26747 0
    endloop
  endfacet
  facet normal 0 0 -1
    outer loop
      vertex 12.7 6.35 0
      vertex 10.785 5.26747 0
      vertex 11.2425 5.725 0
    endloop
  endfacet
  facet normal 0 0 -1
    outer loop
      vertex 10.16 -5.1 0
      vertex 10.785 5.26747 0
      vertex 10.785 -5.26747 0
    endloop
  endfacet
  facet normal 0 0 -1
    outer loop
      vertex 10.16 -5.1 0
      vertex 10.16 5.1 0
      vertex 10.785 5.26747 0
    endloop
  endfacet
  facet normal 0 0 -1
    outer loop
      vertex 9.535 -5.26747 0
      vertex 10.16 5.1 0
      vertex 10.16 -5.1 0
    endloop
  endfacet
  facet normal 0 0 -1
    outer loop
      vertex 9.535 -5.26747 0
      vertex 9.535 5.26747 0
      vertex 10.16 5.1 0
    endloop
  endfacet
  facet normal 0 0 -1
    outer loop
      vertex 9.07747 -5.725 0
      vertex 9.535 5.26747 0
      vertex 9.535 -5.26747 0
    endloop
  endfacet
  facet normal 0 0 -1
    outer loop
      vertex 9.07747 -5.725 0
      vertex 9.07747 5.725 0
      vertex 9.535 5.26747 0
    endloop
  endfacet
  facet normal 0 0 -1
    outer loop
      vertex -8.91 -6.35 0
      vertex 9.07747 -5.725 0
      vertex 8.91 -6.35 0
    endloop
  endfacet
  facet normal 0 0 -1
    outer loop
      vertex -9.07747 -5.725 0
      vertex 9.07747 -5.725 0
      vertex -8.91 -6.35 0
    endloop
  endfacet
  facet normal 0 0 -1
    outer loop
      vertex 11.41 -6.35 0
      vertex 12.7 -6.35 0
      vertex 12.3597 -7.62 0
    endloop
  endfacet
  facet normal 0 0 -1
    outer loop
      vertex 11.2425 -5.725 0
      vertex 12.7 -6.35 0
      vertex 11.41 -6.35 0
    endloop
  endfacet
  facet normal 0 0 -1
    outer loop
      vertex 11.2425 -6.975 0
      vertex 12.3597 -7.62 0
      vertex 11.43 -8.5497 0
    endloop
  endfacet
  facet normal 0 0 -1
    outer loop
      vertex 10.785 -5.26747 0
      vertex 12.7 -6.35 0
      vertex 11.2425 -5.725 0
    endloop
  endfacet
  facet normal 0 0 -1
    outer loop
      vertex 12.7 6.35 0
      vertex 11.41 6.35 0
      vertex 12.3597 7.62 0
    endloop
  endfacet
  facet normal 0 0 -1
    outer loop
      vertex 12.3597 -7.62 0
      vertex 11.2425 -6.975 0
      vertex 11.41 -6.35 0
    endloop
  endfacet
  facet normal 0 0 -1
    outer loop
      vertex 11.43 -8.5497 0
      vertex 10.785 -7.43253 0
      vertex 11.2425 -6.975 0
    endloop
  endfacet
  facet normal 0 0 -1
    outer loop
      vertex 10.16 -8.89 0
      vertex 10.785 -7.43253 0
      vertex 11.43 -8.5497 0
    endloop
  endfacet
  facet normal 0 0 -1
    outer loop
      vertex 10.16 -8.89 0
      vertex 10.16 -7.6 0
      vertex 10.785 -7.43253 0
    endloop
  endfacet
  facet normal 0 0 -1
    outer loop
      vertex 10.16 -8.89 0
      vertex 9.535 -7.43253 0
      vertex 10.16 -7.6 0
    endloop
  endfacet
  facet normal 0 0 -1
    outer loop
      vertex 10.16 -8.89 0
      vertex 9.07747 -6.975 0
      vertex 9.535 -7.43253 0
    endloop
  endfacet
  facet normal 0 0 -1
    outer loop
      vertex 9.07747 -5.725 0
      vertex -9.07747 -5.725 0
      vertex 9.07747 5.725 0
    endloop
  endfacet
  facet normal 0 0 -1
    outer loop
      vertex 9.07747 -6.975 0
      vertex -8.91 -6.35 0
      vertex 8.91 -6.35 0
    endloop
  endfacet
  facet normal 0 0 -1
    outer loop
      vertex -9.07747 -6.975 0
      vertex 9.07747 -6.975 0
      vertex 10.16 -8.89 0
    endloop
  endfacet
  facet normal 0 0 -1
    outer loop
      vertex 9.07747 -6.975 0
      vertex -9.07747 -6.975 0
      vertex -8.91 -6.35 0
    endloop
  endfacet
  facet normal 0 0 -1
    outer loop
      vertex -10.16 -8.89 0
      vertex -9.07747 -6.975 0
      vertex 10.16 -8.89 0
    endloop
  endfacet
  facet normal 0 0 -1
    outer loop
      vertex -9.07747 -6.975 0
      vertex -10.16 -8.89 0
      vertex -9.535 -7.43253 0
    endloop
  endfacet
  facet normal 0 0 -1
    outer loop
      vertex -10.16 -8.89 0
      vertex -10.16 -7.6 0
      vertex -9.535 -7.43253 0
    endloop
  endfacet
  facet normal 0 0 -1
    outer loop
      vertex -10.16 -8.89 0
      vertex -10.785 -7.43253 0
      vertex -10.16 -7.6 0
    endloop
  endfacet
  facet normal 0 0 -1
    outer loop
      vertex -11.43 -8.5497 0
      vertex -10.785 -7.43253 0
      vertex -10.16 -8.89 0
    endloop
  endfacet
  facet normal -0 0 -1
    outer loop
      vertex -11.2425 -6.975 0
      vertex -12.3597 -7.62 0
      vertex -11.41 -6.35 0
    endloop
  endfacet
  facet normal 0 0 -1
    outer loop
      vertex -12.3597 -7.62 0
      vertex -11.2425 -6.975 0
      vertex -11.43 -8.5497 0
    endloop
  endfacet
  facet normal -0 0 -1
    outer loop
      vertex -10.785 -7.43253 0
      vertex -11.43 -8.5497 0
      vertex -11.2425 -6.975 0
    endloop
  endfacet
  facet normal 0 0 -1
    outer loop
      vertex 11.2425 6.975 0
      vertex 12.3597 7.62 0
      vertex 11.41 6.35 0
    endloop
  endfacet
  facet normal -0 0 -1
    outer loop
      vertex 12.3597 7.62 0
      vertex 11.2425 6.975 0
      vertex 11.43 8.5497 0
    endloop
  endfacet
  facet normal 0 0 -1
    outer loop
      vertex 10.785 7.43253 0
      vertex 11.43 8.5497 0
      vertex 11.2425 6.975 0
    endloop
  endfacet
  facet normal 0 0 -1
    outer loop
      vertex 10.16 7.6 0
      vertex 11.43 8.5497 0
      vertex 10.785 7.43253 0
    endloop
  endfacet
  facet normal 0 0 -1
    outer loop
      vertex 10.16 7.6 0
      vertex 10.16 8.89 0
      vertex 11.43 8.5497 0
    endloop
  endfacet
  facet normal 0 0 -1
    outer loop
      vertex 9.535 7.43253 0
      vertex 10.16 8.89 0
      vertex 10.16 7.6 0
    endloop
  endfacet
  facet normal 0 0 -1
    outer loop
      vertex 9.07747 6.975 0
      vertex 10.16 8.89 0
      vertex 9.535 7.43253 0
    endloop
  endfacet
  facet normal 0 0 -1
    outer loop
      vertex 9.07747 5.725 0
      vertex -8.91 6.35 0
      vertex 8.91 6.35 0
    endloop
  endfacet
  facet normal 0 0 -1
    outer loop
      vertex 8.91 6.35 0
      vertex -8.91 6.35 0
      vertex 9.07747 6.975 0
    endloop
  endfacet
  facet normal 0 0 -1
    outer loop
      vertex -9.07747 6.975 0
      vertex 9.07747 6.975 0
      vertex -8.91 6.35 0
    endloop
  endfacet
  facet normal 0 0 -1
    outer loop
      vertex 9.07747 6.975 0
      vertex -9.07747 6.975 0
      vertex 10.16 8.89 0
    endloop
  endfacet
  facet normal 0 0 -1
    outer loop
      vertex -10.16 8.89 0
      vertex -9.07747 6.975 0
      vertex -9.535 7.43253 0
    endloop
  endfacet
  facet normal 0 0 -1
    outer loop
      vertex -10.16 8.89 0
      vertex -9.535 7.43253 0
      vertex -10.16 7.6 0
    endloop
  endfacet
  facet normal 0 0 -1
    outer loop
      vertex -9.07747 6.975 0
      vertex -10.16 8.89 0
      vertex 10.16 8.89 0
    endloop
  endfacet
  facet normal 0 0 -1
    outer loop
      vertex -10.785 7.43253 0
      vertex -10.16 8.89 0
      vertex -10.16 7.6 0
    endloop
  endfacet
  facet normal 0 0 -1
    outer loop
      vertex -11.43 8.5497 0
      vertex -10.785 7.43253 0
      vertex -11.2425 6.975 0
    endloop
  endfacet
  facet normal 0 0 -1
    outer loop
      vertex -10.785 7.43253 0
      vertex -11.43 8.5497 0
      vertex -10.16 8.89 0
    endloop
  endfacet
  facet normal 0 0 -1
    outer loop
      vertex -12.3597 7.62 0
      vertex -11.2425 6.975 0
      vertex -11.41 6.35 0
    endloop
  endfacet
  facet normal 0 0 -1
    outer loop
      vertex -10.785 5.26747 0
      vertex -12.7 6.35 0
      vertex -11.2425 5.725 0
    endloop
  endfacet
  facet normal -0 0 -1
    outer loop
      vertex -11.41 -6.35 0
      vertex -12.3597 -7.62 0
      vertex -12.7 -6.35 0
    endloop
  endfacet
  facet normal 0 0 -1
    outer loop
      vertex -11.2425 5.725 0
      vertex -12.7 6.35 0
      vertex -11.41 6.35 0
    endloop
  endfacet
  facet normal 0 -0 -1
    outer loop
      vertex -12.3597 7.62 0
      vertex -11.41 6.35 0
      vertex -12.7 6.35 0
    endloop
  endfacet
  facet normal 0 0 -1
    outer loop
      vertex -11.2425 6.975 0
      vertex -12.3597 7.62 0
      vertex -11.43 8.5497 0
    endloop
  endfacet
  facet normal 0.707107 0.707107 -0
    outer loop
      vertex 12.3597 7.62 0
      vertex 11.43 8.5497 9.2
      vertex 12.3597 7.62 9.2
    endloop
  endfacet
  facet normal 0.707107 0.707107 0
    outer loop
      vertex 11.43 8.5497 9.2
      vertex 12.3597 7.62 0
      vertex 11.43 8.5497 0
    endloop
  endfacet
  facet normal 0 0 1
    outer loop
      vertex -9.07747 -5.725 9.2
      vertex 9.07747 -5.725 9.2
      vertex -9.07747 5.725 9.2
    endloop
  endfacet
  facet normal 0 0 1
    outer loop
      vertex 9.07747 -5.725 9.2
      vertex -9.07747 -5.725 9.2
      vertex -8.91 -6.35 9.2
    endloop
  endfacet
  facet normal -0 0 1
    outer loop
      vertex -9.535 5.26747 9.2
      vertex -9.07747 -5.725 9.2
      vertex -9.07747 5.725 9.2
    endloop
  endfacet
  facet normal 0 0 1
    outer loop
      vertex -9.535 5.26747 9.2
      vertex -9.535 -5.26747 9.2
      vertex -9.07747 -5.725 9.2
    endloop
  endfacet
  facet normal -0 0 1
    outer loop
      vertex -10.16 5.1 9.2
      vertex -9.535 -5.26747 9.2
      vertex -9.535 5.26747 9.2
    endloop
  endfacet
  facet normal 0 0 1
    outer loop
      vertex -10.16 5.1 9.2
      vertex -10.16 -5.1 9.2
      vertex -9.535 -5.26747 9.2
    endloop
  endfacet
  facet normal 0 0 1
    outer loop
      vertex -10.785 5.26747 9.2
      vertex -10.16 -5.1 9.2
      vertex -10.16 5.1 9.2
    endloop
  endfacet
  facet normal 0 0 1
    outer loop
      vertex -10.785 5.26747 9.2
      vertex -10.785 -5.26747 9.2
      vertex -10.16 -5.1 9.2
    endloop
  endfacet
  facet normal 0 0 1
    outer loop
      vertex -12.7 6.35 9.2
      vertex -10.785 5.26747 9.2
      vertex -11.2425 5.725 9.2
    endloop
  endfacet
  facet normal 0 0 1
    outer loop
      vertex -10.785 5.26747 9.2
      vertex -12.7 6.35 9.2
      vertex -10.785 -5.26747 9.2
    endloop
  endfacet
  facet normal -0 0 1
    outer loop
      vertex -12.7 6.35 9.2
      vertex -11.2425 5.725 9.2
      vertex -11.41 6.35 9.2
    endloop
  endfacet
  facet normal 0 0 1
    outer loop
      vertex -12.7 -6.35 9.2
      vertex -10.785 -5.26747 9.2
      vertex -12.7 6.35 9.2
    endloop
  endfacet
  facet normal 0 0 1
    outer loop
      vertex 12.7 6.35 9.2
      vertex 10.785 5.26747 9.2
      vertex 12.7 -6.35 9.2
    endloop
  endfacet
  facet normal 0 0 1
    outer loop
      vertex 12.7 -6.35 9.2
      vertex 11.2425 -5.725 9.2
      vertex 11.41 -6.35 9.2
    endloop
  endfacet
  facet normal -0 0 1
    outer loop
      vertex 10.785 -5.26747 9.2
      vertex 12.7 -6.35 9.2
      vertex 10.785 5.26747 9.2
    endloop
  endfacet
  facet normal 0 0 1
    outer loop
      vertex 12.7 -6.35 9.2
      vertex 10.785 -5.26747 9.2
      vertex 11.2425 -5.725 9.2
    endloop
  endfacet
  facet normal -0 0 1
    outer loop
      vertex 10.16 5.1 9.2
      vertex 10.785 -5.26747 9.2
      vertex 10.785 5.26747 9.2
    endloop
  endfacet
  facet normal 0 0 1
    outer loop
      vertex 10.16 5.1 9.2
      vertex 10.16 -5.1 9.2
      vertex 10.785 -5.26747 9.2
    endloop
  endfacet
  facet normal 0 0 1
    outer loop
      vertex 9.535 5.26747 9.2
      vertex 10.16 -5.1 9.2
      vertex 10.16 5.1 9.2
    endloop
  endfacet
  facet normal 0 0 1
    outer loop
      vertex 9.535 5.26747 9.2
      vertex 9.535 -5.26747 9.2
      vertex 10.16 -5.1 9.2
    endloop
  endfacet
  facet normal 0 0 1
    outer loop
      vertex 9.07747 5.725 9.2
      vertex 9.535 -5.26747 9.2
      vertex 9.535 5.26747 9.2
    endloop
  endfacet
  facet normal 0 0 1
    outer loop
      vertex 9.07747 5.725 9.2
      vertex 9.07747 -5.725 9.2
      vertex 9.535 -5.26747 9.2
    endloop
  endfacet
  facet normal -0 0 1
    outer loop
      vertex -8.91 6.35 9.2
      vertex 9.07747 5.725 9.2
      vertex 8.91 6.35 9.2
    endloop
  endfacet
  facet normal 0 0 1
    outer loop
      vertex -9.07747 5.725 9.2
      vertex 9.07747 5.725 9.2
      vertex -8.91 6.35 9.2
    endloop
  endfacet
  facet normal 0 0 1
    outer loop
      vertex 11.41 6.35 9.2
      vertex 12.7 6.35 9.2
      vertex 12.3597 7.62 9.2
    endloop
  endfacet
  facet normal 0 0 1
    outer loop
      vertex 11.2425 5.725 9.2
      vertex 12.7 6.35 9.2
      vertex 11.41 6.35 9.2
    endloop
  endfacet
  facet normal 0 0 1
    outer loop
      vertex 11.2425 6.975 9.2
      vertex 12.3597 7.62 9.2
      vertex 11.43 8.5497 9.2
    endloop
  endfacet
  facet normal 0 0 1
    outer loop
      vertex 10.785 5.26747 9.2
      vertex 12.7 6.35 9.2
      vertex 11.2425 5.725 9.2
    endloop
  endfacet
  facet normal 0 0 1
    outer loop
      vertex 12.7 -6.35 9.2
      vertex 11.41 -6.35 9.2
      vertex 12.3597 -7.62 9.2
    endloop
  endfacet
  facet normal 0 0 1
    outer loop
      vertex 12.3597 7.62 9.2
      vertex 11.2425 6.975 9.2
      vertex 11.41 6.35 9.2
    endloop
  endfacet
  facet normal 0 0 1
    outer loop
      vertex 11.43 8.5497 9.2
      vertex 10.785 7.43253 9.2
      vertex 11.2425 6.975 9.2
    endloop
  endfacet
  facet normal 0 0 1
    outer loop
      vertex 10.16 8.89 9.2
      vertex 10.785 7.43253 9.2
      vertex 11.43 8.5497 9.2
    endloop
  endfacet
  facet normal 0 0 1
    outer loop
      vertex 10.16 8.89 9.2
      vertex 10.16 7.6 9.2
      vertex 10.785 7.43253 9.2
    endloop
  endfacet
  facet normal 0 0 1
    outer loop
      vertex 10.16 8.89 9.2
      vertex 9.535 7.43253 9.2
      vertex 10.16 7.6 9.2
    endloop
  endfacet
  facet normal 0 0 1
    outer loop
      vertex 10.16 8.89 9.2
      vertex 9.07747 6.975 9.2
      vertex 9.535 7.43253 9.2
    endloop
  endfacet
  facet normal 0 0 1
    outer loop
      vertex 9.07747 5.725 9.2
      vertex -9.07747 5.725 9.2
      vertex 9.07747 -5.725 9.2
    endloop
  endfacet
  facet normal 0 0 1
    outer loop
      vertex 9.07747 6.975 9.2
      vertex -8.91 6.35 9.2
      vertex 8.91 6.35 9.2
    endloop
  endfacet
  facet normal 0 0 1
    outer loop
      vertex -9.07747 6.975 9.2
      vertex 9.07747 6.975 9.2
      vertex 10.16 8.89 9.2
    endloop
  endfacet
  facet normal 0 0 1
    outer loop
      vertex 9.07747 6.975 9.2
      vertex -9.07747 6.975 9.2
      vertex -8.91 6.35 9.2
    endloop
  endfacet
  facet normal -0 0 1
    outer loop
      vertex -10.16 8.89 9.2
      vertex -9.07747 6.975 9.2
      vertex 10.16 8.89 9.2
    endloop
  endfacet
  facet normal 0 0 1
    outer loop
      vertex -9.07747 6.975 9.2
      vertex -10.16 8.89 9.2
      vertex -9.535 7.43253 9.2
    endloop
  endfacet
  facet normal 0 0 1
    outer loop
      vertex -10.16 8.89 9.2
      vertex -10.16 7.6 9.2
      vertex -9.535 7.43253 9.2
    endloop
  endfacet
  facet normal 0 0 1
    outer loop
      vertex -10.16 8.89 9.2
      vertex -10.785 7.43253 9.2
      vertex -10.16 7.6 9.2
    endloop
  endfacet
  facet normal -0 0 1
    outer loop
      vertex -11.43 8.5497 9.2
      vertex -10.785 7.43253 9.2
      vertex -10.16 8.89 9.2
    endloop
  endfacet
  facet normal 0 0 1
    outer loop
      vertex -11.2425 6.975 9.2
      vertex -12.3597 7.62 9.2
      vertex -11.41 6.35 9.2
    endloop
  endfacet
  facet normal -0 0 1
    outer loop
      vertex -12.3597 7.62 9.2
      vertex -11.2425 6.975 9.2
      vertex -11.43 8.5497 9.2
    endloop
  endfacet
  facet normal 0 0 1
    outer loop
      vertex -10.785 7.43253 9.2
      vertex -11.43 8.5497 9.2
      vertex -11.2425 6.975 9.2
    endloop
  endfacet
  facet normal -0 0 1
    outer loop
      vertex 11.2425 -6.975 9.2
      vertex 12.3597 -7.62 9.2
      vertex 11.41 -6.35 9.2
    endloop
  endfacet
  facet normal 0 0 1
    outer loop
      vertex 12.3597 -7.62 9.2
      vertex 11.2425 -6.975 9.2
      vertex 11.43 -8.5497 9.2
    endloop
  endfacet
  facet normal -0 0 1
    outer loop
      vertex 10.785 -7.43253 9.2
      vertex 11.43 -8.5497 9.2
      vertex 11.2425 -6.975 9.2
    endloop
  endfacet
  facet normal -0 0 1
    outer loop
      vertex 10.16 -7.6 9.2
      vertex 11.43 -8.5497 9.2
      vertex 10.785 -7.43253 9.2
    endloop
  endfacet
  facet normal 0 0 1
    outer loop
      vertex 10.16 -7.6 9.2
      vertex 10.16 -8.89 9.2
      vertex 11.43 -8.5497 9.2
    endloop
  endfacet
  facet normal 0 0 1
    outer loop
      vertex 9.535 -7.43253 9.2
      vertex 10.16 -8.89 9.2
      vertex 10.16 -7.6 9.2
    endloop
  endfacet
  facet normal 0 0 1
    outer loop
      vertex 9.07747 -6.975 9.2
      vertex 10.16 -8.89 9.2
      vertex 9.535 -7.43253 9.2
    endloop
  endfacet
  facet normal 0 0 1
    outer loop
      vertex 9.07747 -5.725 9.2
      vertex -8.91 -6.35 9.2
      vertex 8.91 -6.35 9.2
    endloop
  endfacet
  facet normal 0 0 1
    outer loop
      vertex 8.91 -6.35 9.2
      vertex -8.91 -6.35 9.2
      vertex 9.07747 -6.975 9.2
    endloop
  endfacet
  facet normal 0 0 1
    outer loop
      vertex -9.07747 -6.975 9.2
      vertex 9.07747 -6.975 9.2
      vertex -8.91 -6.35 9.2
    endloop
  endfacet
  facet normal 0 0 1
    outer loop
      vertex 9.07747 -6.975 9.2
      vertex -9.07747 -6.975 9.2
      vertex 10.16 -8.89 9.2
    endloop
  endfacet
  facet normal 0 0 1
    outer loop
      vertex -10.16 -8.89 9.2
      vertex -9.07747 -6.975 9.2
      vertex -9.535 -7.43253 9.2
    endloop
  endfacet
  facet normal 0 0 1
    outer loop
      vertex -10.16 -8.89 9.2
      vertex -9.535 -7.43253 9.2
      vertex -10.16 -7.6 9.2
    endloop
  endfacet
  facet normal 0 0 1
    outer loop
      vertex -9.07747 -6.975 9.2
      vertex -10.16 -8.89 9.2
      vertex 10.16 -8.89 9.2
    endloop
  endfacet
  facet normal 0 0 1
    outer loop
      vertex -10.785 -7.43253 9.2
      vertex -10.16 -8.89 9.2
      vertex -10.16 -7.6 9.2
    endloop
  endfacet
  facet normal 0 0 1
    outer loop
      vertex -11.43 -8.5497 9.2
      vertex -10.785 -7.43253 9.2
      vertex -11.2425 -6.975 9.2
    endloop
  endfacet
  facet normal 0 0 1
    outer loop
      vertex -10.785 -7.43253 9.2
      vertex -11.43 -8.5497 9.2
      vertex -10.16 -8.89 9.2
    endloop
  endfacet
  facet normal 0 0 1
    outer loop
      vertex -12.3597 -7.62 9.2
      vertex -11.2425 -6.975 9.2
      vertex -11.41 -6.35 9.2
    endloop
  endfacet
  facet normal 0 0 1
    outer loop
      vertex -10.785 -5.26747 9.2
      vertex -12.7 -6.35 9.2
      vertex -11.2425 -5.725 9.2
    endloop
  endfacet
  facet normal 0 0 1
    outer loop
      vertex -11.41 6.35 9.2
      vertex -12.3597 7.62 9.2
      vertex -12.7 6.35 9.2
    endloop
  endfacet
  facet normal 0 0 1
    outer loop
      vertex -11.2425 -5.725 9.2
      vertex -12.7 -6.35 9.2
      vertex -11.41 -6.35 9.2
    endloop
  endfacet
  facet normal 0 -0 1
    outer loop
      vertex -12.3597 -7.62 9.2
      vertex -11.41 -6.35 9.2
      vertex -12.7 -6.35 9.2
    endloop
  endfacet
  facet normal 0 0 1
    outer loop
      vertex -11.2425 -6.975 9.2
      vertex -12.3597 -7.62 9.2
      vertex -11.43 -8.5497 9.2
    endloop
  endfacet
endsolid OpenSCAD_Model
