solid OpenSCAD_Model
  facet normal 0 -1 0
    outer loop
      vertex -2 -15 -6
      vertex 13 -15 -3
      vertex -2 -15 -3
    endloop
  endfacet
  facet normal 0 -1 -0
    outer loop
      vertex 13 -15 -3
      vertex -2 -15 -6
      vertex 13 -15 -6
    endloop
  endfacet
  facet normal 0 0 1
    outer loop
      vertex 13 15 -3
      vertex 8.5 10 -3
      vertex 13 8.5 -3
    endloop
  endfacet
  facet normal 0 0 1
    outer loop
      vertex 13 15 -3
      vertex 7 12.5981 -3
      vertex 8.5 10 -3
    endloop
  endfacet
  facet normal 0 0 1
    outer loop
      vertex 13 15 -3
      vertex 4 12.5981 -3
      vertex 7 12.5981 -3
    endloop
  endfacet
  facet normal 0 0 1
    outer loop
      vertex 4 12.5981 -3
      vertex -2 15 -3
      vertex 2.5 10 -3
    endloop
  endfacet
  facet normal -0 0 1
    outer loop
      vertex -2 15 -3
      vertex 4 12.5981 -3
      vertex 13 15 -3
    endloop
  endfacet
  facet normal 0 0 1
    outer loop
      vertex 13 8.5 -3
      vertex 8.5 10 -3
      vertex 7.63397 8.5 -3
    endloop
  endfacet
  facet normal 0 0 1
    outer loop
      vertex -2 8.5 -3
      vertex 2.5 10 -3
      vertex -2 15 -3
    endloop
  endfacet
  facet normal 0 0 1
    outer loop
      vertex 2.5 10 -3
      vertex -2 8.5 -3
      vertex 3.36603 8.5 -3
    endloop
  endfacet
  facet normal 0 0 1
    outer loop
      vertex 3.36603 -8.5 -3
      vertex -2 -8.5 -3
      vertex 2.5 -10 -3
    endloop
  endfacet
  facet normal 0 0 1
    outer loop
      vertex 13 -8.5 -3
      vertex 8.5 -10 -3
      vertex 13 -15 -3
    endloop
  endfacet
  facet normal 0 -0 1
    outer loop
      vertex 8.5 -10 -3
      vertex 13 -8.5 -3
      vertex 7.63397 -8.5 -3
    endloop
  endfacet
  facet normal -0 0 1
    outer loop
      vertex 7 -12.5981 -3
      vertex 13 -15 -3
      vertex 8.5 -10 -3
    endloop
  endfacet
  facet normal -0 0 1
    outer loop
      vertex 4 -12.5981 -3
      vertex 13 -15 -3
      vertex 7 -12.5981 -3
    endloop
  endfacet
  facet normal 0 0 1
    outer loop
      vertex -2 -15 -3
      vertex 2.5 -10 -3
      vertex -2 -8.5 -3
    endloop
  endfacet
  facet normal 0 0 1
    outer loop
      vertex 4 -12.5981 -3
      vertex -2 -15 -3
      vertex 13 -15 -3
    endloop
  endfacet
  facet normal 0 0 1
    outer loop
      vertex 2.5 -10 -3
      vertex -2 -15 -3
      vertex 4 -12.5981 -3
    endloop
  endfacet
  facet normal 0 0 -1
    outer loop
      vertex 13 -15 -6
      vertex 7 -10 -6
      vertex 13 -6 -6
    endloop
  endfacet
  facet normal 0 0 -1
    outer loop
      vertex 13 -15 -6
      vertex 6.79904 -10.75 -6
      vertex 7 -10 -6
    endloop
  endfacet
  facet normal 0 0 -1
    outer loop
      vertex 13 -15 -6
      vertex 6.25 -11.299 -6
      vertex 6.79904 -10.75 -6
    endloop
  endfacet
  facet normal 0 0 -1
    outer loop
      vertex 13 -15 -6
      vertex 5.5 -11.5 -6
      vertex 6.25 -11.299 -6
    endloop
  endfacet
  facet normal 0 0 -1
    outer loop
      vertex -2 -15 -6
      vertex 5.5 -11.5 -6
      vertex 13 -15 -6
    endloop
  endfacet
  facet normal 0 0 -1
    outer loop
      vertex -2 -15 -6
      vertex 4 -10 -6
      vertex 4.20096 -10.75 -6
    endloop
  endfacet
  facet normal -0 0 -1
    outer loop
      vertex 0 -6 -6
      vertex -2 -15 -6
      vertex 0 6 -6
    endloop
  endfacet
  facet normal -0 0 -1
    outer loop
      vertex 4 -10 -6
      vertex -2 -15 -6
      vertex 0 -6 -6
    endloop
  endfacet
  facet normal -0 0 -1
    outer loop
      vertex 4.75 -11.299 -6
      vertex -2 -15 -6
      vertex 4.20096 -10.75 -6
    endloop
  endfacet
  facet normal -0 0 -1
    outer loop
      vertex 5.5 -11.5 -6
      vertex -2 -15 -6
      vertex 4.75 -11.299 -6
    endloop
  endfacet
  facet normal 0 0 -1
    outer loop
      vertex 6.79904 -9.25 -6
      vertex 13 -6 -6
      vertex 7 -10 -6
    endloop
  endfacet
  facet normal 0 0 -1
    outer loop
      vertex 6.25 -8.70096 -6
      vertex 13 -6 -6
      vertex 6.79904 -9.25 -6
    endloop
  endfacet
  facet normal 0 0 -1
    outer loop
      vertex 5.5 -8.5 -6
      vertex 13 -6 -6
      vertex 6.25 -8.70096 -6
    endloop
  endfacet
  facet normal 0 0 -1
    outer loop
      vertex 0 -6 -6
      vertex 5.5 -8.5 -6
      vertex 4.75 -8.70096 -6
    endloop
  endfacet
  facet normal 0 0 -1
    outer loop
      vertex 5.5 -8.5 -6
      vertex 0 -6 -6
      vertex 13 -6 -6
    endloop
  endfacet
  facet normal 0 0 -1
    outer loop
      vertex 4.20096 -9.25 -6
      vertex 0 -6 -6
      vertex 4.75 -8.70096 -6
    endloop
  endfacet
  facet normal 0 0 -1
    outer loop
      vertex 0 -6 -6
      vertex 4.20096 -9.25 -6
      vertex 4 -10 -6
    endloop
  endfacet
  facet normal 0 0 -1
    outer loop
      vertex 13 6 -6
      vertex 7 10 -6
      vertex 13 15 -6
    endloop
  endfacet
  facet normal 0 0 -1
    outer loop
      vertex 13 6 -6
      vertex 6.79904 9.25 -6
      vertex 7 10 -6
    endloop
  endfacet
  facet normal 0 0 -1
    outer loop
      vertex 13 6 -6
      vertex 6.25 8.70096 -6
      vertex 6.79904 9.25 -6
    endloop
  endfacet
  facet normal 0 0 -1
    outer loop
      vertex 13 6 -6
      vertex 5.5 8.5 -6
      vertex 6.25 8.70096 -6
    endloop
  endfacet
  facet normal 0 0 -1
    outer loop
      vertex 0 6 -6
      vertex 5.5 8.5 -6
      vertex 13 6 -6
    endloop
  endfacet
  facet normal -0 0 -1
    outer loop
      vertex 4.20096 9.25 -6
      vertex 0 6 -6
      vertex 4 10 -6
    endloop
  endfacet
  facet normal -0 0 -1
    outer loop
      vertex 4.75 8.70096 -6
      vertex 0 6 -6
      vertex 4.20096 9.25 -6
    endloop
  endfacet
  facet normal -0 0 -1
    outer loop
      vertex 5.5 8.5 -6
      vertex 0 6 -6
      vertex 4.75 8.70096 -6
    endloop
  endfacet
  facet normal 0 0 -1
    outer loop
      vertex 6.79904 10.75 -6
      vertex 13 15 -6
      vertex 7 10 -6
    endloop
  endfacet
  facet normal 0 0 -1
    outer loop
      vertex 6.25 11.299 -6
      vertex 13 15 -6
      vertex 6.79904 10.75 -6
    endloop
  endfacet
  facet normal 0 0 -1
    outer loop
      vertex 5.5 11.5 -6
      vertex 13 15 -6
      vertex 6.25 11.299 -6
    endloop
  endfacet
  facet normal 0 0 -1
    outer loop
      vertex -2 15 -6
      vertex 5.5 11.5 -6
      vertex 4.75 11.299 -6
    endloop
  endfacet
  facet normal 0 0 -1
    outer loop
      vertex -2 15 -6
      vertex 4 10 -6
      vertex 0 6 -6
    endloop
  endfacet
  facet normal 0 0 -1
    outer loop
      vertex 5.5 11.5 -6
      vertex -2 15 -6
      vertex 13 15 -6
    endloop
  endfacet
  facet normal 0 0 -1
    outer loop
      vertex 4.20096 10.75 -6
      vertex -2 15 -6
      vertex 4.75 11.299 -6
    endloop
  endfacet
  facet normal 0 0 -1
    outer loop
      vertex 4 10 -6
      vertex -2 15 -6
      vertex 4.20096 10.75 -6
    endloop
  endfacet
  facet normal 0 0 -1
    outer loop
      vertex -2 15 -6
      vertex 0 6 -6
      vertex -2 -15 -6
    endloop
  endfacet
  facet normal 0 1 -0
    outer loop
      vertex 13 15 -6
      vertex -2 15 -3
      vertex 13 15 -3
    endloop
  endfacet
  facet normal 0 1 0
    outer loop
      vertex -2 15 -3
      vertex 13 15 -6
      vertex -2 15 -6
    endloop
  endfacet
  facet normal 1 0 0
    outer loop
      vertex 13 8.5 7
      vertex 13 6 1
      vertex 13 8.5 -3
    endloop
  endfacet
  facet normal 1 -0 0
    outer loop
      vertex 13 5.19615 2
      vertex 13 6 1
      vertex 13 8.5 7
    endloop
  endfacet
  facet normal 1 0 0
    outer loop
      vertex 13 6 1
      vertex 13 5.19615 2
      vertex 13 5.4641 1
    endloop
  endfacet
  facet normal 1 0 0
    outer loop
      vertex 13 8.5 7
      vertex 13 3.19615 4
      vertex 13 5.19615 2
    endloop
  endfacet
  facet normal 1 0 0
    outer loop
      vertex 13 8.5 7
      vertex 13 -3.19615 4
      vertex 13 3.19615 4
    endloop
  endfacet
  facet normal 1 0 0
    outer loop
      vertex 13 -5.19615 2
      vertex 13 -6 1
      vertex 13 -5.4641 1
    endloop
  endfacet
  facet normal 1 -0 0
    outer loop
      vertex 13 -8.5 7
      vertex 13 -3.19615 4
      vertex 13 8.5 7
    endloop
  endfacet
  facet normal 1 0 0
    outer loop
      vertex 13 -8.5 7
      vertex 13 -5.19615 2
      vertex 13 -3.19615 4
    endloop
  endfacet
  facet normal 1 0 0
    outer loop
      vertex 13 -8.5 7
      vertex 13 -6 1
      vertex 13 -5.19615 2
    endloop
  endfacet
  facet normal 1 0 0
    outer loop
      vertex 13 -8.5 -3
      vertex 13 -6 1
      vertex 13 -8.5 7
    endloop
  endfacet
  facet normal 1 0 0
    outer loop
      vertex 13 -6 1
      vertex 13 -8.5 -3
      vertex 13 -6 -6
    endloop
  endfacet
  facet normal 1 0 0
    outer loop
      vertex 13 -15 -6
      vertex 13 -8.5 -3
      vertex 13 -15 -3
    endloop
  endfacet
  facet normal 1 0 0
    outer loop
      vertex 13 -8.5 -3
      vertex 13 -15 -6
      vertex 13 -6 -6
    endloop
  endfacet
  facet normal 1 -0 0
    outer loop
      vertex 13 8.5 -3
      vertex 13 15 -6
      vertex 13 15 -3
    endloop
  endfacet
  facet normal 1 0 0
    outer loop
      vertex 13 8.5 -3
      vertex 13 6 -6
      vertex 13 15 -6
    endloop
  endfacet
  facet normal 1 0 0
    outer loop
      vertex 13 6 -6
      vertex 13 8.5 -3
      vertex 13 6 1
    endloop
  endfacet
  facet normal -1 0 0
    outer loop
      vertex -2 15 -6
      vertex -2 8.5 -3
      vertex -2 15 -3
    endloop
  endfacet
  facet normal -1 0 0
    outer loop
      vertex -2 2.59808 0.5
      vertex -2 8.5 -3
      vertex -2 3 -1
    endloop
  endfacet
  facet normal -1 0 0
    outer loop
      vertex -2 1.5 -3.59808
      vertex -2 8.5 -3
      vertex -2 15 -6
    endloop
  endfacet
  facet normal -1 0 0
    outer loop
      vertex -2 8.5 -3
      vertex -2 2.59808 -2.5
      vertex -2 3 -1
    endloop
  endfacet
  facet normal -1 -0 0
    outer loop
      vertex -2 8.5 -3
      vertex -2 1.5 -3.59808
      vertex -2 2.59808 -2.5
    endloop
  endfacet
  facet normal -1 0 0
    outer loop
      vertex -2 15 -6
      vertex -2 0 -4
      vertex -2 1.5 -3.59808
    endloop
  endfacet
  facet normal -1 -0 0
    outer loop
      vertex -2 -2.59808 -2.5
      vertex -2 -8.5 -3
      vertex -2 -3 -1
    endloop
  endfacet
  facet normal -1 0 0
    outer loop
      vertex -2 -1.5 -3.59808
      vertex -2 -8.5 -3
      vertex -2 -2.59808 -2.5
    endloop
  endfacet
  facet normal -1 0 0
    outer loop
      vertex -2 -15 -6
      vertex -2 -1.5 -3.59808
      vertex -2 0 -4
    endloop
  endfacet
  facet normal -1 0 0
    outer loop
      vertex -2 -15 -6
      vertex -2 0 -4
      vertex -2 15 -6
    endloop
  endfacet
  facet normal -1 -0 0
    outer loop
      vertex -2 -1.5 -3.59808
      vertex -2 -15 -6
      vertex -2 -8.5 -3
    endloop
  endfacet
  facet normal -1 -0 0
    outer loop
      vertex -2 -8.5 -3
      vertex -2 -15 -6
      vertex -2 -15 -3
    endloop
  endfacet
  facet normal -1 0 0
    outer loop
      vertex -2 8.5 -3
      vertex -2 2.59808 0.5
      vertex -2 8.5 7
    endloop
  endfacet
  facet normal -1 0 0
    outer loop
      vertex -2 1.5 1.59808
      vertex -2 8.5 7
      vertex -2 2.59808 0.5
    endloop
  endfacet
  facet normal -1 0 0
    outer loop
      vertex -2 0 2
      vertex -2 8.5 7
      vertex -2 1.5 1.59808
    endloop
  endfacet
  facet normal -1 0 0
    outer loop
      vertex -2 -8.5 7
      vertex -2 0 2
      vertex -2 -1.5 1.59808
    endloop
  endfacet
  facet normal -1 0 0
    outer loop
      vertex -2 -8.5 -3
      vertex -2 -2.59808 0.5
      vertex -2 -3 -1
    endloop
  endfacet
  facet normal -1 0 0
    outer loop
      vertex -2 -8.5 7
      vertex -2 -2.59808 0.5
      vertex -2 -8.5 -3
    endloop
  endfacet
  facet normal -1 0 0
    outer loop
      vertex -2 0 2
      vertex -2 -8.5 7
      vertex -2 8.5 7
    endloop
  endfacet
  facet normal -1 0 0
    outer loop
      vertex -2 -2.59808 0.5
      vertex -2 -8.5 7
      vertex -2 -1.5 1.59808
    endloop
  endfacet
  facet normal 0 -1 0
    outer loop
      vertex 7.63397 -8.5 -3
      vertex 13 -8.5 7
      vertex 7.63397 -8.5 7
    endloop
  endfacet
  facet normal 0 -1 -0
    outer loop
      vertex 13 -8.5 7
      vertex 7.63397 -8.5 -3
      vertex 13 -8.5 -3
    endloop
  endfacet
  facet normal 0 -1 0
    outer loop
      vertex -2 -8.5 -3
      vertex 3.36603 -8.5 7
      vertex -2 -8.5 7
    endloop
  endfacet
  facet normal 0 -1 -0
    outer loop
      vertex 3.36603 -8.5 7
      vertex -2 -8.5 -3
      vertex 3.36603 -8.5 -3
    endloop
  endfacet
  facet normal 0 0 1
    outer loop
      vertex 7 7.40192 7
      vertex 13 8.5 7
      vertex 7.63397 8.5 7
    endloop
  endfacet
  facet normal 0 0 1
    outer loop
      vertex 13 8.5 7
      vertex 7 7.40192 7
      vertex 13 -8.5 7
    endloop
  endfacet
  facet normal -0 0 1
    outer loop
      vertex 7 -7.40192 7
      vertex 13 -8.5 7
      vertex 7 7.40192 7
    endloop
  endfacet
  facet normal 0 0 1
    outer loop
      vertex 13 -8.5 7
      vertex 7 -7.40192 7
      vertex 7.63397 -8.5 7
    endloop
  endfacet
  facet normal -0 0 1
    outer loop
      vertex 4 7.40192 7
      vertex 7 -7.40192 7
      vertex 7 7.40192 7
    endloop
  endfacet
  facet normal 0 0 1
    outer loop
      vertex 4 7.40192 7
      vertex 4 -7.40192 7
      vertex 7 -7.40192 7
    endloop
  endfacet
  facet normal -0 0 1
    outer loop
      vertex -2 8.5 7
      vertex 4 7.40192 7
      vertex 3.36603 8.5 7
    endloop
  endfacet
  facet normal 0 0 1
    outer loop
      vertex 4 7.40192 7
      vertex -2 8.5 7
      vertex 4 -7.40192 7
    endloop
  endfacet
  facet normal 0 0 1
    outer loop
      vertex -2 -8.5 7
      vertex 4 -7.40192 7
      vertex -2 8.5 7
    endloop
  endfacet
  facet normal 0 0 1
    outer loop
      vertex 4 -7.40192 7
      vertex -2 -8.5 7
      vertex 3.36603 -8.5 7
    endloop
  endfacet
  facet normal 0 1 -0
    outer loop
      vertex 13 8.5 -3
      vertex 7.63397 8.5 7
      vertex 13 8.5 7
    endloop
  endfacet
  facet normal 0 1 0
    outer loop
      vertex 7.63397 8.5 7
      vertex 13 8.5 -3
      vertex 7.63397 8.5 -3
    endloop
  endfacet
  facet normal 0 1 -0
    outer loop
      vertex 3.36603 8.5 -3
      vertex -2 8.5 7
      vertex 3.36603 8.5 7
    endloop
  endfacet
  facet normal 0 1 0
    outer loop
      vertex -2 8.5 7
      vertex 3.36603 8.5 -3
      vertex -2 8.5 -3
    endloop
  endfacet
  facet normal 0 0 -1
    outer loop
      vertex 0 -6 4
      vertex 9.5 -3.19615 4
      vertex 9.5 -6 4
    endloop
  endfacet
  facet normal -0 0 -1
    outer loop
      vertex 9.5 -3.19615 4
      vertex 0 -6 4
      vertex 9.5 3.19615 4
    endloop
  endfacet
  facet normal 0 0 -1
    outer loop
      vertex 0 6 4
      vertex 9.5 3.19615 4
      vertex 0 -6 4
    endloop
  endfacet
  facet normal 0 0 -1
    outer loop
      vertex 9.5 3.19615 4
      vertex 0 6 4
      vertex 9.5 6 4
    endloop
  endfacet
  facet normal 0 0 -1
    outer loop
      vertex 9.5 -3.19615 4
      vertex 13 3.19615 4
      vertex 13 -3.19615 4
    endloop
  endfacet
  facet normal -0 0 -1
    outer loop
      vertex 13 3.19615 4
      vertex 9.5 -3.19615 4
      vertex 9.5 3.19615 4
    endloop
  endfacet
  facet normal 1 0 0
    outer loop
      vertex 0 6 4
      vertex 0 3 -1
      vertex 0 6 -6
    endloop
  endfacet
  facet normal 1 0 0
    outer loop
      vertex 0 6 4
      vertex 0 2.59808 0.5
      vertex 0 3 -1
    endloop
  endfacet
  facet normal 1 0 0
    outer loop
      vertex 0 6 4
      vertex 0 1.5 1.59808
      vertex 0 2.59808 0.5
    endloop
  endfacet
  facet normal 1 0 0
    outer loop
      vertex 0 6 4
      vertex 0 0 2
      vertex 0 1.5 1.59808
    endloop
  endfacet
  facet normal 1 -0 0
    outer loop
      vertex 0 -6 4
      vertex 0 0 2
      vertex 0 6 4
    endloop
  endfacet
  facet normal 1 0 0
    outer loop
      vertex 0 -2.59808 0.5
      vertex 0 -6 4
      vertex 0 -3 -1
    endloop
  endfacet
  facet normal 1 0 0
    outer loop
      vertex 0 -1.5 1.59808
      vertex 0 -6 4
      vertex 0 -2.59808 0.5
    endloop
  endfacet
  facet normal 1 0 0
    outer loop
      vertex 0 0 2
      vertex 0 -6 4
      vertex 0 -1.5 1.59808
    endloop
  endfacet
  facet normal 1 -0 0
    outer loop
      vertex 0 2.59808 -2.5
      vertex 0 6 -6
      vertex 0 3 -1
    endloop
  endfacet
  facet normal 1 -0 0
    outer loop
      vertex 0 1.5 -3.59808
      vertex 0 6 -6
      vertex 0 2.59808 -2.5
    endloop
  endfacet
  facet normal 1 -0 0
    outer loop
      vertex 0 0 -4
      vertex 0 6 -6
      vertex 0 1.5 -3.59808
    endloop
  endfacet
  facet normal 1 0 0
    outer loop
      vertex 0 -6 -6
      vertex 0 0 -4
      vertex 0 -1.5 -3.59808
    endloop
  endfacet
  facet normal 1 0 0
    outer loop
      vertex 0 -6 -6
      vertex 0 -3 -1
      vertex 0 -6 4
    endloop
  endfacet
  facet normal 1 0 0
    outer loop
      vertex 0 0 -4
      vertex 0 -6 -6
      vertex 0 6 -6
    endloop
  endfacet
  facet normal 1 0 0
    outer loop
      vertex 0 -2.59808 -2.5
      vertex 0 -6 -6
      vertex 0 -1.5 -3.59808
    endloop
  endfacet
  facet normal 1 0 0
    outer loop
      vertex 0 -3 -1
      vertex 0 -6 -6
      vertex 0 -2.59808 -2.5
    endloop
  endfacet
  facet normal 0 -0.965926 -0.25882
    outer loop
      vertex 9.5 5.4641 1
      vertex 13 5.19615 2
      vertex 9.5 5.19615 2
    endloop
  endfacet
  facet normal 0 -0.965926 -0.25882
    outer loop
      vertex 13 5.19615 2
      vertex 9.5 5.4641 1
      vertex 13 5.4641 1
    endloop
  endfacet
  facet normal 0 0.965926 -0.25882
    outer loop
      vertex 13 -5.4641 1
      vertex 9.5 -5.19615 2
      vertex 13 -5.19615 2
    endloop
  endfacet
  facet normal 0 0.965926 -0.25882
    outer loop
      vertex 9.5 -5.19615 2
      vertex 13 -5.4641 1
      vertex 9.5 -5.4641 1
    endloop
  endfacet
  facet normal 0 -0.707107 -0.707107
    outer loop
      vertex 9.5 5.19615 2
      vertex 13 3.19615 4
      vertex 9.5 3.19615 4
    endloop
  endfacet
  facet normal 0 -0.707107 -0.707107
    outer loop
      vertex 13 3.19615 4
      vertex 9.5 5.19615 2
      vertex 13 5.19615 2
    endloop
  endfacet
  facet normal 0 0.707107 -0.707107
    outer loop
      vertex 9.5 -5.19615 2
      vertex 13 -3.19615 4
      vertex 13 -5.19615 2
    endloop
  endfacet
  facet normal 0 0.707107 -0.707107
    outer loop
      vertex 13 -3.19615 4
      vertex 9.5 -5.19615 2
      vertex 9.5 -3.19615 4
    endloop
  endfacet
  facet normal -1 0 0
    outer loop
      vertex 9.5 5.19615 2
      vertex 9.5 6 1
      vertex 9.5 5.4641 1
    endloop
  endfacet
  facet normal -1 0 0
    outer loop
      vertex 9.5 6 1
      vertex 9.5 5.19615 2
      vertex 9.5 6 4
    endloop
  endfacet
  facet normal -1 -0 0
    outer loop
      vertex 9.5 6 4
      vertex 9.5 5.19615 2
      vertex 9.5 3.19615 4
    endloop
  endfacet
  facet normal -1 0 0
    outer loop
      vertex 9.5 -6 1
      vertex 9.5 -5.19615 2
      vertex 9.5 -5.4641 1
    endloop
  endfacet
  facet normal -1 0 0
    outer loop
      vertex 9.5 -5.19615 2
      vertex 9.5 -6 4
      vertex 9.5 -3.19615 4
    endloop
  endfacet
  facet normal -1 0 0
    outer loop
      vertex 9.5 -6 4
      vertex 9.5 -5.19615 2
      vertex 9.5 -6 1
    endloop
  endfacet
  facet normal 0 -1 0
    outer loop
      vertex 0 6 4
      vertex 9.5 6 1
      vertex 9.5 6 4
    endloop
  endfacet
  facet normal 0 -1 0
    outer loop
      vertex 0 6 -6
      vertex 9.5 6 1
      vertex 0 6 4
    endloop
  endfacet
  facet normal 0 -1 0
    outer loop
      vertex 13 6 -6
      vertex 9.5 6 1
      vertex 0 6 -6
    endloop
  endfacet
  facet normal 0 -1 0
    outer loop
      vertex 9.5 6 1
      vertex 13 6 -6
      vertex 13 6 1
    endloop
  endfacet
  facet normal 0 1 0
    outer loop
      vertex 13 -6 1
      vertex 13 -6 -6
      vertex 9.5 -6 1
    endloop
  endfacet
  facet normal 0 1 -0
    outer loop
      vertex 9.5 -6 1
      vertex 0 -6 4
      vertex 9.5 -6 4
    endloop
  endfacet
  facet normal 0 1 0
    outer loop
      vertex 0 -6 -6
      vertex 9.5 -6 1
      vertex 13 -6 -6
    endloop
  endfacet
  facet normal 0 1 0
    outer loop
      vertex 9.5 -6 1
      vertex 0 -6 -6
      vertex 0 -6 4
    endloop
  endfacet
  facet normal -0 0.258817 0.965926
    outer loop
      vertex -2 0 -4
      vertex 0 -1.5 -3.59808
      vertex 0 0 -4
    endloop
  endfacet
  facet normal 0 0.258817 0.965926
    outer loop
      vertex 0 -1.5 -3.59808
      vertex -2 0 -4
      vertex -2 -1.5 -3.59808
    endloop
  endfacet
  facet normal 0 -0.707107 -0.707107
    outer loop
      vertex -2 2.59808 0.5
      vertex 0 1.5 1.59808
      vertex -2 1.5 1.59808
    endloop
  endfacet
  facet normal 0 -0.707107 -0.707107
    outer loop
      vertex 0 1.5 1.59808
      vertex -2 2.59808 0.5
      vertex 0 2.59808 0.5
    endloop
  endfacet
  facet normal 0 -0.258817 -0.965926
    outer loop
      vertex -2 0 2
      vertex 0 1.5 1.59808
      vertex 0 0 2
    endloop
  endfacet
  facet normal -0 -0.258817 -0.965926
    outer loop
      vertex 0 1.5 1.59808
      vertex -2 0 2
      vertex -2 1.5 1.59808
    endloop
  endfacet
  facet normal 0 -0.965926 -0.258817
    outer loop
      vertex -2 3 -1
      vertex 0 2.59808 0.5
      vertex -2 2.59808 0.5
    endloop
  endfacet
  facet normal 0 -0.965926 -0.258817
    outer loop
      vertex 0 2.59808 0.5
      vertex -2 3 -1
      vertex 0 3 -1
    endloop
  endfacet
  facet normal 0 0.965926 -0.258817
    outer loop
      vertex 0 -3 -1
      vertex -2 -2.59808 0.5
      vertex 0 -2.59808 0.5
    endloop
  endfacet
  facet normal 0 0.965926 -0.258817
    outer loop
      vertex -2 -2.59808 0.5
      vertex 0 -3 -1
      vertex -2 -3 -1
    endloop
  endfacet
  facet normal 0 0.258817 -0.965926
    outer loop
      vertex -2 -1.5 1.59808
      vertex 0 0 2
      vertex 0 -1.5 1.59808
    endloop
  endfacet
  facet normal 0 0.258817 -0.965926
    outer loop
      vertex 0 0 2
      vertex -2 -1.5 1.59808
      vertex -2 0 2
    endloop
  endfacet
  facet normal 0 -0.707107 0.707107
    outer loop
      vertex -2 1.5 -3.59808
      vertex 0 2.59808 -2.5
      vertex -2 2.59808 -2.5
    endloop
  endfacet
  facet normal 0 -0.707107 0.707107
    outer loop
      vertex 0 2.59808 -2.5
      vertex -2 1.5 -3.59808
      vertex 0 1.5 -3.59808
    endloop
  endfacet
  facet normal 0 -0.965926 0.258817
    outer loop
      vertex -2 2.59808 -2.5
      vertex 0 3 -1
      vertex -2 3 -1
    endloop
  endfacet
  facet normal 0 -0.965926 0.258817
    outer loop
      vertex 0 3 -1
      vertex -2 2.59808 -2.5
      vertex 0 2.59808 -2.5
    endloop
  endfacet
  facet normal 0 -0.258817 0.965926
    outer loop
      vertex -2 1.5 -3.59808
      vertex 0 0 -4
      vertex 0 1.5 -3.59808
    endloop
  endfacet
  facet normal 0 -0.258817 0.965926
    outer loop
      vertex 0 0 -4
      vertex -2 1.5 -3.59808
      vertex -2 0 -4
    endloop
  endfacet
  facet normal 0 0.707107 -0.707107
    outer loop
      vertex 0 -2.59808 0.5
      vertex -2 -1.5 1.59808
      vertex 0 -1.5 1.59808
    endloop
  endfacet
  facet normal 0 0.707107 -0.707107
    outer loop
      vertex -2 -1.5 1.59808
      vertex 0 -2.59808 0.5
      vertex -2 -2.59808 0.5
    endloop
  endfacet
  facet normal 0 0.707107 0.707107
    outer loop
      vertex 0 -1.5 -3.59808
      vertex -2 -2.59808 -2.5
      vertex 0 -2.59808 -2.5
    endloop
  endfacet
  facet normal 0 0.707107 0.707107
    outer loop
      vertex -2 -2.59808 -2.5
      vertex 0 -1.5 -3.59808
      vertex -2 -1.5 -3.59808
    endloop
  endfacet
  facet normal 0 0.965926 0.258817
    outer loop
      vertex 0 -2.59808 -2.5
      vertex -2 -3 -1
      vertex 0 -3 -1
    endloop
  endfacet
  facet normal 0 0.965926 0.258817
    outer loop
      vertex -2 -3 -1
      vertex 0 -2.59808 -2.5
      vertex -2 -2.59808 -2.5
    endloop
  endfacet
  facet normal 0 0 -1
    outer loop
      vertex 9.5 5.4641 1
      vertex 13 6 1
      vertex 13 5.4641 1
    endloop
  endfacet
  facet normal -0 0 -1
    outer loop
      vertex 13 6 1
      vertex 9.5 5.4641 1
      vertex 9.5 6 1
    endloop
  endfacet
  facet normal 0 0 -1
    outer loop
      vertex 9.5 -6 1
      vertex 13 -5.4641 1
      vertex 13 -6 1
    endloop
  endfacet
  facet normal -0 0 -1
    outer loop
      vertex 13 -5.4641 1
      vertex 9.5 -6 1
      vertex 9.5 -5.4641 1
    endloop
  endfacet
  facet normal 0.258865 -0.965914 0
    outer loop
      vertex 4.75 11.299 -6
      vertex 5.5 11.5 -4
      vertex 4.75 11.299 -4
    endloop
  endfacet
  facet normal 0.258865 -0.965914 0
    outer loop
      vertex 5.5 11.5 -4
      vertex 4.75 11.299 -6
      vertex 5.5 11.5 -6
    endloop
  endfacet
  facet normal -0.707107 0.707107 0
    outer loop
      vertex 6.25 8.70096 -6
      vertex 6.79904 9.25 -4
      vertex 6.79904 9.25 -6
    endloop
  endfacet
  facet normal -0.707107 0.707107 0
    outer loop
      vertex 6.79904 9.25 -4
      vertex 6.25 8.70096 -6
      vertex 6.25 8.70096 -4
    endloop
  endfacet
  facet normal -0.258817 0.965926 0
    outer loop
      vertex 6.25 8.70096 -6
      vertex 5.5 8.5 -4
      vertex 6.25 8.70096 -4
    endloop
  endfacet
  facet normal -0.258817 0.965926 0
    outer loop
      vertex 5.5 8.5 -4
      vertex 6.25 8.70096 -6
      vertex 5.5 8.5 -6
    endloop
  endfacet
  facet normal -0.965926 0.258817 0
    outer loop
      vertex 6.79904 9.25 -6
      vertex 7 10 -4
      vertex 7 10 -6
    endloop
  endfacet
  facet normal -0.965926 0.258817 0
    outer loop
      vertex 7 10 -4
      vertex 6.79904 9.25 -6
      vertex 6.79904 9.25 -4
    endloop
  endfacet
  facet normal 0.965926 0.258817 0
    outer loop
      vertex 4.20096 9.25 -4
      vertex 4 10 -6
      vertex 4 10 -4
    endloop
  endfacet
  facet normal 0.965926 0.258817 0
    outer loop
      vertex 4 10 -6
      vertex 4.20096 9.25 -4
      vertex 4.20096 9.25 -6
    endloop
  endfacet
  facet normal 0.258817 0.965926 -0
    outer loop
      vertex 5.5 8.5 -6
      vertex 4.75 8.70096 -4
      vertex 5.5 8.5 -4
    endloop
  endfacet
  facet normal 0.258817 0.965926 0
    outer loop
      vertex 4.75 8.70096 -4
      vertex 5.5 8.5 -6
      vertex 4.75 8.70096 -6
    endloop
  endfacet
  facet normal -0.707081 -0.707133 0
    outer loop
      vertex 6.79904 10.75 -6
      vertex 6.25 11.299 -4
      vertex 6.25 11.299 -6
    endloop
  endfacet
  facet normal -0.707081 -0.707133 0
    outer loop
      vertex 6.25 11.299 -4
      vertex 6.79904 10.75 -6
      vertex 6.79904 10.75 -4
    endloop
  endfacet
  facet normal -0.965926 -0.258817 0
    outer loop
      vertex 7 10 -6
      vertex 6.79904 10.75 -4
      vertex 6.79904 10.75 -6
    endloop
  endfacet
  facet normal -0.965926 -0.258817 0
    outer loop
      vertex 6.79904 10.75 -4
      vertex 7 10 -6
      vertex 7 10 -4
    endloop
  endfacet
  facet normal -0.258865 -0.965914 0
    outer loop
      vertex 5.5 11.5 -6
      vertex 6.25 11.299 -4
      vertex 5.5 11.5 -4
    endloop
  endfacet
  facet normal -0.258865 -0.965914 -0
    outer loop
      vertex 6.25 11.299 -4
      vertex 5.5 11.5 -6
      vertex 6.25 11.299 -6
    endloop
  endfacet
  facet normal 0.707107 0.707107 0
    outer loop
      vertex 4.75 8.70096 -4
      vertex 4.20096 9.25 -6
      vertex 4.20096 9.25 -4
    endloop
  endfacet
  facet normal 0.707107 0.707107 0
    outer loop
      vertex 4.20096 9.25 -6
      vertex 4.75 8.70096 -4
      vertex 4.75 8.70096 -6
    endloop
  endfacet
  facet normal 0.707081 -0.707133 0
    outer loop
      vertex 4.20096 10.75 -4
      vertex 4.75 11.299 -6
      vertex 4.75 11.299 -4
    endloop
  endfacet
  facet normal 0.707081 -0.707133 0
    outer loop
      vertex 4.75 11.299 -6
      vertex 4.20096 10.75 -4
      vertex 4.20096 10.75 -6
    endloop
  endfacet
  facet normal 0.965926 -0.258817 0
    outer loop
      vertex 4 10 -4
      vertex 4.20096 10.75 -6
      vertex 4.20096 10.75 -4
    endloop
  endfacet
  facet normal 0.965926 -0.258817 0
    outer loop
      vertex 4.20096 10.75 -6
      vertex 4 10 -4
      vertex 4 10 -6
    endloop
  endfacet
  facet normal 0 1 -0
    outer loop
      vertex 7 7.40192 -4
      vertex 4 7.40192 7
      vertex 7 7.40192 7
    endloop
  endfacet
  facet normal 0 1 0
    outer loop
      vertex 4 7.40192 7
      vertex 7 7.40192 -4
      vertex 4 7.40192 -4
    endloop
  endfacet
  facet normal 0 -1 0
    outer loop
      vertex 4 12.5981 -4
      vertex 7 12.5981 -3
      vertex 4 12.5981 -3
    endloop
  endfacet
  facet normal 0 -1 -0
    outer loop
      vertex 7 12.5981 -3
      vertex 4 12.5981 -4
      vertex 7 12.5981 -4
    endloop
  endfacet
  facet normal -0.866027 -0.499997 0
    outer loop
      vertex 8.5 10 -4
      vertex 7 12.5981 -3
      vertex 7 12.5981 -4
    endloop
  endfacet
  facet normal -0.866027 -0.499997 0
    outer loop
      vertex 7 12.5981 -3
      vertex 8.5 10 -4
      vertex 8.5 10 -3
    endloop
  endfacet
  facet normal 0.866027 -0.499997 0
    outer loop
      vertex 2.5 10 -3
      vertex 4 12.5981 -4
      vertex 4 12.5981 -3
    endloop
  endfacet
  facet normal 0.866027 -0.499997 0
    outer loop
      vertex 4 12.5981 -4
      vertex 2.5 10 -3
      vertex 2.5 10 -4
    endloop
  endfacet
  facet normal 0.866028 0.499996 0
    outer loop
      vertex 3.36603 8.5 7
      vertex 4 7.40192 7
      vertex 3.36603 8.5 -3
    endloop
  endfacet
  facet normal 0.866024 0.500002 0
    outer loop
      vertex 3.36603 8.5 -3
      vertex 2.5 10 -4
      vertex 2.5 10 -3
    endloop
  endfacet
  facet normal 0.866026 0.499999 -5.07413e-06
    outer loop
      vertex 3.36603 8.5 -3
      vertex 4 7.40192 -4
      vertex 2.5 10 -4
    endloop
  endfacet
  facet normal 0.866028 0.499996 -0
    outer loop
      vertex 4 7.40192 -4
      vertex 3.36603 8.5 -3
      vertex 4 7.40192 7
    endloop
  endfacet
  facet normal 0 0 1
    outer loop
      vertex 8.5 10 -4
      vertex 6.79904 10.75 -4
      vertex 7 10 -4
    endloop
  endfacet
  facet normal 0 0 1
    outer loop
      vertex 7 12.5981 -4
      vertex 6.25 11.299 -4
      vertex 6.79904 10.75 -4
    endloop
  endfacet
  facet normal 0 0 1
    outer loop
      vertex 7 12.5981 -4
      vertex 5.5 11.5 -4
      vertex 6.25 11.299 -4
    endloop
  endfacet
  facet normal -0 0 1
    outer loop
      vertex 4 12.5981 -4
      vertex 5.5 11.5 -4
      vertex 7 12.5981 -4
    endloop
  endfacet
  facet normal 0 0 1
    outer loop
      vertex 5.5 11.5 -4
      vertex 4 12.5981 -4
      vertex 4.75 11.299 -4
    endloop
  endfacet
  facet normal 0 0 1
    outer loop
      vertex 4 12.5981 -4
      vertex 4.20096 10.75 -4
      vertex 4.75 11.299 -4
    endloop
  endfacet
  facet normal 0 0 1
    outer loop
      vertex 2.5 10 -4
      vertex 4.20096 10.75 -4
      vertex 4 12.5981 -4
    endloop
  endfacet
  facet normal 0 0 1
    outer loop
      vertex 4.20096 10.75 -4
      vertex 2.5 10 -4
      vertex 4 10 -4
    endloop
  endfacet
  facet normal 0 0 1
    outer loop
      vertex 4 10 -4
      vertex 2.5 10 -4
      vertex 4 7.40192 -4
    endloop
  endfacet
  facet normal -0 0 1
    outer loop
      vertex 6.79904 10.75 -4
      vertex 8.5 10 -4
      vertex 7 12.5981 -4
    endloop
  endfacet
  facet normal 0 0 1
    outer loop
      vertex 6.79904 9.25 -4
      vertex 8.5 10 -4
      vertex 7 10 -4
    endloop
  endfacet
  facet normal 0 0 1
    outer loop
      vertex 8.5 10 -4
      vertex 6.79904 9.25 -4
      vertex 7 7.40192 -4
    endloop
  endfacet
  facet normal -0 0 1
    outer loop
      vertex 6.25 8.70096 -4
      vertex 7 7.40192 -4
      vertex 6.79904 9.25 -4
    endloop
  endfacet
  facet normal -0 0 1
    outer loop
      vertex 5.5 8.5 -4
      vertex 7 7.40192 -4
      vertex 6.25 8.70096 -4
    endloop
  endfacet
  facet normal 0 0 1
    outer loop
      vertex 4 7.40192 -4
      vertex 5.5 8.5 -4
      vertex 4.75 8.70096 -4
    endloop
  endfacet
  facet normal 0 0 1
    outer loop
      vertex 5.5 8.5 -4
      vertex 4 7.40192 -4
      vertex 7 7.40192 -4
    endloop
  endfacet
  facet normal 0 0 1
    outer loop
      vertex 4.20096 9.25 -4
      vertex 4 7.40192 -4
      vertex 4.75 8.70096 -4
    endloop
  endfacet
  facet normal 0 0 1
    outer loop
      vertex 4 7.40192 -4
      vertex 4.20096 9.25 -4
      vertex 4 10 -4
    endloop
  endfacet
  facet normal -0.866024 0.500002 0
    outer loop
      vertex 8.5 10 -4
      vertex 7.63397 8.5 -3
      vertex 8.5 10 -3
    endloop
  endfacet
  facet normal -0.866026 0.499999 -5.07413e-06
    outer loop
      vertex 7 7.40192 -4
      vertex 7.63397 8.5 -3
      vertex 8.5 10 -4
    endloop
  endfacet
  facet normal -0.866028 0.499996 0
    outer loop
      vertex 7 7.40192 7
      vertex 7.63397 8.5 -3
      vertex 7 7.40192 -4
    endloop
  endfacet
  facet normal -0.866028 0.499996 0
    outer loop
      vertex 7.63397 8.5 -3
      vertex 7 7.40192 7
      vertex 7.63397 8.5 7
    endloop
  endfacet
  facet normal 0.258817 -0.965926 0
    outer loop
      vertex 4.75 -8.70096 -6
      vertex 5.5 -8.5 -4
      vertex 4.75 -8.70096 -4
    endloop
  endfacet
  facet normal 0.258817 -0.965926 0
    outer loop
      vertex 5.5 -8.5 -4
      vertex 4.75 -8.70096 -6
      vertex 5.5 -8.5 -6
    endloop
  endfacet
  facet normal -0.707081 0.707133 0
    outer loop
      vertex 6.25 -11.299 -6
      vertex 6.79904 -10.75 -4
      vertex 6.79904 -10.75 -6
    endloop
  endfacet
  facet normal -0.707081 0.707133 0
    outer loop
      vertex 6.79904 -10.75 -4
      vertex 6.25 -11.299 -6
      vertex 6.25 -11.299 -4
    endloop
  endfacet
  facet normal -0.258865 0.965914 0
    outer loop
      vertex 6.25 -11.299 -6
      vertex 5.5 -11.5 -4
      vertex 6.25 -11.299 -4
    endloop
  endfacet
  facet normal -0.258865 0.965914 0
    outer loop
      vertex 5.5 -11.5 -4
      vertex 6.25 -11.299 -6
      vertex 5.5 -11.5 -6
    endloop
  endfacet
  facet normal -0.965926 0.258817 0
    outer loop
      vertex 6.79904 -10.75 -6
      vertex 7 -10 -4
      vertex 7 -10 -6
    endloop
  endfacet
  facet normal -0.965926 0.258817 0
    outer loop
      vertex 7 -10 -4
      vertex 6.79904 -10.75 -6
      vertex 6.79904 -10.75 -4
    endloop
  endfacet
  facet normal 0.965926 0.258817 0
    outer loop
      vertex 4.20096 -10.75 -4
      vertex 4 -10 -6
      vertex 4 -10 -4
    endloop
  endfacet
  facet normal 0.965926 0.258817 0
    outer loop
      vertex 4 -10 -6
      vertex 4.20096 -10.75 -4
      vertex 4.20096 -10.75 -6
    endloop
  endfacet
  facet normal 0.258865 0.965914 -0
    outer loop
      vertex 5.5 -11.5 -6
      vertex 4.75 -11.299 -4
      vertex 5.5 -11.5 -4
    endloop
  endfacet
  facet normal 0.258865 0.965914 0
    outer loop
      vertex 4.75 -11.299 -4
      vertex 5.5 -11.5 -6
      vertex 4.75 -11.299 -6
    endloop
  endfacet
  facet normal -0.707107 -0.707107 0
    outer loop
      vertex 6.79904 -9.25 -6
      vertex 6.25 -8.70096 -4
      vertex 6.25 -8.70096 -6
    endloop
  endfacet
  facet normal -0.707107 -0.707107 0
    outer loop
      vertex 6.25 -8.70096 -4
      vertex 6.79904 -9.25 -6
      vertex 6.79904 -9.25 -4
    endloop
  endfacet
  facet normal -0.965926 -0.258817 0
    outer loop
      vertex 7 -10 -6
      vertex 6.79904 -9.25 -4
      vertex 6.79904 -9.25 -6
    endloop
  endfacet
  facet normal -0.965926 -0.258817 0
    outer loop
      vertex 6.79904 -9.25 -4
      vertex 7 -10 -6
      vertex 7 -10 -4
    endloop
  endfacet
  facet normal -0.258817 -0.965926 0
    outer loop
      vertex 5.5 -8.5 -6
      vertex 6.25 -8.70096 -4
      vertex 5.5 -8.5 -4
    endloop
  endfacet
  facet normal -0.258817 -0.965926 -0
    outer loop
      vertex 6.25 -8.70096 -4
      vertex 5.5 -8.5 -6
      vertex 6.25 -8.70096 -6
    endloop
  endfacet
  facet normal 0.707081 0.707133 0
    outer loop
      vertex 4.75 -11.299 -4
      vertex 4.20096 -10.75 -6
      vertex 4.20096 -10.75 -4
    endloop
  endfacet
  facet normal 0.707081 0.707133 0
    outer loop
      vertex 4.20096 -10.75 -6
      vertex 4.75 -11.299 -4
      vertex 4.75 -11.299 -6
    endloop
  endfacet
  facet normal 0.707107 -0.707107 0
    outer loop
      vertex 4.20096 -9.25 -4
      vertex 4.75 -8.70096 -6
      vertex 4.75 -8.70096 -4
    endloop
  endfacet
  facet normal 0.707107 -0.707107 0
    outer loop
      vertex 4.75 -8.70096 -6
      vertex 4.20096 -9.25 -4
      vertex 4.20096 -9.25 -6
    endloop
  endfacet
  facet normal 0.965926 -0.258817 0
    outer loop
      vertex 4 -10 -4
      vertex 4.20096 -9.25 -6
      vertex 4.20096 -9.25 -4
    endloop
  endfacet
  facet normal 0.965926 -0.258817 0
    outer loop
      vertex 4.20096 -9.25 -6
      vertex 4 -10 -4
      vertex 4 -10 -6
    endloop
  endfacet
  facet normal 0 1 -0
    outer loop
      vertex 7 -12.5981 -4
      vertex 4 -12.5981 -3
      vertex 7 -12.5981 -3
    endloop
  endfacet
  facet normal 0 1 0
    outer loop
      vertex 4 -12.5981 -3
      vertex 7 -12.5981 -4
      vertex 4 -12.5981 -4
    endloop
  endfacet
  facet normal 0 -1 0
    outer loop
      vertex 4 -7.40192 -4
      vertex 7 -7.40192 7
      vertex 4 -7.40192 7
    endloop
  endfacet
  facet normal 0 -1 -0
    outer loop
      vertex 7 -7.40192 7
      vertex 4 -7.40192 -4
      vertex 7 -7.40192 -4
    endloop
  endfacet
  facet normal -0.866028 -0.499996 0
    outer loop
      vertex 7 -7.40192 -4
      vertex 7.63397 -8.5 -3
      vertex 7 -7.40192 7
    endloop
  endfacet
  facet normal -0.866026 -0.499999 -5.07413e-06
    outer loop
      vertex 8.5 -10 -4
      vertex 7.63397 -8.5 -3
      vertex 7 -7.40192 -4
    endloop
  endfacet
  facet normal -0.866024 -0.500002 0
    outer loop
      vertex 7.63397 -8.5 -3
      vertex 8.5 -10 -4
      vertex 8.5 -10 -3
    endloop
  endfacet
  facet normal -0.866028 -0.499996 0
    outer loop
      vertex 7 -7.40192 7
      vertex 7.63397 -8.5 -3
      vertex 7.63397 -8.5 7
    endloop
  endfacet
  facet normal 0.866028 -0.499996 0
    outer loop
      vertex 3.36603 -8.5 -3
      vertex 4 -7.40192 7
      vertex 3.36603 -8.5 7
    endloop
  endfacet
  facet normal 0.866028 -0.499996 0
    outer loop
      vertex 4 -7.40192 7
      vertex 3.36603 -8.5 -3
      vertex 4 -7.40192 -4
    endloop
  endfacet
  facet normal 0.866024 -0.500002 0
    outer loop
      vertex 2.5 -10 -4
      vertex 3.36603 -8.5 -3
      vertex 2.5 -10 -3
    endloop
  endfacet
  facet normal 0.866026 -0.499999 -5.07413e-06
    outer loop
      vertex 3.36603 -8.5 -3
      vertex 2.5 -10 -4
      vertex 4 -7.40192 -4
    endloop
  endfacet
  facet normal 0.866027 0.499997 0
    outer loop
      vertex 4 -12.5981 -3
      vertex 2.5 -10 -4
      vertex 2.5 -10 -3
    endloop
  endfacet
  facet normal 0.866027 0.499997 0
    outer loop
      vertex 2.5 -10 -4
      vertex 4 -12.5981 -3
      vertex 4 -12.5981 -4
    endloop
  endfacet
  facet normal 0 0 1
    outer loop
      vertex 8.5 -10 -4
      vertex 6.79904 -9.25 -4
      vertex 7 -10 -4
    endloop
  endfacet
  facet normal 0 0 1
    outer loop
      vertex 7 -7.40192 -4
      vertex 6.25 -8.70096 -4
      vertex 6.79904 -9.25 -4
    endloop
  endfacet
  facet normal 0 0 1
    outer loop
      vertex 7 -7.40192 -4
      vertex 5.5 -8.5 -4
      vertex 6.25 -8.70096 -4
    endloop
  endfacet
  facet normal -0 0 1
    outer loop
      vertex 4 -7.40192 -4
      vertex 5.5 -8.5 -4
      vertex 7 -7.40192 -4
    endloop
  endfacet
  facet normal 0 0 1
    outer loop
      vertex 5.5 -8.5 -4
      vertex 4 -7.40192 -4
      vertex 4.75 -8.70096 -4
    endloop
  endfacet
  facet normal 0 0 1
    outer loop
      vertex 4 -7.40192 -4
      vertex 4.20096 -9.25 -4
      vertex 4.75 -8.70096 -4
    endloop
  endfacet
  facet normal 0 0 1
    outer loop
      vertex 2.5 -10 -4
      vertex 4.20096 -9.25 -4
      vertex 4 -7.40192 -4
    endloop
  endfacet
  facet normal 0 0 1
    outer loop
      vertex 4.20096 -9.25 -4
      vertex 2.5 -10 -4
      vertex 4 -10 -4
    endloop
  endfacet
  facet normal 0 0 1
    outer loop
      vertex 4 -10 -4
      vertex 2.5 -10 -4
      vertex 4 -12.5981 -4
    endloop
  endfacet
  facet normal -0 0 1
    outer loop
      vertex 6.79904 -9.25 -4
      vertex 8.5 -10 -4
      vertex 7 -7.40192 -4
    endloop
  endfacet
  facet normal 0 0 1
    outer loop
      vertex 6.79904 -10.75 -4
      vertex 8.5 -10 -4
      vertex 7 -10 -4
    endloop
  endfacet
  facet normal 0 0 1
    outer loop
      vertex 8.5 -10 -4
      vertex 6.79904 -10.75 -4
      vertex 7 -12.5981 -4
    endloop
  endfacet
  facet normal -0 0 1
    outer loop
      vertex 6.25 -11.299 -4
      vertex 7 -12.5981 -4
      vertex 6.79904 -10.75 -4
    endloop
  endfacet
  facet normal -0 0 1
    outer loop
      vertex 5.5 -11.5 -4
      vertex 7 -12.5981 -4
      vertex 6.25 -11.299 -4
    endloop
  endfacet
  facet normal 0 0 1
    outer loop
      vertex 4 -12.5981 -4
      vertex 5.5 -11.5 -4
      vertex 4.75 -11.299 -4
    endloop
  endfacet
  facet normal 0 0 1
    outer loop
      vertex 5.5 -11.5 -4
      vertex 4 -12.5981 -4
      vertex 7 -12.5981 -4
    endloop
  endfacet
  facet normal 0 0 1
    outer loop
      vertex 4.20096 -10.75 -4
      vertex 4 -12.5981 -4
      vertex 4.75 -11.299 -4
    endloop
  endfacet
  facet normal 0 0 1
    outer loop
      vertex 4 -12.5981 -4
      vertex 4.20096 -10.75 -4
      vertex 4 -10 -4
    endloop
  endfacet
  facet normal -0.866027 0.499997 0
    outer loop
      vertex 7 -12.5981 -4
      vertex 8.5 -10 -3
      vertex 8.5 -10 -4
    endloop
  endfacet
  facet normal -0.866027 0.499997 0
    outer loop
      vertex 8.5 -10 -3
      vertex 7 -12.5981 -4
      vertex 7 -12.5981 -3
    endloop
  endfacet
endsolid OpenSCAD_Model
