solid OpenSCAD_Model
  facet normal 0 -1 0
    outer loop
      vertex -2 -15 -6
      vertex 13 -15 -3
      vertex -2 -15 -3
    endloop
  endfacet
  facet normal 0 -1 -0
    outer loop
      vertex 13 -15 -3
      vertex -2 -15 -6
      vertex 13 -15 -6
    endloop
  endfacet
  facet normal 0 0 1
    outer loop
      vertex 13 15 -3
      vertex 8.5 10 -3
      vertex 13 7.5 -3
    endloop
  endfacet
  facet normal 0 0 1
    outer loop
      vertex 13 15 -3
      vertex 7 12.5981 -3
      vertex 8.5 10 -3
    endloop
  endfacet
  facet normal 0 0 1
    outer loop
      vertex 13 15 -3
      vertex 4 12.5981 -3
      vertex 7 12.5981 -3
    endloop
  endfacet
  facet normal 0 0 1
    outer loop
      vertex 4 12.5981 -3
      vertex -2 15 -3
      vertex 2.5 10 -3
    endloop
  endfacet
  facet normal -0 0 1
    outer loop
      vertex -2 15 -3
      vertex 4 12.5981 -3
      vertex 13 15 -3
    endloop
  endfacet
  facet normal 0 0 1
    outer loop
      vertex 13 7.5 -3
      vertex 8.5 10 -3
      vertex 7.05662 7.5 -3
    endloop
  endfacet
  facet normal 0 0 1
    outer loop
      vertex -2 7.5 -3
      vertex 2.5 10 -3
      vertex -2 15 -3
    endloop
  endfacet
  facet normal 0 0 1
    outer loop
      vertex 2.5 10 -3
      vertex -2 7.5 -3
      vertex 3.94338 7.5 -3
    endloop
  endfacet
  facet normal 0 0 1
    outer loop
      vertex 3.94338 -7.5 -3
      vertex -2 -7.5 -3
      vertex 2.5 -10 -3
    endloop
  endfacet
  facet normal 0 0 1
    outer loop
      vertex 13 -7.5 -3
      vertex 8.5 -10 -3
      vertex 13 -15 -3
    endloop
  endfacet
  facet normal 0 -0 1
    outer loop
      vertex 8.5 -10 -3
      vertex 13 -7.5 -3
      vertex 7.05662 -7.5 -3
    endloop
  endfacet
  facet normal -0 0 1
    outer loop
      vertex 7 -12.5981 -3
      vertex 13 -15 -3
      vertex 8.5 -10 -3
    endloop
  endfacet
  facet normal -0 0 1
    outer loop
      vertex 4 -12.5981 -3
      vertex 13 -15 -3
      vertex 7 -12.5981 -3
    endloop
  endfacet
  facet normal 0 0 1
    outer loop
      vertex -2 -15 -3
      vertex 2.5 -10 -3
      vertex -2 -7.5 -3
    endloop
  endfacet
  facet normal 0 0 1
    outer loop
      vertex 4 -12.5981 -3
      vertex -2 -15 -3
      vertex 13 -15 -3
    endloop
  endfacet
  facet normal 0 0 1
    outer loop
      vertex 2.5 -10 -3
      vertex -2 -15 -3
      vertex 4 -12.5981 -3
    endloop
  endfacet
  facet normal 0 0 -1
    outer loop
      vertex 13 -15 -6
      vertex 7 -10 -6
      vertex 13 -5 -6
    endloop
  endfacet
  facet normal 0 0 -1
    outer loop
      vertex 13 -15 -6
      vertex 6.79904 -10.75 -6
      vertex 7 -10 -6
    endloop
  endfacet
  facet normal 0 0 -1
    outer loop
      vertex 13 -15 -6
      vertex 6.25 -11.299 -6
      vertex 6.79904 -10.75 -6
    endloop
  endfacet
  facet normal 0 0 -1
    outer loop
      vertex 13 -15 -6
      vertex 5.5 -11.5 -6
      vertex 6.25 -11.299 -6
    endloop
  endfacet
  facet normal 0 0 -1
    outer loop
      vertex -2 -15 -6
      vertex 5.5 -11.5 -6
      vertex 13 -15 -6
    endloop
  endfacet
  facet normal 0 0 -1
    outer loop
      vertex -2 -15 -6
      vertex 4 -10 -6
      vertex 4.20096 -10.75 -6
    endloop
  endfacet
  facet normal -0 0 -1
    outer loop
      vertex -0.5 -5 -6
      vertex -2 -15 -6
      vertex -0.5 5 -6
    endloop
  endfacet
  facet normal -0 0 -1
    outer loop
      vertex 4 -10 -6
      vertex -2 -15 -6
      vertex -0.5 -5 -6
    endloop
  endfacet
  facet normal -0 0 -1
    outer loop
      vertex 4.75 -11.299 -6
      vertex -2 -15 -6
      vertex 4.20096 -10.75 -6
    endloop
  endfacet
  facet normal -0 0 -1
    outer loop
      vertex 5.5 -11.5 -6
      vertex -2 -15 -6
      vertex 4.75 -11.299 -6
    endloop
  endfacet
  facet normal 0 0 -1
    outer loop
      vertex 6.79904 -9.25 -6
      vertex 13 -5 -6
      vertex 7 -10 -6
    endloop
  endfacet
  facet normal 0 0 -1
    outer loop
      vertex 6.25 -8.70096 -6
      vertex 13 -5 -6
      vertex 6.79904 -9.25 -6
    endloop
  endfacet
  facet normal 0 0 -1
    outer loop
      vertex 5.5 -8.5 -6
      vertex 13 -5 -6
      vertex 6.25 -8.70096 -6
    endloop
  endfacet
  facet normal 0 0 -1
    outer loop
      vertex -0.5 -5 -6
      vertex 5.5 -8.5 -6
      vertex 4.75 -8.70096 -6
    endloop
  endfacet
  facet normal 0 0 -1
    outer loop
      vertex 5.5 -8.5 -6
      vertex -0.5 -5 -6
      vertex 13 -5 -6
    endloop
  endfacet
  facet normal 0 0 -1
    outer loop
      vertex 4.20096 -9.25 -6
      vertex -0.5 -5 -6
      vertex 4.75 -8.70096 -6
    endloop
  endfacet
  facet normal 0 0 -1
    outer loop
      vertex -0.5 -5 -6
      vertex 4.20096 -9.25 -6
      vertex 4 -10 -6
    endloop
  endfacet
  facet normal 0 0 -1
    outer loop
      vertex 13 5 -6
      vertex 7 10 -6
      vertex 13 15 -6
    endloop
  endfacet
  facet normal 0 0 -1
    outer loop
      vertex 13 5 -6
      vertex 6.79904 9.25 -6
      vertex 7 10 -6
    endloop
  endfacet
  facet normal 0 0 -1
    outer loop
      vertex 13 5 -6
      vertex 6.25 8.70096 -6
      vertex 6.79904 9.25 -6
    endloop
  endfacet
  facet normal 0 0 -1
    outer loop
      vertex 13 5 -6
      vertex 5.5 8.5 -6
      vertex 6.25 8.70096 -6
    endloop
  endfacet
  facet normal 0 0 -1
    outer loop
      vertex -0.5 5 -6
      vertex 5.5 8.5 -6
      vertex 13 5 -6
    endloop
  endfacet
  facet normal -0 0 -1
    outer loop
      vertex 4.20096 9.25 -6
      vertex -0.5 5 -6
      vertex 4 10 -6
    endloop
  endfacet
  facet normal -0 0 -1
    outer loop
      vertex 4.75 8.70096 -6
      vertex -0.5 5 -6
      vertex 4.20096 9.25 -6
    endloop
  endfacet
  facet normal -0 0 -1
    outer loop
      vertex 5.5 8.5 -6
      vertex -0.5 5 -6
      vertex 4.75 8.70096 -6
    endloop
  endfacet
  facet normal 0 0 -1
    outer loop
      vertex 6.79904 10.75 -6
      vertex 13 15 -6
      vertex 7 10 -6
    endloop
  endfacet
  facet normal 0 0 -1
    outer loop
      vertex 6.25 11.299 -6
      vertex 13 15 -6
      vertex 6.79904 10.75 -6
    endloop
  endfacet
  facet normal 0 0 -1
    outer loop
      vertex 5.5 11.5 -6
      vertex 13 15 -6
      vertex 6.25 11.299 -6
    endloop
  endfacet
  facet normal 0 0 -1
    outer loop
      vertex -2 15 -6
      vertex 5.5 11.5 -6
      vertex 4.75 11.299 -6
    endloop
  endfacet
  facet normal 0 0 -1
    outer loop
      vertex -2 15 -6
      vertex 4 10 -6
      vertex -0.5 5 -6
    endloop
  endfacet
  facet normal 0 0 -1
    outer loop
      vertex 5.5 11.5 -6
      vertex -2 15 -6
      vertex 13 15 -6
    endloop
  endfacet
  facet normal 0 0 -1
    outer loop
      vertex 4.20096 10.75 -6
      vertex -2 15 -6
      vertex 4.75 11.299 -6
    endloop
  endfacet
  facet normal 0 0 -1
    outer loop
      vertex 4 10 -6
      vertex -2 15 -6
      vertex 4.20096 10.75 -6
    endloop
  endfacet
  facet normal 0 0 -1
    outer loop
      vertex -2 15 -6
      vertex -0.5 5 -6
      vertex -2 -15 -6
    endloop
  endfacet
  facet normal 0 1 -0
    outer loop
      vertex 13 15 -6
      vertex -2 15 -3
      vertex 13 15 -3
    endloop
  endfacet
  facet normal 0 1 0
    outer loop
      vertex -2 15 -3
      vertex 13 15 -6
      vertex -2 15 -6
    endloop
  endfacet
  facet normal 1 0 0
    outer loop
      vertex 13 7.5 9
      vertex 13 5 3.19615
      vertex 13 7.5 -3
    endloop
  endfacet
  facet normal 1 0 0
    outer loop
      vertex 13 7.5 9
      vertex 13 3 5.19615
      vertex 13 5 3.19615
    endloop
  endfacet
  facet normal 1 0 0
    outer loop
      vertex 13 7.5 9
      vertex 13 0 6
      vertex 13 3 5.19615
    endloop
  endfacet
  facet normal 1 -0 0
    outer loop
      vertex 13 -7.5 9
      vertex 13 0 6
      vertex 13 7.5 9
    endloop
  endfacet
  facet normal 1 0 0
    outer loop
      vertex 13 0 6
      vertex 13 -7.5 9
      vertex 13 -3 5.19615
    endloop
  endfacet
  facet normal 1 0 0
    outer loop
      vertex 13 -7.5 9
      vertex 13 -5 3.19615
      vertex 13 -3 5.19615
    endloop
  endfacet
  facet normal 1 0 0
    outer loop
      vertex 13 -7.5 -3
      vertex 13 -5 3.19615
      vertex 13 -7.5 9
    endloop
  endfacet
  facet normal 1 0 0
    outer loop
      vertex 13 -5 3.19615
      vertex 13 -7.5 -3
      vertex 13 -5 -6
    endloop
  endfacet
  facet normal 1 0 0
    outer loop
      vertex 13 -15 -6
      vertex 13 -7.5 -3
      vertex 13 -15 -3
    endloop
  endfacet
  facet normal 1 0 0
    outer loop
      vertex 13 -7.5 -3
      vertex 13 -15 -6
      vertex 13 -5 -6
    endloop
  endfacet
  facet normal 1 -0 0
    outer loop
      vertex 13 7.5 -3
      vertex 13 15 -6
      vertex 13 15 -3
    endloop
  endfacet
  facet normal 1 0 0
    outer loop
      vertex 13 7.5 -3
      vertex 13 5 -6
      vertex 13 15 -6
    endloop
  endfacet
  facet normal 1 0 0
    outer loop
      vertex 13 5 -6
      vertex 13 7.5 -3
      vertex 13 5 3.19615
    endloop
  endfacet
  facet normal -1 0 0
    outer loop
      vertex -2 15 -6
      vertex -2 7.5 -3
      vertex -2 15 -3
    endloop
  endfacet
  facet normal -1 0 0
    outer loop
      vertex -2 2.59808 1.5
      vertex -2 7.5 -3
      vertex -2 3 0
    endloop
  endfacet
  facet normal -1 0 0
    outer loop
      vertex -2 7.5 -3
      vertex -2 2.59808 -1.5
      vertex -2 3 0
    endloop
  endfacet
  facet normal -1 0 0
    outer loop
      vertex -2 0 -3
      vertex -2 7.5 -3
      vertex -2 15 -6
    endloop
  endfacet
  facet normal -1 0 0
    outer loop
      vertex -2 7.5 -3
      vertex -2 1.5 -2.59808
      vertex -2 2.59808 -1.5
    endloop
  endfacet
  facet normal -1 0 0
    outer loop
      vertex -2 7.5 -3
      vertex -2 0 -3
      vertex -2 1.5 -2.59808
    endloop
  endfacet
  facet normal -1 -0 0
    outer loop
      vertex -2 -2.59808 -1.5
      vertex -2 -7.5 -3
      vertex -2 -3 0
    endloop
  endfacet
  facet normal -1 -0 0
    outer loop
      vertex -2 -1.5 -2.59808
      vertex -2 -7.5 -3
      vertex -2 -2.59808 -1.5
    endloop
  endfacet
  facet normal -1 0 0
    outer loop
      vertex -2 0 -3
      vertex -2 -7.5 -3
      vertex -2 -1.5 -2.59808
    endloop
  endfacet
  facet normal -1 0 0
    outer loop
      vertex -2 -15 -6
      vertex -2 0 -3
      vertex -2 15 -6
    endloop
  endfacet
  facet normal -1 -0 0
    outer loop
      vertex -2 0 -3
      vertex -2 -15 -6
      vertex -2 -7.5 -3
    endloop
  endfacet
  facet normal -1 -0 0
    outer loop
      vertex -2 -7.5 -3
      vertex -2 -15 -6
      vertex -2 -15 -3
    endloop
  endfacet
  facet normal -1 0 0
    outer loop
      vertex -2 7.5 -3
      vertex -2 2.59808 1.5
      vertex -2 7.5 9
    endloop
  endfacet
  facet normal -1 0 0
    outer loop
      vertex -2 1.5 2.59808
      vertex -2 7.5 9
      vertex -2 2.59808 1.5
    endloop
  endfacet
  facet normal -1 0 0
    outer loop
      vertex -2 0 3
      vertex -2 7.5 9
      vertex -2 1.5 2.59808
    endloop
  endfacet
  facet normal -1 0 0
    outer loop
      vertex -2 -7.5 9
      vertex -2 0 3
      vertex -2 -1.5 2.59808
    endloop
  endfacet
  facet normal -1 0 0
    outer loop
      vertex -2 -7.5 -3
      vertex -2 -2.59808 1.5
      vertex -2 -3 0
    endloop
  endfacet
  facet normal -1 0 0
    outer loop
      vertex -2 -7.5 9
      vertex -2 -2.59808 1.5
      vertex -2 -7.5 -3
    endloop
  endfacet
  facet normal -1 0 0
    outer loop
      vertex -2 0 3
      vertex -2 -7.5 9
      vertex -2 7.5 9
    endloop
  endfacet
  facet normal -1 0 0
    outer loop
      vertex -2 -2.59808 1.5
      vertex -2 -7.5 9
      vertex -2 -1.5 2.59808
    endloop
  endfacet
  facet normal 0 -1 0
    outer loop
      vertex 7.05662 -7.5 -3
      vertex 13 -7.5 9
      vertex 7.05662 -7.5 9
    endloop
  endfacet
  facet normal 0 -1 -0
    outer loop
      vertex 13 -7.5 9
      vertex 7.05662 -7.5 -3
      vertex 13 -7.5 -3
    endloop
  endfacet
  facet normal 0 -1 0
    outer loop
      vertex -2 -7.5 -3
      vertex 3.94338 -7.5 9
      vertex -2 -7.5 9
    endloop
  endfacet
  facet normal 0 -1 -0
    outer loop
      vertex 3.94338 -7.5 9
      vertex -2 -7.5 -3
      vertex 3.94338 -7.5 -3
    endloop
  endfacet
  facet normal 0 0 1
    outer loop
      vertex 7 7.40192 9
      vertex 13 7.5 9
      vertex 7.05662 7.5 9
    endloop
  endfacet
  facet normal 0 0 1
    outer loop
      vertex 13 7.5 9
      vertex 7 7.40192 9
      vertex 13 -7.5 9
    endloop
  endfacet
  facet normal -0 0 1
    outer loop
      vertex 7 -7.40192 9
      vertex 13 -7.5 9
      vertex 7 7.40192 9
    endloop
  endfacet
  facet normal 0 0 1
    outer loop
      vertex 13 -7.5 9
      vertex 7 -7.40192 9
      vertex 7.05662 -7.5 9
    endloop
  endfacet
  facet normal -0 0 1
    outer loop
      vertex 4 7.40192 9
      vertex 7 -7.40192 9
      vertex 7 7.40192 9
    endloop
  endfacet
  facet normal 0 0 1
    outer loop
      vertex 4 7.40192 9
      vertex 4 -7.40192 9
      vertex 7 -7.40192 9
    endloop
  endfacet
  facet normal -0 0 1
    outer loop
      vertex -2 7.5 9
      vertex 4 7.40192 9
      vertex 3.94338 7.5 9
    endloop
  endfacet
  facet normal 0 0 1
    outer loop
      vertex 4 7.40192 9
      vertex -2 7.5 9
      vertex 4 -7.40192 9
    endloop
  endfacet
  facet normal 0 0 1
    outer loop
      vertex -2 -7.5 9
      vertex 4 -7.40192 9
      vertex -2 7.5 9
    endloop
  endfacet
  facet normal 0 0 1
    outer loop
      vertex 4 -7.40192 9
      vertex -2 -7.5 9
      vertex 3.94338 -7.5 9
    endloop
  endfacet
  facet normal 0 1 -0
    outer loop
      vertex 13 7.5 -3
      vertex 7.05662 7.5 9
      vertex 13 7.5 9
    endloop
  endfacet
  facet normal 0 1 0
    outer loop
      vertex 7.05662 7.5 9
      vertex 13 7.5 -3
      vertex 7.05662 7.5 -3
    endloop
  endfacet
  facet normal 0 1 -0
    outer loop
      vertex 3.94338 7.5 -3
      vertex -2 7.5 9
      vertex 3.94338 7.5 9
    endloop
  endfacet
  facet normal 0 1 0
    outer loop
      vertex -2 7.5 9
      vertex 3.94338 7.5 -3
      vertex -2 7.5 -3
    endloop
  endfacet
  facet normal 0 1 0
    outer loop
      vertex 13 -5 3.19615
      vertex 13 -5 -6
      vertex 9 -5 3.19615
    endloop
  endfacet
  facet normal 0 1 -0
    outer loop
      vertex 9 -5 3.19615
      vertex -0.5 -5 6
      vertex 9 -5 6
    endloop
  endfacet
  facet normal 0 1 0
    outer loop
      vertex -0.5 -5 -6
      vertex 9 -5 3.19615
      vertex 13 -5 -6
    endloop
  endfacet
  facet normal 0 1 0
    outer loop
      vertex 9 -5 3.19615
      vertex -0.5 -5 -6
      vertex -0.5 -5 6
    endloop
  endfacet
  facet normal 0 -1 0
    outer loop
      vertex -0.5 5 6
      vertex 9 5 3.19615
      vertex 9 5 6
    endloop
  endfacet
  facet normal 0 -1 0
    outer loop
      vertex -0.5 5 -6
      vertex 9 5 3.19615
      vertex -0.5 5 6
    endloop
  endfacet
  facet normal 0 -1 0
    outer loop
      vertex 13 5 -6
      vertex 9 5 3.19615
      vertex -0.5 5 -6
    endloop
  endfacet
  facet normal 0 -1 0
    outer loop
      vertex 9 5 3.19615
      vertex 13 5 -6
      vertex 13 5 3.19615
    endloop
  endfacet
  facet normal 1 0 0
    outer loop
      vertex -0.5 5 6
      vertex -0.5 3 0
      vertex -0.5 5 -6
    endloop
  endfacet
  facet normal 1 0 0
    outer loop
      vertex -0.5 5 6
      vertex -0.5 2.59808 1.5
      vertex -0.5 3 0
    endloop
  endfacet
  facet normal 1 0 0
    outer loop
      vertex -0.5 5 6
      vertex -0.5 1.5 2.59808
      vertex -0.5 2.59808 1.5
    endloop
  endfacet
  facet normal 1 0 0
    outer loop
      vertex -0.5 5 6
      vertex -0.5 0 3
      vertex -0.5 1.5 2.59808
    endloop
  endfacet
  facet normal 1 -0 0
    outer loop
      vertex -0.5 -5 6
      vertex -0.5 0 3
      vertex -0.5 5 6
    endloop
  endfacet
  facet normal 1 0 0
    outer loop
      vertex -0.5 -2.59808 1.5
      vertex -0.5 -5 6
      vertex -0.5 -3 0
    endloop
  endfacet
  facet normal 1 0 0
    outer loop
      vertex -0.5 -1.5 2.59808
      vertex -0.5 -5 6
      vertex -0.5 -2.59808 1.5
    endloop
  endfacet
  facet normal 1 0 0
    outer loop
      vertex -0.5 0 3
      vertex -0.5 -5 6
      vertex -0.5 -1.5 2.59808
    endloop
  endfacet
  facet normal 1 -0 0
    outer loop
      vertex -0.5 2.59808 -1.5
      vertex -0.5 5 -6
      vertex -0.5 3 0
    endloop
  endfacet
  facet normal 1 -0 0
    outer loop
      vertex -0.5 1.5 -2.59808
      vertex -0.5 5 -6
      vertex -0.5 2.59808 -1.5
    endloop
  endfacet
  facet normal 1 -0 0
    outer loop
      vertex -0.5 0 -3
      vertex -0.5 5 -6
      vertex -0.5 1.5 -2.59808
    endloop
  endfacet
  facet normal 1 0 0
    outer loop
      vertex -0.5 -5 -6
      vertex -0.5 0 -3
      vertex -0.5 -1.5 -2.59808
    endloop
  endfacet
  facet normal 1 0 0
    outer loop
      vertex -0.5 -5 -6
      vertex -0.5 -3 0
      vertex -0.5 -5 6
    endloop
  endfacet
  facet normal 1 0 0
    outer loop
      vertex -0.5 0 -3
      vertex -0.5 -5 -6
      vertex -0.5 5 -6
    endloop
  endfacet
  facet normal 1 0 0
    outer loop
      vertex -0.5 -2.59808 -1.5
      vertex -0.5 -5 -6
      vertex -0.5 -1.5 -2.59808
    endloop
  endfacet
  facet normal 1 0 0
    outer loop
      vertex -0.5 -3 0
      vertex -0.5 -5 -6
      vertex -0.5 -2.59808 -1.5
    endloop
  endfacet
  facet normal 0 0.25882 -0.965926
    outer loop
      vertex 9 -3 5.19615
      vertex 13 0 6
      vertex 13 -3 5.19615
    endloop
  endfacet
  facet normal 0 0.25882 -0.965926
    outer loop
      vertex 13 0 6
      vertex 9 -3 5.19615
      vertex 9 0 6
    endloop
  endfacet
  facet normal 0 -0.25882 -0.965926
    outer loop
      vertex 9 0 6
      vertex 13 3 5.19615
      vertex 13 0 6
    endloop
  endfacet
  facet normal -0 -0.25882 -0.965926
    outer loop
      vertex 13 3 5.19615
      vertex 9 0 6
      vertex 9 3 5.19615
    endloop
  endfacet
  facet normal 0 -0.707107 -0.707107
    outer loop
      vertex 9 5 3.19615
      vertex 13 3 5.19615
      vertex 9 3 5.19615
    endloop
  endfacet
  facet normal 0 -0.707107 -0.707107
    outer loop
      vertex 13 3 5.19615
      vertex 9 5 3.19615
      vertex 13 5 3.19615
    endloop
  endfacet
  facet normal 0 0.707107 -0.707107
    outer loop
      vertex 13 -5 3.19615
      vertex 9 -3 5.19615
      vertex 13 -3 5.19615
    endloop
  endfacet
  facet normal 0 0.707107 -0.707107
    outer loop
      vertex 9 -3 5.19615
      vertex 13 -5 3.19615
      vertex 9 -5 3.19615
    endloop
  endfacet
  facet normal -1 0 0
    outer loop
      vertex 9 -3 5.19615
      vertex 9 -5 6
      vertex 9 0 6
    endloop
  endfacet
  facet normal -1 0 0
    outer loop
      vertex 9 -5 6
      vertex 9 -3 5.19615
      vertex 9 -5 3.19615
    endloop
  endfacet
  facet normal -1 0 0
    outer loop
      vertex 9 3 5.19615
      vertex 9 5 6
      vertex 9 5 3.19615
    endloop
  endfacet
  facet normal -1 -0 0
    outer loop
      vertex 9 5 6
      vertex 9 3 5.19615
      vertex 9 0 6
    endloop
  endfacet
  facet normal 0 0 -1
    outer loop
      vertex -0.5 -5 6
      vertex 9 0 6
      vertex 9 -5 6
    endloop
  endfacet
  facet normal 0 0 -1
    outer loop
      vertex -0.5 5 6
      vertex 9 0 6
      vertex -0.5 -5 6
    endloop
  endfacet
  facet normal 0 0 -1
    outer loop
      vertex 9 0 6
      vertex -0.5 5 6
      vertex 9 5 6
    endloop
  endfacet
  facet normal 0 -0.965926 0.258817
    outer loop
      vertex -2 2.59808 -1.5
      vertex -0.5 3 0
      vertex -2 3 0
    endloop
  endfacet
  facet normal 0 -0.965926 0.258817
    outer loop
      vertex -0.5 3 0
      vertex -2 2.59808 -1.5
      vertex -0.5 2.59808 -1.5
    endloop
  endfacet
  facet normal 0 0.707107 -0.707107
    outer loop
      vertex -0.5 -2.59808 1.5
      vertex -2 -1.5 2.59808
      vertex -0.5 -1.5 2.59808
    endloop
  endfacet
  facet normal 0 0.707107 -0.707107
    outer loop
      vertex -2 -1.5 2.59808
      vertex -0.5 -2.59808 1.5
      vertex -2 -2.59808 1.5
    endloop
  endfacet
  facet normal 0 0.965926 -0.258817
    outer loop
      vertex -0.5 -3 0
      vertex -2 -2.59808 1.5
      vertex -0.5 -2.59808 1.5
    endloop
  endfacet
  facet normal 0 0.965926 -0.258817
    outer loop
      vertex -2 -2.59808 1.5
      vertex -0.5 -3 0
      vertex -2 -3 0
    endloop
  endfacet
  facet normal 0 0.258817 -0.965926
    outer loop
      vertex -2 -1.5 2.59808
      vertex -0.5 0 3
      vertex -0.5 -1.5 2.59808
    endloop
  endfacet
  facet normal 0 0.258817 -0.965926
    outer loop
      vertex -0.5 0 3
      vertex -2 -1.5 2.59808
      vertex -2 0 3
    endloop
  endfacet
  facet normal -0 0.258817 0.965926
    outer loop
      vertex -2 0 -3
      vertex -0.5 -1.5 -2.59808
      vertex -0.5 0 -3
    endloop
  endfacet
  facet normal 0 0.258817 0.965926
    outer loop
      vertex -0.5 -1.5 -2.59808
      vertex -2 0 -3
      vertex -2 -1.5 -2.59808
    endloop
  endfacet
  facet normal 0 0.965926 0.258817
    outer loop
      vertex -0.5 -2.59808 -1.5
      vertex -2 -3 0
      vertex -0.5 -3 0
    endloop
  endfacet
  facet normal 0 0.965926 0.258817
    outer loop
      vertex -2 -3 0
      vertex -0.5 -2.59808 -1.5
      vertex -2 -2.59808 -1.5
    endloop
  endfacet
  facet normal 0 -0.707107 -0.707107
    outer loop
      vertex -2 2.59808 1.5
      vertex -0.5 1.5 2.59808
      vertex -2 1.5 2.59808
    endloop
  endfacet
  facet normal 0 -0.707107 -0.707107
    outer loop
      vertex -0.5 1.5 2.59808
      vertex -2 2.59808 1.5
      vertex -0.5 2.59808 1.5
    endloop
  endfacet
  facet normal 0 -0.258817 -0.965926
    outer loop
      vertex -2 0 3
      vertex -0.5 1.5 2.59808
      vertex -0.5 0 3
    endloop
  endfacet
  facet normal -0 -0.258817 -0.965926
    outer loop
      vertex -0.5 1.5 2.59808
      vertex -2 0 3
      vertex -2 1.5 2.59808
    endloop
  endfacet
  facet normal 0 -0.965926 -0.258817
    outer loop
      vertex -2 3 0
      vertex -0.5 2.59808 1.5
      vertex -2 2.59808 1.5
    endloop
  endfacet
  facet normal 0 -0.965926 -0.258817
    outer loop
      vertex -0.5 2.59808 1.5
      vertex -2 3 0
      vertex -0.5 3 0
    endloop
  endfacet
  facet normal 0 0.707107 0.707107
    outer loop
      vertex -0.5 -1.5 -2.59808
      vertex -2 -2.59808 -1.5
      vertex -0.5 -2.59808 -1.5
    endloop
  endfacet
  facet normal 0 0.707107 0.707107
    outer loop
      vertex -2 -2.59808 -1.5
      vertex -0.5 -1.5 -2.59808
      vertex -2 -1.5 -2.59808
    endloop
  endfacet
  facet normal 0 -0.707107 0.707107
    outer loop
      vertex -2 1.5 -2.59808
      vertex -0.5 2.59808 -1.5
      vertex -2 2.59808 -1.5
    endloop
  endfacet
  facet normal 0 -0.707107 0.707107
    outer loop
      vertex -0.5 2.59808 -1.5
      vertex -2 1.5 -2.59808
      vertex -0.5 1.5 -2.59808
    endloop
  endfacet
  facet normal 0 -0.258817 0.965926
    outer loop
      vertex -2 1.5 -2.59808
      vertex -0.5 0 -3
      vertex -0.5 1.5 -2.59808
    endloop
  endfacet
  facet normal 0 -0.258817 0.965926
    outer loop
      vertex -0.5 0 -3
      vertex -2 1.5 -2.59808
      vertex -2 0 -3
    endloop
  endfacet
  facet normal 0.258865 -0.965914 0
    outer loop
      vertex 4.75 11.299 -6
      vertex 5.5 11.5 -4
      vertex 4.75 11.299 -4
    endloop
  endfacet
  facet normal 0.258865 -0.965914 0
    outer loop
      vertex 5.5 11.5 -4
      vertex 4.75 11.299 -6
      vertex 5.5 11.5 -6
    endloop
  endfacet
  facet normal -0.707107 0.707107 0
    outer loop
      vertex 6.25 8.70096 -6
      vertex 6.79904 9.25 -4
      vertex 6.79904 9.25 -6
    endloop
  endfacet
  facet normal -0.707107 0.707107 0
    outer loop
      vertex 6.79904 9.25 -4
      vertex 6.25 8.70096 -6
      vertex 6.25 8.70096 -4
    endloop
  endfacet
  facet normal -0.258817 0.965926 0
    outer loop
      vertex 6.25 8.70096 -6
      vertex 5.5 8.5 -4
      vertex 6.25 8.70096 -4
    endloop
  endfacet
  facet normal -0.258817 0.965926 0
    outer loop
      vertex 5.5 8.5 -4
      vertex 6.25 8.70096 -6
      vertex 5.5 8.5 -6
    endloop
  endfacet
  facet normal -0.965926 0.258817 0
    outer loop
      vertex 6.79904 9.25 -6
      vertex 7 10 -4
      vertex 7 10 -6
    endloop
  endfacet
  facet normal -0.965926 0.258817 0
    outer loop
      vertex 7 10 -4
      vertex 6.79904 9.25 -6
      vertex 6.79904 9.25 -4
    endloop
  endfacet
  facet normal 0.965926 0.258817 0
    outer loop
      vertex 4.20096 9.25 -4
      vertex 4 10 -6
      vertex 4 10 -4
    endloop
  endfacet
  facet normal 0.965926 0.258817 0
    outer loop
      vertex 4 10 -6
      vertex 4.20096 9.25 -4
      vertex 4.20096 9.25 -6
    endloop
  endfacet
  facet normal 0.258817 0.965926 -0
    outer loop
      vertex 5.5 8.5 -6
      vertex 4.75 8.70096 -4
      vertex 5.5 8.5 -4
    endloop
  endfacet
  facet normal 0.258817 0.965926 0
    outer loop
      vertex 4.75 8.70096 -4
      vertex 5.5 8.5 -6
      vertex 4.75 8.70096 -6
    endloop
  endfacet
  facet normal -0.707081 -0.707133 0
    outer loop
      vertex 6.79904 10.75 -6
      vertex 6.25 11.299 -4
      vertex 6.25 11.299 -6
    endloop
  endfacet
  facet normal -0.707081 -0.707133 0
    outer loop
      vertex 6.25 11.299 -4
      vertex 6.79904 10.75 -6
      vertex 6.79904 10.75 -4
    endloop
  endfacet
  facet normal -0.965926 -0.258817 0
    outer loop
      vertex 7 10 -6
      vertex 6.79904 10.75 -4
      vertex 6.79904 10.75 -6
    endloop
  endfacet
  facet normal -0.965926 -0.258817 0
    outer loop
      vertex 6.79904 10.75 -4
      vertex 7 10 -6
      vertex 7 10 -4
    endloop
  endfacet
  facet normal -0.258865 -0.965914 0
    outer loop
      vertex 5.5 11.5 -6
      vertex 6.25 11.299 -4
      vertex 5.5 11.5 -4
    endloop
  endfacet
  facet normal -0.258865 -0.965914 -0
    outer loop
      vertex 6.25 11.299 -4
      vertex 5.5 11.5 -6
      vertex 6.25 11.299 -6
    endloop
  endfacet
  facet normal 0.707107 0.707107 0
    outer loop
      vertex 4.75 8.70096 -4
      vertex 4.20096 9.25 -6
      vertex 4.20096 9.25 -4
    endloop
  endfacet
  facet normal 0.707107 0.707107 0
    outer loop
      vertex 4.20096 9.25 -6
      vertex 4.75 8.70096 -4
      vertex 4.75 8.70096 -6
    endloop
  endfacet
  facet normal 0.707081 -0.707133 0
    outer loop
      vertex 4.20096 10.75 -4
      vertex 4.75 11.299 -6
      vertex 4.75 11.299 -4
    endloop
  endfacet
  facet normal 0.707081 -0.707133 0
    outer loop
      vertex 4.75 11.299 -6
      vertex 4.20096 10.75 -4
      vertex 4.20096 10.75 -6
    endloop
  endfacet
  facet normal 0.965926 -0.258817 0
    outer loop
      vertex 4 10 -4
      vertex 4.20096 10.75 -6
      vertex 4.20096 10.75 -4
    endloop
  endfacet
  facet normal 0.965926 -0.258817 0
    outer loop
      vertex 4.20096 10.75 -6
      vertex 4 10 -4
      vertex 4 10 -6
    endloop
  endfacet
  facet normal 0 1 -0
    outer loop
      vertex 7 7.40192 -4
      vertex 4 7.40192 9
      vertex 7 7.40192 9
    endloop
  endfacet
  facet normal 0 1 0
    outer loop
      vertex 4 7.40192 9
      vertex 7 7.40192 -4
      vertex 4 7.40192 -4
    endloop
  endfacet
  facet normal 0 -1 0
    outer loop
      vertex 4 12.5981 -4
      vertex 7 12.5981 -3
      vertex 4 12.5981 -3
    endloop
  endfacet
  facet normal 0 -1 -0
    outer loop
      vertex 7 12.5981 -3
      vertex 4 12.5981 -4
      vertex 7 12.5981 -4
    endloop
  endfacet
  facet normal -0.866027 -0.499997 0
    outer loop
      vertex 8.5 10 -4
      vertex 7 12.5981 -3
      vertex 7 12.5981 -4
    endloop
  endfacet
  facet normal -0.866027 -0.499997 0
    outer loop
      vertex 7 12.5981 -3
      vertex 8.5 10 -4
      vertex 8.5 10 -3
    endloop
  endfacet
  facet normal 0.866027 -0.499997 0
    outer loop
      vertex 2.5 10 -3
      vertex 4 12.5981 -4
      vertex 4 12.5981 -3
    endloop
  endfacet
  facet normal 0.866027 -0.499997 0
    outer loop
      vertex 4 12.5981 -4
      vertex 2.5 10 -3
      vertex 2.5 10 -4
    endloop
  endfacet
  facet normal 0.86605 0.499957 0
    outer loop
      vertex 3.94338 7.5 9
      vertex 4 7.40192 9
      vertex 3.94338 7.5 -3
    endloop
  endfacet
  facet normal 0.866025 0.500001 0
    outer loop
      vertex 3.94338 7.5 -3
      vertex 2.5 10 -4
      vertex 2.5 10 -3
    endloop
  endfacet
  facet normal 0.866026 0.499999 -5.57013e-06
    outer loop
      vertex 3.94338 7.5 -3
      vertex 4 7.40192 -4
      vertex 2.5 10 -4
    endloop
  endfacet
  facet normal 0.86605 0.499957 -0
    outer loop
      vertex 4 7.40192 -4
      vertex 3.94338 7.5 -3
      vertex 4 7.40192 9
    endloop
  endfacet
  facet normal 0 0 1
    outer loop
      vertex 8.5 10 -4
      vertex 6.79904 10.75 -4
      vertex 7 10 -4
    endloop
  endfacet
  facet normal 0 0 1
    outer loop
      vertex 7 12.5981 -4
      vertex 6.25 11.299 -4
      vertex 6.79904 10.75 -4
    endloop
  endfacet
  facet normal 0 0 1
    outer loop
      vertex 7 12.5981 -4
      vertex 5.5 11.5 -4
      vertex 6.25 11.299 -4
    endloop
  endfacet
  facet normal -0 0 1
    outer loop
      vertex 4 12.5981 -4
      vertex 5.5 11.5 -4
      vertex 7 12.5981 -4
    endloop
  endfacet
  facet normal 0 0 1
    outer loop
      vertex 5.5 11.5 -4
      vertex 4 12.5981 -4
      vertex 4.75 11.299 -4
    endloop
  endfacet
  facet normal 0 0 1
    outer loop
      vertex 4 12.5981 -4
      vertex 4.20096 10.75 -4
      vertex 4.75 11.299 -4
    endloop
  endfacet
  facet normal 0 0 1
    outer loop
      vertex 2.5 10 -4
      vertex 4.20096 10.75 -4
      vertex 4 12.5981 -4
    endloop
  endfacet
  facet normal 0 0 1
    outer loop
      vertex 4.20096 10.75 -4
      vertex 2.5 10 -4
      vertex 4 10 -4
    endloop
  endfacet
  facet normal 0 0 1
    outer loop
      vertex 4 10 -4
      vertex 2.5 10 -4
      vertex 4 7.40192 -4
    endloop
  endfacet
  facet normal -0 0 1
    outer loop
      vertex 6.79904 10.75 -4
      vertex 8.5 10 -4
      vertex 7 12.5981 -4
    endloop
  endfacet
  facet normal 0 0 1
    outer loop
      vertex 6.79904 9.25 -4
      vertex 8.5 10 -4
      vertex 7 10 -4
    endloop
  endfacet
  facet normal 0 0 1
    outer loop
      vertex 8.5 10 -4
      vertex 6.79904 9.25 -4
      vertex 7 7.40192 -4
    endloop
  endfacet
  facet normal -0 0 1
    outer loop
      vertex 6.25 8.70096 -4
      vertex 7 7.40192 -4
      vertex 6.79904 9.25 -4
    endloop
  endfacet
  facet normal -0 0 1
    outer loop
      vertex 5.5 8.5 -4
      vertex 7 7.40192 -4
      vertex 6.25 8.70096 -4
    endloop
  endfacet
  facet normal 0 0 1
    outer loop
      vertex 4 7.40192 -4
      vertex 5.5 8.5 -4
      vertex 4.75 8.70096 -4
    endloop
  endfacet
  facet normal 0 0 1
    outer loop
      vertex 5.5 8.5 -4
      vertex 4 7.40192 -4
      vertex 7 7.40192 -4
    endloop
  endfacet
  facet normal 0 0 1
    outer loop
      vertex 4.20096 9.25 -4
      vertex 4 7.40192 -4
      vertex 4.75 8.70096 -4
    endloop
  endfacet
  facet normal 0 0 1
    outer loop
      vertex 4 7.40192 -4
      vertex 4.20096 9.25 -4
      vertex 4 10 -4
    endloop
  endfacet
  facet normal -0.866025 0.500001 0
    outer loop
      vertex 8.5 10 -4
      vertex 7.05662 7.5 -3
      vertex 8.5 10 -3
    endloop
  endfacet
  facet normal -0.866026 0.499999 -5.57013e-06
    outer loop
      vertex 7 7.40192 -4
      vertex 7.05662 7.5 -3
      vertex 8.5 10 -4
    endloop
  endfacet
  facet normal -0.86605 0.499957 0
    outer loop
      vertex 7 7.40192 9
      vertex 7.05662 7.5 -3
      vertex 7 7.40192 -4
    endloop
  endfacet
  facet normal -0.86605 0.499957 0
    outer loop
      vertex 7.05662 7.5 -3
      vertex 7 7.40192 9
      vertex 7.05662 7.5 9
    endloop
  endfacet
  facet normal 0.258817 -0.965926 0
    outer loop
      vertex 4.75 -8.70096 -6
      vertex 5.5 -8.5 -4
      vertex 4.75 -8.70096 -4
    endloop
  endfacet
  facet normal 0.258817 -0.965926 0
    outer loop
      vertex 5.5 -8.5 -4
      vertex 4.75 -8.70096 -6
      vertex 5.5 -8.5 -6
    endloop
  endfacet
  facet normal -0.707081 0.707133 0
    outer loop
      vertex 6.25 -11.299 -6
      vertex 6.79904 -10.75 -4
      vertex 6.79904 -10.75 -6
    endloop
  endfacet
  facet normal -0.707081 0.707133 0
    outer loop
      vertex 6.79904 -10.75 -4
      vertex 6.25 -11.299 -6
      vertex 6.25 -11.299 -4
    endloop
  endfacet
  facet normal -0.258865 0.965914 0
    outer loop
      vertex 6.25 -11.299 -6
      vertex 5.5 -11.5 -4
      vertex 6.25 -11.299 -4
    endloop
  endfacet
  facet normal -0.258865 0.965914 0
    outer loop
      vertex 5.5 -11.5 -4
      vertex 6.25 -11.299 -6
      vertex 5.5 -11.5 -6
    endloop
  endfacet
  facet normal -0.965926 0.258817 0
    outer loop
      vertex 6.79904 -10.75 -6
      vertex 7 -10 -4
      vertex 7 -10 -6
    endloop
  endfacet
  facet normal -0.965926 0.258817 0
    outer loop
      vertex 7 -10 -4
      vertex 6.79904 -10.75 -6
      vertex 6.79904 -10.75 -4
    endloop
  endfacet
  facet normal 0.965926 0.258817 0
    outer loop
      vertex 4.20096 -10.75 -4
      vertex 4 -10 -6
      vertex 4 -10 -4
    endloop
  endfacet
  facet normal 0.965926 0.258817 0
    outer loop
      vertex 4 -10 -6
      vertex 4.20096 -10.75 -4
      vertex 4.20096 -10.75 -6
    endloop
  endfacet
  facet normal 0.258865 0.965914 -0
    outer loop
      vertex 5.5 -11.5 -6
      vertex 4.75 -11.299 -4
      vertex 5.5 -11.5 -4
    endloop
  endfacet
  facet normal 0.258865 0.965914 0
    outer loop
      vertex 4.75 -11.299 -4
      vertex 5.5 -11.5 -6
      vertex 4.75 -11.299 -6
    endloop
  endfacet
  facet normal -0.707107 -0.707107 0
    outer loop
      vertex 6.79904 -9.25 -6
      vertex 6.25 -8.70096 -4
      vertex 6.25 -8.70096 -6
    endloop
  endfacet
  facet normal -0.707107 -0.707107 0
    outer loop
      vertex 6.25 -8.70096 -4
      vertex 6.79904 -9.25 -6
      vertex 6.79904 -9.25 -4
    endloop
  endfacet
  facet normal -0.965926 -0.258817 0
    outer loop
      vertex 7 -10 -6
      vertex 6.79904 -9.25 -4
      vertex 6.79904 -9.25 -6
    endloop
  endfacet
  facet normal -0.965926 -0.258817 0
    outer loop
      vertex 6.79904 -9.25 -4
      vertex 7 -10 -6
      vertex 7 -10 -4
    endloop
  endfacet
  facet normal -0.258817 -0.965926 0
    outer loop
      vertex 5.5 -8.5 -6
      vertex 6.25 -8.70096 -4
      vertex 5.5 -8.5 -4
    endloop
  endfacet
  facet normal -0.258817 -0.965926 -0
    outer loop
      vertex 6.25 -8.70096 -4
      vertex 5.5 -8.5 -6
      vertex 6.25 -8.70096 -6
    endloop
  endfacet
  facet normal 0.707081 0.707133 0
    outer loop
      vertex 4.75 -11.299 -4
      vertex 4.20096 -10.75 -6
      vertex 4.20096 -10.75 -4
    endloop
  endfacet
  facet normal 0.707081 0.707133 0
    outer loop
      vertex 4.20096 -10.75 -6
      vertex 4.75 -11.299 -4
      vertex 4.75 -11.299 -6
    endloop
  endfacet
  facet normal 0.707107 -0.707107 0
    outer loop
      vertex 4.20096 -9.25 -4
      vertex 4.75 -8.70096 -6
      vertex 4.75 -8.70096 -4
    endloop
  endfacet
  facet normal 0.707107 -0.707107 0
    outer loop
      vertex 4.75 -8.70096 -6
      vertex 4.20096 -9.25 -4
      vertex 4.20096 -9.25 -6
    endloop
  endfacet
  facet normal 0.965926 -0.258817 0
    outer loop
      vertex 4 -10 -4
      vertex 4.20096 -9.25 -6
      vertex 4.20096 -9.25 -4
    endloop
  endfacet
  facet normal 0.965926 -0.258817 0
    outer loop
      vertex 4.20096 -9.25 -6
      vertex 4 -10 -4
      vertex 4 -10 -6
    endloop
  endfacet
  facet normal 0 1 -0
    outer loop
      vertex 7 -12.5981 -4
      vertex 4 -12.5981 -3
      vertex 7 -12.5981 -3
    endloop
  endfacet
  facet normal 0 1 0
    outer loop
      vertex 4 -12.5981 -3
      vertex 7 -12.5981 -4
      vertex 4 -12.5981 -4
    endloop
  endfacet
  facet normal 0 -1 0
    outer loop
      vertex 4 -7.40192 -4
      vertex 7 -7.40192 9
      vertex 4 -7.40192 9
    endloop
  endfacet
  facet normal 0 -1 -0
    outer loop
      vertex 7 -7.40192 9
      vertex 4 -7.40192 -4
      vertex 7 -7.40192 -4
    endloop
  endfacet
  facet normal -0.86605 -0.499957 0
    outer loop
      vertex 7 -7.40192 -4
      vertex 7.05662 -7.5 -3
      vertex 7 -7.40192 9
    endloop
  endfacet
  facet normal -0.866026 -0.499999 -5.57013e-06
    outer loop
      vertex 8.5 -10 -4
      vertex 7.05662 -7.5 -3
      vertex 7 -7.40192 -4
    endloop
  endfacet
  facet normal -0.866025 -0.500001 0
    outer loop
      vertex 7.05662 -7.5 -3
      vertex 8.5 -10 -4
      vertex 8.5 -10 -3
    endloop
  endfacet
  facet normal -0.86605 -0.499957 0
    outer loop
      vertex 7 -7.40192 9
      vertex 7.05662 -7.5 -3
      vertex 7.05662 -7.5 9
    endloop
  endfacet
  facet normal 0.86605 -0.499957 0
    outer loop
      vertex 3.94338 -7.5 -3
      vertex 4 -7.40192 9
      vertex 3.94338 -7.5 9
    endloop
  endfacet
  facet normal 0.86605 -0.499957 0
    outer loop
      vertex 4 -7.40192 9
      vertex 3.94338 -7.5 -3
      vertex 4 -7.40192 -4
    endloop
  endfacet
  facet normal 0.866025 -0.500001 0
    outer loop
      vertex 2.5 -10 -4
      vertex 3.94338 -7.5 -3
      vertex 2.5 -10 -3
    endloop
  endfacet
  facet normal 0.866026 -0.499999 -5.57013e-06
    outer loop
      vertex 3.94338 -7.5 -3
      vertex 2.5 -10 -4
      vertex 4 -7.40192 -4
    endloop
  endfacet
  facet normal 0.866027 0.499997 0
    outer loop
      vertex 4 -12.5981 -3
      vertex 2.5 -10 -4
      vertex 2.5 -10 -3
    endloop
  endfacet
  facet normal 0.866027 0.499997 0
    outer loop
      vertex 2.5 -10 -4
      vertex 4 -12.5981 -3
      vertex 4 -12.5981 -4
    endloop
  endfacet
  facet normal 0 0 1
    outer loop
      vertex 8.5 -10 -4
      vertex 6.79904 -9.25 -4
      vertex 7 -10 -4
    endloop
  endfacet
  facet normal 0 0 1
    outer loop
      vertex 7 -7.40192 -4
      vertex 6.25 -8.70096 -4
      vertex 6.79904 -9.25 -4
    endloop
  endfacet
  facet normal 0 0 1
    outer loop
      vertex 7 -7.40192 -4
      vertex 5.5 -8.5 -4
      vertex 6.25 -8.70096 -4
    endloop
  endfacet
  facet normal -0 0 1
    outer loop
      vertex 4 -7.40192 -4
      vertex 5.5 -8.5 -4
      vertex 7 -7.40192 -4
    endloop
  endfacet
  facet normal 0 0 1
    outer loop
      vertex 5.5 -8.5 -4
      vertex 4 -7.40192 -4
      vertex 4.75 -8.70096 -4
    endloop
  endfacet
  facet normal 0 0 1
    outer loop
      vertex 4 -7.40192 -4
      vertex 4.20096 -9.25 -4
      vertex 4.75 -8.70096 -4
    endloop
  endfacet
  facet normal 0 0 1
    outer loop
      vertex 2.5 -10 -4
      vertex 4.20096 -9.25 -4
      vertex 4 -7.40192 -4
    endloop
  endfacet
  facet normal 0 0 1
    outer loop
      vertex 4.20096 -9.25 -4
      vertex 2.5 -10 -4
      vertex 4 -10 -4
    endloop
  endfacet
  facet normal 0 0 1
    outer loop
      vertex 4 -10 -4
      vertex 2.5 -10 -4
      vertex 4 -12.5981 -4
    endloop
  endfacet
  facet normal -0 0 1
    outer loop
      vertex 6.79904 -9.25 -4
      vertex 8.5 -10 -4
      vertex 7 -7.40192 -4
    endloop
  endfacet
  facet normal 0 0 1
    outer loop
      vertex 6.79904 -10.75 -4
      vertex 8.5 -10 -4
      vertex 7 -10 -4
    endloop
  endfacet
  facet normal 0 0 1
    outer loop
      vertex 8.5 -10 -4
      vertex 6.79904 -10.75 -4
      vertex 7 -12.5981 -4
    endloop
  endfacet
  facet normal -0 0 1
    outer loop
      vertex 6.25 -11.299 -4
      vertex 7 -12.5981 -4
      vertex 6.79904 -10.75 -4
    endloop
  endfacet
  facet normal -0 0 1
    outer loop
      vertex 5.5 -11.5 -4
      vertex 7 -12.5981 -4
      vertex 6.25 -11.299 -4
    endloop
  endfacet
  facet normal 0 0 1
    outer loop
      vertex 4 -12.5981 -4
      vertex 5.5 -11.5 -4
      vertex 4.75 -11.299 -4
    endloop
  endfacet
  facet normal 0 0 1
    outer loop
      vertex 5.5 -11.5 -4
      vertex 4 -12.5981 -4
      vertex 7 -12.5981 -4
    endloop
  endfacet
  facet normal 0 0 1
    outer loop
      vertex 4.20096 -10.75 -4
      vertex 4 -12.5981 -4
      vertex 4.75 -11.299 -4
    endloop
  endfacet
  facet normal 0 0 1
    outer loop
      vertex 4 -12.5981 -4
      vertex 4.20096 -10.75 -4
      vertex 4 -10 -4
    endloop
  endfacet
  facet normal -0.866027 0.499997 0
    outer loop
      vertex 7 -12.5981 -4
      vertex 8.5 -10 -3
      vertex 8.5 -10 -4
    endloop
  endfacet
  facet normal -0.866027 0.499997 0
    outer loop
      vertex 8.5 -10 -3
      vertex 7 -12.5981 -4
      vertex 7 -12.5981 -3
    endloop
  endfacet
endsolid OpenSCAD_Model
