solid OpenSCAD_Model
  facet normal 0 -1 0
    outer loop
      vertex -1.75 -3.03109 0
      vertex 1.75 -3.03109 12
      vertex -1.75 -3.03109 12
    endloop
  endfacet
  facet normal 0 -1 -0
    outer loop
      vertex 1.75 -3.03109 12
      vertex -1.75 -3.03109 0
      vertex 1.75 -3.03109 0
    endloop
  endfacet
  facet normal 0.866025 -0.5 0
    outer loop
      vertex 1.75 -3.03109 12
      vertex 3.5 0 0
      vertex 3.5 0 12
    endloop
  endfacet
  facet normal 0.866025 -0.5 0
    outer loop
      vertex 3.5 0 0
      vertex 1.75 -3.03109 12
      vertex 1.75 -3.03109 0
    endloop
  endfacet
  facet normal 0 1 -0
    outer loop
      vertex 1.75 3.03109 0
      vertex -1.75 3.03109 12
      vertex 1.75 3.03109 12
    endloop
  endfacet
  facet normal 0 1 0
    outer loop
      vertex -1.75 3.03109 12
      vertex 1.75 3.03109 0
      vertex -1.75 3.03109 0
    endloop
  endfacet
  facet normal 0.866025 0.5 0
    outer loop
      vertex 3.5 0 12
      vertex 1.75 3.03109 0
      vertex 1.75 3.03109 12
    endloop
  endfacet
  facet normal 0.866025 0.5 0
    outer loop
      vertex 1.75 3.03109 0
      vertex 3.5 0 12
      vertex 3.5 0 0
    endloop
  endfacet
  facet normal -0.866025 0.5 0
    outer loop
      vertex -3.5 0 0
      vertex -1.75 3.03109 12
      vertex -1.75 3.03109 0
    endloop
  endfacet
  facet normal -0.866025 0.5 0
    outer loop
      vertex -1.75 3.03109 12
      vertex -3.5 0 0
      vertex -3.5 0 12
    endloop
  endfacet
  facet normal -0.866025 -0.5 0
    outer loop
      vertex -1.75 -3.03109 0
      vertex -3.5 0 12
      vertex -3.5 0 0
    endloop
  endfacet
  facet normal -0.866025 -0.5 0
    outer loop
      vertex -3.5 0 12
      vertex -1.75 -3.03109 0
      vertex -1.75 -3.03109 12
    endloop
  endfacet
  facet normal -0 0 1
    outer loop
      vertex 0.974278 0.5625 12
      vertex 3.5 0 12
      vertex 1.75 3.03109 12
    endloop
  endfacet
  facet normal 0 0 1
    outer loop
      vertex 0.974278 -0.5625 12
      vertex 3.5 0 12
      vertex 1.125 0 12
    endloop
  endfacet
  facet normal 0 0 1
    outer loop
      vertex 3.5 0 12
      vertex 0.974278 0.5625 12
      vertex 1.125 0 12
    endloop
  endfacet
  facet normal 0 0 1
    outer loop
      vertex 1.75 3.03109 12
      vertex 0.5625 0.974278 12
      vertex 0.974278 0.5625 12
    endloop
  endfacet
  facet normal 0 0 1
    outer loop
      vertex 1.75 3.03109 12
      vertex 0 1.125 12
      vertex 0.5625 0.974278 12
    endloop
  endfacet
  facet normal -0 0 1
    outer loop
      vertex -1.75 3.03109 12
      vertex 0 1.125 12
      vertex 1.75 3.03109 12
    endloop
  endfacet
  facet normal 0 0 1
    outer loop
      vertex -3.5 0 12
      vertex -0.974278 0.5625 12
      vertex -1.75 3.03109 12
    endloop
  endfacet
  facet normal 0 0 1
    outer loop
      vertex -0.5625 0.974278 12
      vertex -1.75 3.03109 12
      vertex -0.974278 0.5625 12
    endloop
  endfacet
  facet normal 0 0 1
    outer loop
      vertex 0 1.125 12
      vertex -1.75 3.03109 12
      vertex -0.5625 0.974278 12
    endloop
  endfacet
  facet normal 0 0 1
    outer loop
      vertex 3.5 0 12
      vertex 0.974278 -0.5625 12
      vertex 1.75 -3.03109 12
    endloop
  endfacet
  facet normal -0 0 1
    outer loop
      vertex 0.5625 -0.974278 12
      vertex 1.75 -3.03109 12
      vertex 0.974278 -0.5625 12
    endloop
  endfacet
  facet normal -0 0 1
    outer loop
      vertex 0 -1.125 12
      vertex 1.75 -3.03109 12
      vertex 0.5625 -0.974278 12
    endloop
  endfacet
  facet normal 0 0 1
    outer loop
      vertex -1.75 -3.03109 12
      vertex 0 -1.125 12
      vertex -0.5625 -0.974278 12
    endloop
  endfacet
  facet normal 0 0 1
    outer loop
      vertex 0 -1.125 12
      vertex -1.75 -3.03109 12
      vertex 1.75 -3.03109 12
    endloop
  endfacet
  facet normal 0 0 1
    outer loop
      vertex -0.974278 -0.5625 12
      vertex -1.75 -3.03109 12
      vertex -0.5625 -0.974278 12
    endloop
  endfacet
  facet normal -0 0 1
    outer loop
      vertex -3.5 0 12
      vertex -0.974278 -0.5625 12
      vertex -1.125 0 12
    endloop
  endfacet
  facet normal 0 0 1
    outer loop
      vertex -0.974278 0.5625 12
      vertex -3.5 0 12
      vertex -1.125 0 12
    endloop
  endfacet
  facet normal 0 0 1
    outer loop
      vertex -0.974278 -0.5625 12
      vertex -3.5 0 12
      vertex -1.75 -3.03109 12
    endloop
  endfacet
  facet normal 0 0 -1
    outer loop
      vertex 0.974278 -0.5625 0
      vertex 3.5 0 0
      vertex 1.75 -3.03109 0
    endloop
  endfacet
  facet normal 0 0 -1
    outer loop
      vertex 0.974278 0.5625 0
      vertex 3.5 0 0
      vertex 1.125 0 0
    endloop
  endfacet
  facet normal -0 0 -1
    outer loop
      vertex 3.5 0 0
      vertex 0.974278 -0.5625 0
      vertex 1.125 0 0
    endloop
  endfacet
  facet normal 0 0 -1
    outer loop
      vertex 1.75 -3.03109 0
      vertex 0.5625 -0.974278 0
      vertex 0.974278 -0.5625 0
    endloop
  endfacet
  facet normal 0 0 -1
    outer loop
      vertex 1.75 -3.03109 0
      vertex 0 -1.125 0
      vertex 0.5625 -0.974278 0
    endloop
  endfacet
  facet normal 0 0 -1
    outer loop
      vertex -1.75 -3.03109 0
      vertex 0 -1.125 0
      vertex 1.75 -3.03109 0
    endloop
  endfacet
  facet normal 0 0 -1
    outer loop
      vertex -3.5 0 0
      vertex -0.974278 -0.5625 0
      vertex -1.75 -3.03109 0
    endloop
  endfacet
  facet normal -0 0 -1
    outer loop
      vertex -0.5625 -0.974278 0
      vertex -1.75 -3.03109 0
      vertex -0.974278 -0.5625 0
    endloop
  endfacet
  facet normal -0 0 -1
    outer loop
      vertex 0 -1.125 0
      vertex -1.75 -3.03109 0
      vertex -0.5625 -0.974278 0
    endloop
  endfacet
  facet normal 0 0 -1
    outer loop
      vertex 3.5 0 0
      vertex 0.974278 0.5625 0
      vertex 1.75 3.03109 0
    endloop
  endfacet
  facet normal 0 0 -1
    outer loop
      vertex 0.5625 0.974278 0
      vertex 1.75 3.03109 0
      vertex 0.974278 0.5625 0
    endloop
  endfacet
  facet normal 0 0 -1
    outer loop
      vertex 0 1.125 0
      vertex 1.75 3.03109 0
      vertex 0.5625 0.974278 0
    endloop
  endfacet
  facet normal 0 0 -1
    outer loop
      vertex -1.75 3.03109 0
      vertex 0 1.125 0
      vertex -0.5625 0.974278 0
    endloop
  endfacet
  facet normal 0 0 -1
    outer loop
      vertex 0 1.125 0
      vertex -1.75 3.03109 0
      vertex 1.75 3.03109 0
    endloop
  endfacet
  facet normal 0 0 -1
    outer loop
      vertex -0.974278 0.5625 0
      vertex -1.75 3.03109 0
      vertex -0.5625 0.974278 0
    endloop
  endfacet
  facet normal 0 0 -1
    outer loop
      vertex -3.5 0 0
      vertex -0.974278 0.5625 0
      vertex -1.125 0 0
    endloop
  endfacet
  facet normal 0 0 -1
    outer loop
      vertex -0.974278 -0.5625 0
      vertex -3.5 0 0
      vertex -1.125 0 0
    endloop
  endfacet
  facet normal -0 0 -1
    outer loop
      vertex -0.974278 0.5625 0
      vertex -3.5 0 0
      vertex -1.75 3.03109 0
    endloop
  endfacet
  facet normal -0.707107 -0.707107 0
    outer loop
      vertex 0.974278 0.5625 0
      vertex 0.5625 0.974278 12
      vertex 0.5625 0.974278 0
    endloop
  endfacet
  facet normal -0.707107 -0.707107 0
    outer loop
      vertex 0.5625 0.974278 12
      vertex 0.974278 0.5625 0
      vertex 0.974278 0.5625 12
    endloop
  endfacet
  facet normal -0.965926 -0.25882 0
    outer loop
      vertex 1.125 0 0
      vertex 0.974278 0.5625 12
      vertex 0.974278 0.5625 0
    endloop
  endfacet
  facet normal -0.965926 -0.25882 0
    outer loop
      vertex 0.974278 0.5625 12
      vertex 1.125 0 0
      vertex 1.125 0 12
    endloop
  endfacet
  facet normal -0.25882 -0.965926 0
    outer loop
      vertex 0 1.125 0
      vertex 0.5625 0.974278 12
      vertex 0 1.125 12
    endloop
  endfacet
  facet normal -0.25882 -0.965926 -0
    outer loop
      vertex 0.5625 0.974278 12
      vertex 0 1.125 0
      vertex 0.5625 0.974278 0
    endloop
  endfacet
  facet normal 0.965926 0.25882 0
    outer loop
      vertex -0.974278 -0.5625 12
      vertex -1.125 0 0
      vertex -1.125 0 12
    endloop
  endfacet
  facet normal 0.965926 0.25882 0
    outer loop
      vertex -1.125 0 0
      vertex -0.974278 -0.5625 12
      vertex -0.974278 -0.5625 0
    endloop
  endfacet
  facet normal -0.965926 0.25882 0
    outer loop
      vertex 0.974278 -0.5625 0
      vertex 1.125 0 12
      vertex 1.125 0 0
    endloop
  endfacet
  facet normal -0.965926 0.25882 0
    outer loop
      vertex 1.125 0 12
      vertex 0.974278 -0.5625 0
      vertex 0.974278 -0.5625 12
    endloop
  endfacet
  facet normal 0.25882 -0.965926 0
    outer loop
      vertex -0.5625 0.974278 0
      vertex 0 1.125 12
      vertex -0.5625 0.974278 12
    endloop
  endfacet
  facet normal 0.25882 -0.965926 0
    outer loop
      vertex 0 1.125 12
      vertex -0.5625 0.974278 0
      vertex 0 1.125 0
    endloop
  endfacet
  facet normal -0.25882 0.965926 0
    outer loop
      vertex 0.5625 -0.974278 0
      vertex 0 -1.125 12
      vertex 0.5625 -0.974278 12
    endloop
  endfacet
  facet normal -0.25882 0.965926 0
    outer loop
      vertex 0 -1.125 12
      vertex 0.5625 -0.974278 0
      vertex 0 -1.125 0
    endloop
  endfacet
  facet normal 0.965926 -0.25882 0
    outer loop
      vertex -1.125 0 12
      vertex -0.974278 0.5625 0
      vertex -0.974278 0.5625 12
    endloop
  endfacet
  facet normal 0.965926 -0.25882 0
    outer loop
      vertex -0.974278 0.5625 0
      vertex -1.125 0 12
      vertex -1.125 0 0
    endloop
  endfacet
  facet normal 0.707107 -0.707107 0
    outer loop
      vertex -0.974278 0.5625 12
      vertex -0.5625 0.974278 0
      vertex -0.5625 0.974278 12
    endloop
  endfacet
  facet normal 0.707107 -0.707107 0
    outer loop
      vertex -0.5625 0.974278 0
      vertex -0.974278 0.5625 12
      vertex -0.974278 0.5625 0
    endloop
  endfacet
  facet normal -0.707107 0.707107 0
    outer loop
      vertex 0.5625 -0.974278 0
      vertex 0.974278 -0.5625 12
      vertex 0.974278 -0.5625 0
    endloop
  endfacet
  facet normal -0.707107 0.707107 0
    outer loop
      vertex 0.974278 -0.5625 12
      vertex 0.5625 -0.974278 0
      vertex 0.5625 -0.974278 12
    endloop
  endfacet
  facet normal 0.25882 0.965926 -0
    outer loop
      vertex 0 -1.125 0
      vertex -0.5625 -0.974278 12
      vertex 0 -1.125 12
    endloop
  endfacet
  facet normal 0.25882 0.965926 0
    outer loop
      vertex -0.5625 -0.974278 12
      vertex 0 -1.125 0
      vertex -0.5625 -0.974278 0
    endloop
  endfacet
  facet normal 0.707107 0.707107 0
    outer loop
      vertex -0.5625 -0.974278 12
      vertex -0.974278 -0.5625 0
      vertex -0.974278 -0.5625 12
    endloop
  endfacet
  facet normal 0.707107 0.707107 0
    outer loop
      vertex -0.974278 -0.5625 0
      vertex -0.5625 -0.974278 12
      vertex -0.5625 -0.974278 0
    endloop
  endfacet
endsolid OpenSCAD_Model
