solid OpenSCAD_Model
  facet normal 0 -1 0
    outer loop
      vertex -1.75 -3.03109 0
      vertex 1.75 -3.03109 6
      vertex -1.75 -3.03109 6
    endloop
  endfacet
  facet normal 0 -1 -0
    outer loop
      vertex 1.75 -3.03109 6
      vertex -1.75 -3.03109 0
      vertex 1.75 -3.03109 0
    endloop
  endfacet
  facet normal 0.866025 -0.5 0
    outer loop
      vertex 1.75 -3.03109 6
      vertex 3.5 0 0
      vertex 3.5 0 6
    endloop
  endfacet
  facet normal 0.866025 -0.5 0
    outer loop
      vertex 3.5 0 0
      vertex 1.75 -3.03109 6
      vertex 1.75 -3.03109 0
    endloop
  endfacet
  facet normal 0 1 -0
    outer loop
      vertex 1.75 3.03109 0
      vertex -1.75 3.03109 6
      vertex 1.75 3.03109 6
    endloop
  endfacet
  facet normal 0 1 0
    outer loop
      vertex -1.75 3.03109 6
      vertex 1.75 3.03109 0
      vertex -1.75 3.03109 0
    endloop
  endfacet
  facet normal 0.866025 0.5 0
    outer loop
      vertex 3.5 0 6
      vertex 1.75 3.03109 0
      vertex 1.75 3.03109 6
    endloop
  endfacet
  facet normal 0.866025 0.5 0
    outer loop
      vertex 1.75 3.03109 0
      vertex 3.5 0 6
      vertex 3.5 0 0
    endloop
  endfacet
  facet normal -0.866025 0.5 0
    outer loop
      vertex -3.5 0 0
      vertex -1.75 3.03109 6
      vertex -1.75 3.03109 0
    endloop
  endfacet
  facet normal -0.866025 0.5 0
    outer loop
      vertex -1.75 3.03109 6
      vertex -3.5 0 0
      vertex -3.5 0 6
    endloop
  endfacet
  facet normal -0.866025 -0.5 0
    outer loop
      vertex -1.75 -3.03109 0
      vertex -3.5 0 6
      vertex -3.5 0 0
    endloop
  endfacet
  facet normal -0.866025 -0.5 0
    outer loop
      vertex -3.5 0 6
      vertex -1.75 -3.03109 0
      vertex -1.75 -3.03109 6
    endloop
  endfacet
  facet normal -0 0 1
    outer loop
      vertex 1.29904 0.75 6
      vertex 3.5 0 6
      vertex 1.75 3.03109 6
    endloop
  endfacet
  facet normal 0 0 1
    outer loop
      vertex 1.29904 -0.75 6
      vertex 3.5 0 6
      vertex 1.5 0 6
    endloop
  endfacet
  facet normal 0 0 1
    outer loop
      vertex 3.5 0 6
      vertex 1.29904 0.75 6
      vertex 1.5 0 6
    endloop
  endfacet
  facet normal 0 0 1
    outer loop
      vertex 1.75 3.03109 6
      vertex 0.75 1.29904 6
      vertex 1.29904 0.75 6
    endloop
  endfacet
  facet normal 0 0 1
    outer loop
      vertex 1.75 3.03109 6
      vertex 0 1.5 6
      vertex 0.75 1.29904 6
    endloop
  endfacet
  facet normal -0 0 1
    outer loop
      vertex -1.75 3.03109 6
      vertex 0 1.5 6
      vertex 1.75 3.03109 6
    endloop
  endfacet
  facet normal 0 0 1
    outer loop
      vertex -3.5 0 6
      vertex -1.29904 0.75 6
      vertex -1.75 3.03109 6
    endloop
  endfacet
  facet normal 0 0 1
    outer loop
      vertex -0.75 1.29904 6
      vertex -1.75 3.03109 6
      vertex -1.29904 0.75 6
    endloop
  endfacet
  facet normal 0 0 1
    outer loop
      vertex 0 1.5 6
      vertex -1.75 3.03109 6
      vertex -0.75 1.29904 6
    endloop
  endfacet
  facet normal 0 0 1
    outer loop
      vertex 3.5 0 6
      vertex 1.29904 -0.75 6
      vertex 1.75 -3.03109 6
    endloop
  endfacet
  facet normal -0 0 1
    outer loop
      vertex 0.75 -1.29904 6
      vertex 1.75 -3.03109 6
      vertex 1.29904 -0.75 6
    endloop
  endfacet
  facet normal -0 0 1
    outer loop
      vertex 0 -1.5 6
      vertex 1.75 -3.03109 6
      vertex 0.75 -1.29904 6
    endloop
  endfacet
  facet normal 0 0 1
    outer loop
      vertex -1.75 -3.03109 6
      vertex 0 -1.5 6
      vertex -0.75 -1.29904 6
    endloop
  endfacet
  facet normal 0 0 1
    outer loop
      vertex 0 -1.5 6
      vertex -1.75 -3.03109 6
      vertex 1.75 -3.03109 6
    endloop
  endfacet
  facet normal 0 0 1
    outer loop
      vertex -1.29904 -0.75 6
      vertex -1.75 -3.03109 6
      vertex -0.75 -1.29904 6
    endloop
  endfacet
  facet normal -0 0 1
    outer loop
      vertex -3.5 0 6
      vertex -1.29904 -0.75 6
      vertex -1.5 0 6
    endloop
  endfacet
  facet normal 0 0 1
    outer loop
      vertex -1.29904 0.75 6
      vertex -3.5 0 6
      vertex -1.5 0 6
    endloop
  endfacet
  facet normal 0 0 1
    outer loop
      vertex -1.29904 -0.75 6
      vertex -3.5 0 6
      vertex -1.75 -3.03109 6
    endloop
  endfacet
  facet normal 0 0 -1
    outer loop
      vertex 1.29904 -0.75 0
      vertex 3.5 0 0
      vertex 1.75 -3.03109 0
    endloop
  endfacet
  facet normal 0 0 -1
    outer loop
      vertex 1.29904 0.75 0
      vertex 3.5 0 0
      vertex 1.5 0 0
    endloop
  endfacet
  facet normal -0 0 -1
    outer loop
      vertex 3.5 0 0
      vertex 1.29904 -0.75 0
      vertex 1.5 0 0
    endloop
  endfacet
  facet normal 0 0 -1
    outer loop
      vertex 1.75 -3.03109 0
      vertex 0.75 -1.29904 0
      vertex 1.29904 -0.75 0
    endloop
  endfacet
  facet normal 0 0 -1
    outer loop
      vertex 1.75 -3.03109 0
      vertex 0 -1.5 0
      vertex 0.75 -1.29904 0
    endloop
  endfacet
  facet normal 0 0 -1
    outer loop
      vertex -1.75 -3.03109 0
      vertex 0 -1.5 0
      vertex 1.75 -3.03109 0
    endloop
  endfacet
  facet normal 0 0 -1
    outer loop
      vertex -3.5 0 0
      vertex -1.29904 -0.75 0
      vertex -1.75 -3.03109 0
    endloop
  endfacet
  facet normal -0 0 -1
    outer loop
      vertex -0.75 -1.29904 0
      vertex -1.75 -3.03109 0
      vertex -1.29904 -0.75 0
    endloop
  endfacet
  facet normal -0 0 -1
    outer loop
      vertex 0 -1.5 0
      vertex -1.75 -3.03109 0
      vertex -0.75 -1.29904 0
    endloop
  endfacet
  facet normal 0 0 -1
    outer loop
      vertex 3.5 0 0
      vertex 1.29904 0.75 0
      vertex 1.75 3.03109 0
    endloop
  endfacet
  facet normal 0 0 -1
    outer loop
      vertex 0.75 1.29904 0
      vertex 1.75 3.03109 0
      vertex 1.29904 0.75 0
    endloop
  endfacet
  facet normal 0 0 -1
    outer loop
      vertex 0 1.5 0
      vertex 1.75 3.03109 0
      vertex 0.75 1.29904 0
    endloop
  endfacet
  facet normal 0 0 -1
    outer loop
      vertex -1.75 3.03109 0
      vertex 0 1.5 0
      vertex -0.75 1.29904 0
    endloop
  endfacet
  facet normal 0 0 -1
    outer loop
      vertex 0 1.5 0
      vertex -1.75 3.03109 0
      vertex 1.75 3.03109 0
    endloop
  endfacet
  facet normal 0 0 -1
    outer loop
      vertex -1.29904 0.75 0
      vertex -1.75 3.03109 0
      vertex -0.75 1.29904 0
    endloop
  endfacet
  facet normal 0 0 -1
    outer loop
      vertex -3.5 0 0
      vertex -1.29904 0.75 0
      vertex -1.5 0 0
    endloop
  endfacet
  facet normal 0 0 -1
    outer loop
      vertex -1.29904 -0.75 0
      vertex -3.5 0 0
      vertex -1.5 0 0
    endloop
  endfacet
  facet normal -0 0 -1
    outer loop
      vertex -1.29904 0.75 0
      vertex -3.5 0 0
      vertex -1.75 3.03109 0
    endloop
  endfacet
  facet normal 0.965926 0.258817 0
    outer loop
      vertex -1.29904 -0.75 6
      vertex -1.5 0 0
      vertex -1.5 0 6
    endloop
  endfacet
  facet normal 0.965926 0.258817 0
    outer loop
      vertex -1.5 0 0
      vertex -1.29904 -0.75 6
      vertex -1.29904 -0.75 0
    endloop
  endfacet
  facet normal -0.707107 -0.707107 0
    outer loop
      vertex 1.29904 0.75 0
      vertex 0.75 1.29904 6
      vertex 0.75 1.29904 0
    endloop
  endfacet
  facet normal -0.707107 -0.707107 0
    outer loop
      vertex 0.75 1.29904 6
      vertex 1.29904 0.75 0
      vertex 1.29904 0.75 6
    endloop
  endfacet
  facet normal -0.965926 -0.258817 0
    outer loop
      vertex 1.5 0 0
      vertex 1.29904 0.75 6
      vertex 1.29904 0.75 0
    endloop
  endfacet
  facet normal -0.965926 -0.258817 0
    outer loop
      vertex 1.29904 0.75 6
      vertex 1.5 0 0
      vertex 1.5 0 6
    endloop
  endfacet
  facet normal -0.258817 -0.965926 0
    outer loop
      vertex 0 1.5 0
      vertex 0.75 1.29904 6
      vertex 0 1.5 6
    endloop
  endfacet
  facet normal -0.258817 -0.965926 -0
    outer loop
      vertex 0.75 1.29904 6
      vertex 0 1.5 0
      vertex 0.75 1.29904 0
    endloop
  endfacet
  facet normal -0.258817 0.965926 0
    outer loop
      vertex 0.75 -1.29904 0
      vertex 0 -1.5 6
      vertex 0.75 -1.29904 6
    endloop
  endfacet
  facet normal -0.258817 0.965926 0
    outer loop
      vertex 0 -1.5 6
      vertex 0.75 -1.29904 0
      vertex 0 -1.5 0
    endloop
  endfacet
  facet normal -0.965926 0.258817 0
    outer loop
      vertex 1.29904 -0.75 0
      vertex 1.5 0 6
      vertex 1.5 0 0
    endloop
  endfacet
  facet normal -0.965926 0.258817 0
    outer loop
      vertex 1.5 0 6
      vertex 1.29904 -0.75 0
      vertex 1.29904 -0.75 6
    endloop
  endfacet
  facet normal 0.707107 -0.707107 0
    outer loop
      vertex -1.29904 0.75 6
      vertex -0.75 1.29904 0
      vertex -0.75 1.29904 6
    endloop
  endfacet
  facet normal 0.707107 -0.707107 0
    outer loop
      vertex -0.75 1.29904 0
      vertex -1.29904 0.75 6
      vertex -1.29904 0.75 0
    endloop
  endfacet
  facet normal 0.258817 -0.965926 0
    outer loop
      vertex -0.75 1.29904 0
      vertex 0 1.5 6
      vertex -0.75 1.29904 6
    endloop
  endfacet
  facet normal 0.258817 -0.965926 0
    outer loop
      vertex 0 1.5 6
      vertex -0.75 1.29904 0
      vertex 0 1.5 0
    endloop
  endfacet
  facet normal 0.965926 -0.258817 0
    outer loop
      vertex -1.5 0 6
      vertex -1.29904 0.75 0
      vertex -1.29904 0.75 6
    endloop
  endfacet
  facet normal 0.965926 -0.258817 0
    outer loop
      vertex -1.29904 0.75 0
      vertex -1.5 0 6
      vertex -1.5 0 0
    endloop
  endfacet
  facet normal -0.707107 0.707107 0
    outer loop
      vertex 0.75 -1.29904 0
      vertex 1.29904 -0.75 6
      vertex 1.29904 -0.75 0
    endloop
  endfacet
  facet normal -0.707107 0.707107 0
    outer loop
      vertex 1.29904 -0.75 6
      vertex 0.75 -1.29904 0
      vertex 0.75 -1.29904 6
    endloop
  endfacet
  facet normal 0.707107 0.707107 0
    outer loop
      vertex -0.75 -1.29904 6
      vertex -1.29904 -0.75 0
      vertex -1.29904 -0.75 6
    endloop
  endfacet
  facet normal 0.707107 0.707107 0
    outer loop
      vertex -1.29904 -0.75 0
      vertex -0.75 -1.29904 6
      vertex -0.75 -1.29904 0
    endloop
  endfacet
  facet normal 0.258817 0.965926 -0
    outer loop
      vertex 0 -1.5 0
      vertex -0.75 -1.29904 6
      vertex 0 -1.5 6
    endloop
  endfacet
  facet normal 0.258817 0.965926 0
    outer loop
      vertex -0.75 -1.29904 6
      vertex 0 -1.5 0
      vertex -0.75 -1.29904 0
    endloop
  endfacet
endsolid OpenSCAD_Model
